%TF.GenerationSoftware,KiCad,Pcbnew,10.0.5*%
%TF.CreationDate,2026-09-05T18:44:51+08:00*%
%TF.ProjectId,foc_driver,666f635f-6472-4697-9665-722e6b696361,rev?*%
%TF.SameCoordinates,Original*%
%TF.FileFunction,Copper,L2,Bot*%
%TF.FilePolarity,Positive*%
%FSLAX46Y46*%
G04 Gerber Fmt 4.6, Leading zero omitted, Abs format (unit mm)*
G04 Created by KiCad (PCBNEW 10.0.5) date 2026-09-05 18:44:51*
%MOMM*%
%LPD*%
G01*
G04 APERTURE LIST*
G04 Aperture macros list*
%AMRoundRect*
0 Rectangle with rounded corners*
0 $1 Rounding radius*
0 $2 $3 $4 $5 $6 $7 $8 $9 X,Y pos of 4 corners*
0 Add a 4 corners polygon primitive as box body*
4,1,4,$2,$3,$4,$5,$6,$7,$8,$9,$2,$3,0*
0 Add four circle primitives for the rounded corners*
1,1,$1+$1,$2,$3*
1,1,$1+$1,$4,$5*
1,1,$1+$1,$6,$7*
1,1,$1+$1,$8,$9*
0 Add four rect primitives between the rounded corners*
20,1,$1+$1,$2,$3,$4,$5,0*
20,1,$1+$1,$4,$5,$6,$7,0*
20,1,$1+$1,$6,$7,$8,$9,0*
20,1,$1+$1,$8,$9,$2,$3,0*%
G04 Aperture macros list end*
%TA.AperFunction,EtchedComponent*%
%ADD10C,0.000000*%
%TD*%
%TA.AperFunction,HeatsinkPad*%
%ADD11O,2.100000X1.000000*%
%TD*%
%TA.AperFunction,HeatsinkPad*%
%ADD12O,1.800000X1.000000*%
%TD*%
%TA.AperFunction,ComponentPad*%
%ADD13RoundRect,0.250000X1.000000X0.750000X-1.000000X0.750000X-1.000000X-0.750000X1.000000X-0.750000X0*%
%TD*%
%TA.AperFunction,ComponentPad*%
%ADD14C,1.400000*%
%TD*%
%TA.AperFunction,ComponentPad*%
%ADD15RoundRect,0.770000X-0.980000X-0.980000X0.980000X-0.980000X0.980000X0.980000X-0.980000X0.980000X0*%
%TD*%
%TA.AperFunction,ComponentPad*%
%ADD16C,3.500000*%
%TD*%
%TA.AperFunction,SMDPad,CuDef*%
%ADD17RoundRect,0.250000X-1.425000X0.362500X-1.425000X-0.362500X1.425000X-0.362500X1.425000X0.362500X0*%
%TD*%
%TA.AperFunction,SMDPad,CuDef*%
%ADD18C,0.500000*%
%TD*%
%TA.AperFunction,SMDPad,CuDef*%
%ADD19RoundRect,0.155000X0.155000X-0.212500X0.155000X0.212500X-0.155000X0.212500X-0.155000X-0.212500X0*%
%TD*%
%TA.AperFunction,SMDPad,CuDef*%
%ADD20RoundRect,0.100000X0.637500X0.100000X-0.637500X0.100000X-0.637500X-0.100000X0.637500X-0.100000X0*%
%TD*%
%TA.AperFunction,SMDPad,CuDef*%
%ADD21RoundRect,0.200000X-0.200000X-0.600000X0.200000X-0.600000X0.200000X0.600000X-0.200000X0.600000X0*%
%TD*%
%TA.AperFunction,SMDPad,CuDef*%
%ADD22RoundRect,0.250001X-0.799999X-1.249999X0.799999X-1.249999X0.799999X1.249999X-0.799999X1.249999X0*%
%TD*%
%TA.AperFunction,ViaPad*%
%ADD23C,0.700000*%
%TD*%
%TA.AperFunction,ViaPad*%
%ADD24C,0.500000*%
%TD*%
%TA.AperFunction,Conductor*%
%ADD25C,0.304800*%
%TD*%
%TA.AperFunction,Conductor*%
%ADD26C,0.609600*%
%TD*%
%TA.AperFunction,Conductor*%
%ADD27C,0.203200*%
%TD*%
G04 APERTURE END LIST*
D10*
%TA.AperFunction,EtchedComponent*%
%TO.C,NT1*%
G36*
X154623750Y-106683750D02*
G01*
X154123750Y-106683750D01*
X154123750Y-105683750D01*
X154623750Y-105683750D01*
X154623750Y-106683750D01*
G37*
%TD.AperFunction*%
%TD*%
D11*
%TO.P,J7,S1,SHIELD_S1*%
%TO.N,GND*%
X124625000Y-92180000D03*
D12*
X120425000Y-92180000D03*
D11*
X124625000Y-100820000D03*
D12*
X120425000Y-100820000D03*
%TD*%
D13*
%TO.P,J5,1,Pin_1_1*%
%TO.N,/Inverter/OUT_B*%
X167232500Y-97293750D03*
%TD*%
%TO.P,J6,1,Pin_1_1*%
%TO.N,/Inverter/OUT_C*%
X167232500Y-87292500D03*
%TD*%
%TO.P,J4,1,Pin_1_1*%
%TO.N,/Inverter/OUT_A*%
X167232500Y-107295000D03*
%TD*%
D14*
%TO.P,J3,*%
%TO.N,*%
X134000000Y-120500000D03*
X145000000Y-120500000D03*
D15*
%TO.P,J3,1,Pin_1_1*%
%TO.N,GND*%
X142000000Y-110500000D03*
D16*
%TO.P,J3,2,Pin_2_2*%
%TO.N,VS*%
X137000000Y-110500000D03*
%TD*%
D17*
%TO.P,R13,1*%
%TO.N,/Gate Driver/SHA*%
X164000000Y-101575000D03*
%TO.P,R13,2*%
%TO.N,/Inverter/OUT_A*%
X164000000Y-107500000D03*
%TD*%
%TO.P,R23,1*%
%TO.N,/Gate Driver/SHC*%
X164000000Y-81575000D03*
%TO.P,R23,2*%
%TO.N,/Inverter/OUT_C*%
X164000000Y-87500000D03*
%TD*%
D18*
%TO.P,NT1,1,1_1*%
%TO.N,GNDA*%
X154373750Y-105683750D03*
%TO.P,NT1,2,2_2*%
%TO.N,GND*%
X154373750Y-106683750D03*
%TD*%
D14*
%TO.P,J2,*%
%TO.N,*%
X152000000Y-120500000D03*
X163000000Y-120500000D03*
D15*
%TO.P,J2,1,Pin_1_1*%
%TO.N,GND*%
X160000000Y-110500000D03*
D16*
%TO.P,J2,2,Pin_2_2*%
%TO.N,VS*%
X155000000Y-110500000D03*
%TD*%
D19*
%TO.P,C51,1*%
%TO.N,+3V3*%
X144055000Y-95797500D03*
%TO.P,C51,2*%
%TO.N,GND*%
X144055000Y-94662500D03*
%TD*%
D20*
%TO.P,U10,1,~{CS}_1*%
%TO.N,/Encoders/CS0*%
X151362500Y-94550000D03*
%TO.P,U10,2,CLK_2*%
%TO.N,/Encoders/SCK*%
X151362500Y-95200000D03*
%TO.P,U10,3,MISO_3*%
%TO.N,/Encoders/MISO*%
X151362500Y-95850000D03*
%TO.P,U10,4,MOSI_4*%
%TO.N,/Encoders/MOSI*%
X151362500Y-96500000D03*
%TO.P,U10,5,TST_5*%
%TO.N,GND*%
X151362500Y-97150000D03*
%TO.P,U10,6,B_6*%
%TO.N,unconnected-(U10-B-Pad6)*%
X151362500Y-97800000D03*
%TO.P,U10,7,A_7*%
%TO.N,unconnected-(U10-A-Pad7)*%
X151362500Y-98450000D03*
%TO.P,U10,8,W/PWM_8*%
%TO.N,unconnected-(U10-W{slash}PWM-Pad8)*%
X145637500Y-98450000D03*
%TO.P,U10,9,V_9*%
%TO.N,unconnected-(U10-V-Pad9)*%
X145637500Y-97800000D03*
%TO.P,U10,10,U_10*%
%TO.N,unconnected-(U10-U-Pad10)*%
X145637500Y-97150000D03*
%TO.P,U10,11,VDD_11*%
%TO.N,+3V3*%
X145637500Y-96500000D03*
%TO.P,U10,12,VDD3V3_12*%
X145637500Y-95850000D03*
%TO.P,U10,13,GND_13*%
%TO.N,GND*%
X145637500Y-95200000D03*
%TO.P,U10,14,I/PWM_14*%
%TO.N,unconnected-(U10-I{slash}PWM-Pad14)*%
X145637500Y-94550000D03*
%TD*%
D21*
%TO.P,J10,1,Pin_1_1*%
%TO.N,/Encoders/MOSI*%
X145375000Y-72028750D03*
%TO.P,J10,2,Pin_2_2*%
%TO.N,/Encoders/MISO*%
X146625000Y-72028750D03*
%TO.P,J10,3,Pin_3_3*%
%TO.N,/Encoders/SCK*%
X147875000Y-72028750D03*
%TO.P,J10,4,Pin_4_4*%
%TO.N,/Encoders/CS1*%
X149125000Y-72028750D03*
%TO.P,J10,5,Pin_5_5*%
%TO.N,+3V3*%
X150375000Y-72028750D03*
%TO.P,J10,6,Pin_6_6*%
%TO.N,GND*%
X151625000Y-72028750D03*
D22*
%TO.P,J10,MP,MountPin_MP*%
%TO.N,unconnected-(J10-MountPin-PadMP)*%
X142825000Y-69128750D03*
%TO.N,unconnected-(J10-MountPin-PadMP)_1*%
X154175000Y-69128750D03*
%TD*%
D17*
%TO.P,R19,1*%
%TO.N,/Gate Driver/SHB*%
X164000000Y-91575000D03*
%TO.P,R19,2*%
%TO.N,/Inverter/OUT_B*%
X164000000Y-97500000D03*
%TD*%
D23*
%TO.N,GND*%
X160088750Y-91261250D03*
D24*
X136276250Y-74275000D03*
D23*
X158501250Y-79990000D03*
D24*
X137332321Y-77778550D03*
X151675000Y-116661250D03*
X146753750Y-108406250D03*
X141038750Y-104437500D03*
X127703750Y-104404100D03*
D23*
X160088750Y-83800000D03*
D24*
X146067896Y-75017896D03*
D23*
X160088750Y-89991250D03*
D24*
X145325000Y-99833750D03*
D23*
X158501250Y-92531250D03*
D24*
X139133750Y-74275000D03*
X127703750Y-108088750D03*
X148023750Y-101103750D03*
X175011250Y-87133750D03*
D23*
X159295000Y-83165000D03*
D24*
X149293750Y-101103750D03*
D23*
X159295000Y-103167500D03*
D24*
X149293750Y-98246250D03*
D23*
X160088750Y-99992500D03*
D24*
X148023750Y-99833750D03*
X145483750Y-110152500D03*
D23*
X160088750Y-93801250D03*
X159295000Y-90626250D03*
D24*
X133895000Y-105160100D03*
D23*
X158501250Y-81260000D03*
X158501250Y-93801250D03*
X159295000Y-80625000D03*
D24*
X150722500Y-108723750D03*
D23*
X158501250Y-83800000D03*
D24*
X127227500Y-96500000D03*
X139610000Y-108247500D03*
X126275000Y-108088750D03*
X129450000Y-87768750D03*
X148023750Y-98246250D03*
X131990000Y-88880000D03*
D23*
X160088750Y-92531250D03*
D24*
X127066250Y-107728750D03*
X125798750Y-88245000D03*
X149770000Y-80942500D03*
X137070000Y-99040000D03*
D23*
X159295000Y-100627500D03*
D24*
X133577500Y-101421250D03*
D23*
X158501250Y-101262500D03*
X158501250Y-91261250D03*
D24*
X129450000Y-88880000D03*
X175011250Y-107136250D03*
X175011250Y-99198750D03*
X131196250Y-110152500D03*
X150246250Y-92372500D03*
D23*
X158501250Y-82530000D03*
D24*
X149611250Y-110152500D03*
X149293750Y-99833750D03*
D23*
X159295000Y-91896250D03*
X159295000Y-101897500D03*
X158501250Y-102532500D03*
D24*
X158818750Y-117931250D03*
X139768750Y-96817500D03*
X146595000Y-101103750D03*
D23*
X158501250Y-99992500D03*
D24*
X132783750Y-86975000D03*
X123735000Y-104913750D03*
X147547500Y-110152500D03*
X126275000Y-107295000D03*
X135482500Y-92690000D03*
X138816250Y-77204700D03*
X175001795Y-108878084D03*
X149770000Y-78720000D03*
X137705000Y-107453750D03*
D23*
X160088750Y-103802500D03*
D24*
X149293750Y-102373750D03*
D23*
X158501250Y-89991250D03*
D24*
X124687500Y-106977500D03*
X131672500Y-106660000D03*
X141197500Y-94595000D03*
X151040000Y-78720000D03*
X148658750Y-108723750D03*
X148023750Y-102373750D03*
X140721250Y-117931250D03*
X128815000Y-82934050D03*
D23*
X160088750Y-102532500D03*
X160088750Y-82530000D03*
D24*
X132466250Y-81736250D03*
D23*
X159295000Y-93166250D03*
D24*
X161200000Y-73798750D03*
X146595000Y-102373750D03*
X147547500Y-116661250D03*
D23*
X160088750Y-79990000D03*
D24*
X130878750Y-108247500D03*
D23*
X160088750Y-81260000D03*
X160088750Y-101262500D03*
D24*
X145325000Y-102373750D03*
X145483750Y-116661250D03*
D23*
X159295000Y-81895000D03*
D24*
X149611250Y-116661250D03*
X147230000Y-91578750D03*
X127703750Y-107295000D03*
X146595000Y-99833750D03*
X145325000Y-101103750D03*
X175011250Y-97135000D03*
X148500000Y-78561250D03*
X151675000Y-110152500D03*
D23*
X158501250Y-103802500D03*
D24*
X175011250Y-89197500D03*
X148023750Y-92372500D03*
X161676250Y-75068750D03*
X149770000Y-82212500D03*
%TO.N,VS*%
X141038750Y-102373750D03*
D23*
X151833750Y-106977500D03*
D24*
%TO.N,/Gate Driver/GHB*%
X158818750Y-97770000D03*
X161517500Y-98087500D03*
D23*
%TO.N,/Communications/VBUS*%
X126433750Y-94100000D03*
X126433750Y-98881250D03*
%TO.N,+3V3*%
X140562500Y-76497500D03*
X142150000Y-94753750D03*
X155167500Y-92372500D03*
X128656250Y-88086250D03*
D24*
X127703750Y-101421250D03*
D23*
X147706250Y-80035200D03*
D24*
X125640000Y-102691250D03*
X127703750Y-98881250D03*
X150563752Y-91102500D03*
D23*
X153262500Y-79355000D03*
X144848750Y-76497500D03*
X155167500Y-102215000D03*
D24*
%TO.N,/Communications/CAN_P*%
X127420350Y-112090900D03*
X138523400Y-118040120D03*
X156523400Y-118053514D03*
%TO.N,/Communications/CAN_N*%
X126717150Y-112090900D03*
X157226600Y-118053514D03*
X139226600Y-118040120D03*
D23*
%TO.N,+5V*%
X127703750Y-88721250D03*
X141197500Y-72211250D03*
D24*
%TO.N,GNDA*%
X155643750Y-94912500D03*
X157571250Y-86027502D03*
X157571250Y-96028752D03*
X154850000Y-83958750D03*
X156278750Y-101421250D03*
X155643750Y-104913750D03*
X153546600Y-74910000D03*
X156278750Y-91420000D03*
X155643750Y-85070000D03*
X155008750Y-103802500D03*
X157548750Y-105707500D03*
X156120000Y-75862500D03*
X154850000Y-93801250D03*
X156278750Y-81418750D03*
D23*
%TO.N,/Gate Driver/SHA*%
X165486250Y-101580000D03*
X164375000Y-101580000D03*
X165486250Y-103802500D03*
X164375000Y-103802500D03*
X164375000Y-102691250D03*
D24*
X156278750Y-104437500D03*
D23*
X165486250Y-102691250D03*
D24*
%TO.N,/Inverter/PV_SENSE*%
X138527750Y-86284441D03*
X154850000Y-73163750D03*
%TO.N,/Inverter/ISENSE_A*%
X136946429Y-89522273D03*
X152627500Y-102215000D03*
%TO.N,/Inverter/ISENSE_C*%
X137519750Y-88217250D03*
X152627500Y-81577500D03*
%TO.N,/Inverter/ISENSE_B*%
X152627498Y-90467500D03*
X135982566Y-88745066D03*
%TO.N,/Encoders/EXT_ENCDI*%
X146436250Y-77174510D03*
X146436250Y-78878750D03*
%TO.N,/Communications/USB_N*%
X142943750Y-84357853D03*
X133736250Y-96148400D03*
%TO.N,/MCU/SWDIO*%
X128815000Y-85221575D03*
X142626250Y-82502250D03*
%TO.N,/MCU/SWCLK*%
X143499375Y-81201464D03*
X128338750Y-86181250D03*
%TO.N,/Gate Driver/GLB*%
X158818750Y-96023750D03*
X157390000Y-98010100D03*
%TO.N,/Gate Driver/SHB*%
X156278750Y-94436250D03*
D23*
X165486250Y-92690000D03*
X165486250Y-91578750D03*
X165486250Y-93801250D03*
X164375000Y-91578750D03*
X164375000Y-92690000D03*
X164375000Y-93801250D03*
%TO.N,/Gate Driver/SHC*%
X165486250Y-83800000D03*
X164375000Y-82688750D03*
X165486250Y-82688750D03*
D24*
X156278750Y-84435000D03*
D23*
X164375000Y-81577500D03*
X164375000Y-83800000D03*
X165486250Y-81577500D03*
D24*
%TO.N,/Gate Driver/FAULT*%
X142522750Y-89515000D03*
X148459537Y-96040553D03*
%TO.N,/Gate Driver/EN_GATE*%
X143737500Y-87451250D03*
X147206210Y-95350222D03*
%TO.N,/Gate Driver/INL_B*%
X145161939Y-90837731D03*
X146753750Y-87927500D03*
%TO.N,/Gate Driver/INL_C*%
X143578750Y-89673750D03*
X144390020Y-87508080D03*
%TO.N,/Communications/USB_P*%
X133736250Y-96851600D03*
X142943750Y-83607850D03*
%TO.N,/Communications/CAN_TX*%
X137005184Y-84736329D03*
X128473684Y-103086650D03*
%TO.N,/Communications/CAN_RX*%
X137509184Y-85218184D03*
X125726550Y-103632018D03*
%TO.N,/Inverter/OUT_B*%
X156913750Y-95071250D03*
%TO.N,/Inverter/OUT_C*%
X156913750Y-85070000D03*
%TO.N,/Encoders/SCK*%
X138443191Y-81998191D03*
X140648238Y-92097614D03*
%TO.N,/Encoders/CS0*%
X141197500Y-89673750D03*
%TO.N,/Encoders/CS1*%
X142467500Y-78271500D03*
%TO.N,/Encoders/MISO*%
X140022750Y-81419750D03*
X140022750Y-89197500D03*
%TO.N,/Encoders/MOSI*%
X139518750Y-80942500D03*
X139518750Y-89673750D03*
%TO.N,/Inverter/OUT_A*%
X156913750Y-105072500D03*
%TD*%
%TO.N,GND*%
D25*
X146301660Y-95200000D02*
X146680800Y-95579140D01*
X146680800Y-95579140D02*
X146680800Y-95612172D01*
X144592500Y-95200000D02*
X144055000Y-94662500D01*
X146680800Y-95612172D02*
X148218628Y-97150000D01*
X145637500Y-95200000D02*
X144592500Y-95200000D01*
X148218628Y-97150000D02*
X151362500Y-97150000D01*
X145637500Y-95200000D02*
X146301660Y-95200000D01*
%TO.N,VS*%
D26*
X141038750Y-102373750D02*
X144690000Y-106025000D01*
X150881250Y-106025000D02*
X151833750Y-106977500D01*
X144690000Y-106025000D02*
X150881250Y-106025000D01*
%TO.N,/Gate Driver/GHB*%
D27*
X158818750Y-97770000D02*
X161200000Y-97770000D01*
X161200000Y-97770000D02*
X161517500Y-98087500D01*
%TO.N,/Communications/VBUS*%
D26*
X126433750Y-98881250D02*
X126433750Y-94100000D01*
%TO.N,+3V3*%
X153897500Y-79990000D02*
X153262500Y-79355000D01*
X127545000Y-86975000D02*
X127545000Y-85228750D01*
X155167500Y-92372500D02*
X153897500Y-92372500D01*
X143193750Y-95797500D02*
X143511250Y-95797500D01*
X134926875Y-84514375D02*
X140562500Y-78878750D01*
X153421250Y-79513752D02*
X153262499Y-79355001D01*
D25*
X144107500Y-95850000D02*
X144055000Y-95797500D01*
D26*
X147706250Y-76466310D02*
X149166190Y-76466310D01*
X155167500Y-102215000D02*
X153897500Y-100945000D01*
X144848750Y-76497500D02*
X144879940Y-76466310D01*
X144879940Y-76466310D02*
X147230000Y-76466310D01*
D25*
X145637500Y-95850000D02*
X144107500Y-95850000D01*
X153897500Y-91102500D02*
X150563752Y-91102500D01*
D26*
X153897500Y-92372500D02*
X153897500Y-91102500D01*
X153897500Y-100945000D02*
X153897500Y-92372500D01*
D25*
X145637500Y-96500000D02*
X145637500Y-95850000D01*
D26*
X140562500Y-78878750D02*
X140562500Y-76497500D01*
X150375000Y-75257500D02*
X150375000Y-72028750D01*
X127703750Y-101421250D02*
X126433750Y-102691250D01*
X153897500Y-91102500D02*
X153897500Y-79990000D01*
X142150000Y-94753750D02*
X143193750Y-95797500D01*
X147706250Y-80035200D02*
X147706250Y-76466310D01*
X147230000Y-76466310D02*
X147706250Y-76466310D01*
X127545000Y-85228750D02*
X128259375Y-84514375D01*
X144055000Y-95797500D02*
X143511250Y-95797500D01*
X126433750Y-102691250D02*
X125640000Y-102691250D01*
X149166190Y-76466310D02*
X150375000Y-75257500D01*
X127703750Y-98881250D02*
X127703750Y-101421250D01*
X128656250Y-88086250D02*
X127545000Y-86975000D01*
X128259375Y-84514375D02*
X134926875Y-84514375D01*
%TO.N,/Communications/CAN_P*%
D27*
X144456668Y-118998050D02*
X141757918Y-116299300D01*
X156671799Y-118520833D02*
X156194582Y-118998050D01*
X134296668Y-113441800D02*
X127946668Y-113441800D01*
X135685700Y-114830832D02*
X134296668Y-113441800D01*
X139367082Y-116299300D02*
X138671799Y-116994583D01*
X138671799Y-118188519D02*
X138671799Y-118582083D01*
X156523400Y-118053514D02*
X156671799Y-118201913D01*
X141757918Y-116299300D02*
X139367082Y-116299300D01*
X138671799Y-117891721D02*
X138523400Y-118040120D01*
X127271951Y-112239299D02*
X127420350Y-112090900D01*
X156194582Y-118998050D02*
X144456668Y-118998050D01*
X137938332Y-119315550D02*
X136519168Y-119315550D01*
X138671799Y-116994583D02*
X138671799Y-117891721D01*
X136519168Y-119315550D02*
X135685700Y-118482082D01*
X127946668Y-113441800D02*
X127271951Y-112767083D01*
X138523400Y-118040120D02*
X138671799Y-118188519D01*
X156671799Y-118201913D02*
X156671799Y-118520833D01*
X138671799Y-118582083D02*
X137938332Y-119315550D01*
X127271951Y-112767083D02*
X127271951Y-112239299D01*
X135685700Y-118482082D02*
X135685700Y-114830832D01*
%TO.N,/Communications/CAN_N*%
X141589582Y-116705700D02*
X139535418Y-116705700D01*
X144288332Y-119404450D02*
X141589582Y-116705700D01*
X156362918Y-119404450D02*
X144288332Y-119404450D01*
X139078201Y-117891721D02*
X139226600Y-118040120D01*
X157078201Y-118201913D02*
X157078201Y-118689167D01*
X139078201Y-118188519D02*
X139078201Y-118750417D01*
X139078201Y-118750417D02*
X138106668Y-119721950D01*
X126865549Y-112239299D02*
X126717150Y-112090900D01*
X139078201Y-117162917D02*
X139078201Y-117891721D01*
X126865549Y-112935417D02*
X126865549Y-112239299D01*
X135279300Y-118650418D02*
X135279300Y-114999168D01*
X139226600Y-118040120D02*
X139078201Y-118188519D01*
X138106668Y-119721950D02*
X136350832Y-119721950D01*
X157226600Y-118053514D02*
X157078201Y-118201913D01*
X127778332Y-113848200D02*
X126865549Y-112935417D01*
X135279300Y-114999168D02*
X134128332Y-113848200D01*
X157078201Y-118689167D02*
X156362918Y-119404450D01*
X139535418Y-116705700D02*
X139078201Y-117162917D01*
X136350832Y-119721950D02*
X135279300Y-118650418D01*
X134128332Y-113848200D02*
X127778332Y-113848200D01*
%TO.N,+5V*%
D26*
X139754300Y-78607906D02*
X139754300Y-75083200D01*
X134720956Y-83641250D02*
X139754300Y-78607906D01*
X126782000Y-84912706D02*
X128053456Y-83641250D01*
X127703750Y-88721250D02*
X126782000Y-87799500D01*
X126782000Y-87799500D02*
X126782000Y-84912706D01*
X128053456Y-83641250D02*
X134720956Y-83641250D01*
X141197500Y-73640000D02*
X141197500Y-72211250D01*
X139754300Y-75083200D02*
X141197500Y-73640000D01*
%TO.N,/Gate Driver/SHA*%
D27*
X162562500Y-104437500D02*
X156278750Y-104437500D01*
X164000000Y-101575000D02*
X164000000Y-103000000D01*
X164000000Y-103000000D02*
X162562500Y-104437500D01*
%TO.N,/Inverter/PV_SENSE*%
X152627500Y-74592500D02*
X154056250Y-73163750D01*
X138527750Y-86284441D02*
X139900940Y-84911250D01*
X148500000Y-84911250D02*
X152627500Y-80783750D01*
X152627500Y-80783750D02*
X152627500Y-74592500D01*
X139900940Y-84911250D02*
X148500000Y-84911250D01*
X154056250Y-73163750D02*
X154850000Y-73163750D01*
%TO.N,/Inverter/ISENSE_A*%
X153262500Y-100945000D02*
X153262500Y-93166250D01*
X149293750Y-90785000D02*
X149293750Y-89197500D01*
X140350462Y-86816250D02*
X137644439Y-89522273D01*
X146912500Y-86816250D02*
X140350462Y-86816250D01*
X153262500Y-93166250D02*
X151800350Y-91704100D01*
X152627500Y-102215000D02*
X152627500Y-101580000D01*
X152627500Y-101580000D02*
X153262500Y-100945000D01*
X137644439Y-89522273D02*
X136946429Y-89522273D01*
X149293750Y-89197500D02*
X146912500Y-86816250D01*
X150212850Y-91704100D02*
X149293750Y-90785000D01*
X151800350Y-91704100D02*
X150212850Y-91704100D01*
%TO.N,/Inverter/ISENSE_C*%
X148620650Y-85584350D02*
X152627500Y-81577500D01*
X140151650Y-85585350D02*
X148330209Y-85585350D01*
X137519750Y-88217250D02*
X140151650Y-85585350D01*
X148331208Y-85584350D02*
X148620650Y-85584350D01*
X148330209Y-85585350D02*
X148331208Y-85584350D01*
%TO.N,/Inverter/ISENSE_B*%
X135982566Y-88745066D02*
X137786646Y-88745066D01*
X148976250Y-86816250D02*
X152627498Y-90467500D01*
X140276537Y-86255175D02*
X148415173Y-86255175D01*
X137786646Y-88745066D02*
X140276537Y-86255175D01*
X148415173Y-86255175D02*
X148976250Y-86816250D01*
%TO.N,/Encoders/EXT_ENCDI*%
X146436250Y-77174510D02*
X146436250Y-78720000D01*
X146436250Y-79037500D02*
X146436250Y-78878750D01*
X146436250Y-78720000D02*
X146436250Y-79037500D01*
%TO.N,/Communications/USB_N*%
X133185417Y-96296799D02*
X132828200Y-95939582D01*
X132828200Y-95939582D02*
X132828200Y-91186668D01*
X133587851Y-96296799D02*
X133185417Y-96296799D01*
X132828200Y-91186668D02*
X140011667Y-84003201D01*
X140011667Y-84003201D02*
X142589098Y-84003201D01*
X133736250Y-96148400D02*
X133587851Y-96296799D01*
X142589098Y-84003201D02*
X142943750Y-84357853D01*
%TO.N,/MCU/SWDIO*%
X135302867Y-85221575D02*
X138022192Y-82502250D01*
X128815000Y-85221575D02*
X135302867Y-85221575D01*
X138022192Y-82502250D02*
X142626250Y-82502250D01*
%TO.N,/MCU/SWCLK*%
X142943750Y-83006250D02*
X138022500Y-83006250D01*
X143499375Y-82450625D02*
X142943750Y-83006250D01*
X143499375Y-81201464D02*
X143499375Y-82450625D01*
X134847500Y-86181250D02*
X128338750Y-86181250D01*
X138022500Y-83006250D02*
X134847500Y-86181250D01*
%TO.N,/Gate Driver/GLB*%
X157390000Y-98010100D02*
X157849955Y-97550145D01*
X157849955Y-96992545D02*
X158818750Y-96023750D01*
X157849955Y-97550145D02*
X157849955Y-96992545D01*
X157390000Y-98010100D02*
X157449940Y-98070040D01*
%TO.N,/Gate Driver/SHB*%
X162563750Y-94436250D02*
X156278750Y-94436250D01*
X164000000Y-91575000D02*
X164000000Y-93000000D01*
X164000000Y-93000000D02*
X162563750Y-94436250D01*
%TO.N,/Gate Driver/SHC*%
X162565000Y-84435000D02*
X164000000Y-83000000D01*
X156278750Y-84435000D02*
X162565000Y-84435000D01*
X164000000Y-82000000D02*
X164000000Y-81575000D01*
X164000000Y-83000000D02*
X164000000Y-81575000D01*
%TO.N,/Gate Driver/FAULT*%
X148459537Y-96040553D02*
X148459537Y-95613613D01*
X139795394Y-88562500D02*
X141570250Y-88562500D01*
X138816250Y-92055000D02*
X138816250Y-89541644D01*
X140245000Y-93483750D02*
X138816250Y-92055000D01*
X146329674Y-93483750D02*
X140245000Y-93483750D01*
X138816250Y-89541644D02*
X139795394Y-88562500D01*
X141570250Y-88562500D02*
X142522750Y-89515000D01*
X148459537Y-95613613D02*
X146329674Y-93483750D01*
%TO.N,/Gate Driver/EN_GATE*%
X138460650Y-89394350D02*
X138460650Y-92202294D01*
X140294556Y-94036200D02*
X146366018Y-94036200D01*
X140403750Y-87451250D02*
X138460650Y-89394350D01*
X147206210Y-94876392D02*
X147206210Y-95350222D01*
X143737500Y-87451250D02*
X140403750Y-87451250D01*
X146366018Y-94036200D02*
X147206210Y-94876392D01*
X138460650Y-92202294D02*
X140294556Y-94036200D01*
%TO.N,/Gate Driver/INL_B*%
X146753750Y-89245920D02*
X145161939Y-90837731D01*
X146753750Y-87927500D02*
X146753750Y-89245920D01*
%TO.N,/Gate Driver/INL_C*%
X144390020Y-88862480D02*
X143578750Y-89673750D01*
X144390020Y-87508080D02*
X144390020Y-88862480D01*
%TO.N,/Communications/USB_P*%
X132421800Y-96107918D02*
X132421800Y-91018332D01*
X139843333Y-83596799D02*
X142932699Y-83596799D01*
X132421800Y-91018332D02*
X139843333Y-83596799D01*
X142932699Y-83596799D02*
X142943750Y-83607850D01*
X133736250Y-96851600D02*
X133587851Y-96703201D01*
X133017083Y-96703201D02*
X132421800Y-96107918D01*
X133587851Y-96703201D02*
X133017083Y-96703201D01*
%TO.N,/Communications/CAN_TX*%
X128497500Y-93244014D02*
X128497500Y-103062834D01*
X128497500Y-103062834D02*
X128473684Y-103086650D01*
X137005184Y-84736329D02*
X128497500Y-93244014D01*
%TO.N,/Communications/CAN_RX*%
X128978684Y-93267138D02*
X136644012Y-85601809D01*
X136644012Y-85601809D02*
X137125559Y-85601809D01*
X137125559Y-85601809D02*
X137509184Y-85218184D01*
X128642494Y-103632018D02*
X128978684Y-103295828D01*
X128978684Y-103295828D02*
X128978684Y-93267138D01*
X125726550Y-103632018D02*
X128642494Y-103632018D01*
%TO.N,/Inverter/OUT_B*%
X164000000Y-97500000D02*
X164000000Y-96000000D01*
X162912500Y-94912500D02*
X157072500Y-94912500D01*
X164000000Y-96000000D02*
X162912500Y-94912500D01*
X157072500Y-94912500D02*
X156913750Y-95071250D01*
%TO.N,/Inverter/OUT_C*%
X164000000Y-87500000D02*
X164000000Y-86000000D01*
X164000000Y-86000000D02*
X162911250Y-84911250D01*
X157072500Y-84911250D02*
X156913750Y-85070000D01*
X162911250Y-84911250D02*
X157072500Y-84911250D01*
%TO.N,/Encoders/SCK*%
X147397750Y-73641000D02*
X147875000Y-73163750D01*
X138443191Y-81998191D02*
X140268809Y-81998191D01*
X143260250Y-73641000D02*
X147397750Y-73641000D01*
X149554606Y-95200000D02*
X146749946Y-92395340D01*
X141959500Y-74941750D02*
X143260250Y-73641000D01*
X140268809Y-81998191D02*
X141959500Y-80307500D01*
X151362500Y-95200000D02*
X149554606Y-95200000D01*
X146749946Y-92395340D02*
X141935272Y-92395340D01*
X141959500Y-80307500D02*
X141959500Y-74941750D01*
X141637546Y-92097614D02*
X140648238Y-92097614D01*
X147875000Y-73163750D02*
X147875000Y-72028750D01*
X141935272Y-92395340D02*
X141637546Y-92097614D01*
%TO.N,/Encoders/CS0*%
X151362500Y-94550000D02*
X149407500Y-94550000D01*
X143563490Y-92039740D02*
X141197500Y-89673750D01*
X146897240Y-92039740D02*
X143563490Y-92039740D01*
X149407500Y-94550000D02*
X146897240Y-92039740D01*
%TO.N,/Encoders/CS1*%
X143407958Y-73997600D02*
X148449900Y-73997600D01*
X142467500Y-74938058D02*
X143407958Y-73997600D01*
X148449900Y-73997600D02*
X149125000Y-73322500D01*
X149125000Y-73322500D02*
X149125000Y-72028750D01*
X142467500Y-78271500D02*
X142467500Y-74938058D01*
%TO.N,/Encoders/MISO*%
X143009908Y-73284400D02*
X146169350Y-73284400D01*
X149701712Y-95850000D02*
X146602652Y-92750940D01*
X140022750Y-92209888D02*
X140022750Y-89197500D01*
X140085250Y-81419750D02*
X141603900Y-79901100D01*
X151362500Y-95850000D02*
X149701712Y-95850000D01*
X141603900Y-74690408D02*
X143009908Y-73284400D01*
X146169350Y-73284400D02*
X146625000Y-72828750D01*
X140022750Y-81419750D02*
X140085250Y-81419750D01*
X146602652Y-92750940D02*
X140563802Y-92750940D01*
X140563802Y-92750940D02*
X140022750Y-92209888D01*
X141603900Y-79901100D02*
X141603900Y-74690408D01*
X146625000Y-72828750D02*
X146625000Y-72028750D01*
%TO.N,/Encoders/MOSI*%
X140370684Y-93106540D02*
X139518750Y-92254606D01*
X141248300Y-79212950D02*
X141248300Y-74541700D01*
X145351250Y-72052500D02*
X145375000Y-72028750D01*
X151362500Y-96500000D02*
X149848818Y-96500000D01*
X139518750Y-80942500D02*
X141248300Y-79212950D01*
X141248300Y-74541700D02*
X143737500Y-72052500D01*
X143737500Y-72052500D02*
X145351250Y-72052500D01*
X149848818Y-96500000D02*
X146455358Y-93106540D01*
X139518750Y-92254606D02*
X139518750Y-89673750D01*
X146455358Y-93106540D02*
X140370684Y-93106540D01*
%TO.N,/Inverter/OUT_A*%
X162913750Y-104913750D02*
X157072500Y-104913750D01*
X157072500Y-104913750D02*
X156913750Y-105072500D01*
X164000000Y-107500000D02*
X164000000Y-106000000D01*
X164000000Y-106000000D02*
X162913750Y-104913750D01*
%TD*%
%TA.AperFunction,Conductor*%
%TO.N,/Inverter/OUT_A*%
G36*
X168445539Y-105092185D02*
G01*
X168491294Y-105144989D01*
X168502500Y-105196500D01*
X168502500Y-108282250D01*
X168482815Y-108349289D01*
X168430011Y-108395044D01*
X168378500Y-108406250D01*
X163864000Y-108406250D01*
X163796961Y-108386565D01*
X163751206Y-108333761D01*
X163740000Y-108282250D01*
X163740000Y-105196500D01*
X163759685Y-105129461D01*
X163812489Y-105083706D01*
X163864000Y-105072500D01*
X168378500Y-105072500D01*
X168445539Y-105092185D01*
G37*
%TD.AperFunction*%
%TD*%
%TA.AperFunction,Conductor*%
%TO.N,/Gate Driver/SHB*%
G36*
X165989098Y-91107657D02*
G01*
X166004822Y-91111871D01*
X166072692Y-91151055D01*
X166111876Y-91218920D01*
X166116089Y-91234640D01*
X166121250Y-91273832D01*
X166121250Y-94264917D01*
X166116089Y-94304109D01*
X166111876Y-94319829D01*
X166072688Y-94387698D01*
X166004829Y-94426876D01*
X165989109Y-94431089D01*
X165949917Y-94436250D01*
X163911333Y-94436250D01*
X163872143Y-94431090D01*
X163856422Y-94426877D01*
X163788552Y-94387689D01*
X163749371Y-94319822D01*
X163745157Y-94304098D01*
X163740000Y-94264917D01*
X163740000Y-91273832D01*
X163745157Y-91234652D01*
X163749371Y-91218925D01*
X163788555Y-91151057D01*
X163856422Y-91111872D01*
X163857380Y-91111615D01*
X163872152Y-91107658D01*
X163911333Y-91102500D01*
X165949917Y-91102500D01*
X165989098Y-91107657D01*
G37*
%TD.AperFunction*%
%TD*%
%TA.AperFunction,Conductor*%
%TO.N,/Gate Driver/SHC*%
G36*
X166045550Y-81121534D02*
G01*
X166100966Y-81176950D01*
X166121250Y-81252650D01*
X166121250Y-84283600D01*
X166100966Y-84359300D01*
X166045550Y-84414716D01*
X165969850Y-84435000D01*
X163891400Y-84435000D01*
X163815700Y-84414716D01*
X163760284Y-84359300D01*
X163740000Y-84283600D01*
X163740000Y-81252650D01*
X163760284Y-81176950D01*
X163815700Y-81121534D01*
X163891400Y-81101250D01*
X165969850Y-81101250D01*
X166045550Y-81121534D01*
G37*
%TD.AperFunction*%
%TD*%
%TA.AperFunction,Conductor*%
%TO.N,GND*%
G36*
X144516302Y-94346567D02*
G01*
X144535582Y-94350968D01*
X144616655Y-94390007D01*
X144672764Y-94460360D01*
X144672764Y-94460362D01*
X144676273Y-94467648D01*
X144696300Y-94555378D01*
X144696300Y-94695335D01*
X144696449Y-94697440D01*
X144696609Y-94698000D01*
X144697900Y-94709132D01*
X144698461Y-94718843D01*
X144712122Y-94751825D01*
X144714513Y-94755315D01*
X144745106Y-94824602D01*
X144745108Y-94824605D01*
X144825395Y-94904892D01*
X144929263Y-94950754D01*
X144954655Y-94953700D01*
X146320344Y-94953699D01*
X146345737Y-94950754D01*
X146449605Y-94904892D01*
X146467191Y-94887305D01*
X146482240Y-94877848D01*
X146494169Y-94864664D01*
X146502560Y-94859094D01*
X146519332Y-94848555D01*
X146540831Y-94841032D01*
X146543382Y-94839430D01*
X146546375Y-94839092D01*
X146604264Y-94818835D01*
X146693680Y-94828907D01*
X146694770Y-94829288D01*
X146770949Y-94877182D01*
X146799137Y-94912536D01*
X146802988Y-94918664D01*
X146832714Y-95003600D01*
X146823856Y-95089452D01*
X146818425Y-95105957D01*
X146801468Y-95143853D01*
X146783428Y-95175099D01*
X146783427Y-95175101D01*
X146752510Y-95290485D01*
X146752510Y-95296220D01*
X146747439Y-95341220D01*
X146743519Y-95358392D01*
X146704472Y-95439467D01*
X146634115Y-95495571D01*
X146546383Y-95515592D01*
X146465331Y-95498633D01*
X146415213Y-95476702D01*
X146411581Y-95476476D01*
X146402488Y-95471378D01*
X146387072Y-95467496D01*
X146345742Y-95449247D01*
X146345733Y-95449244D01*
X146345729Y-95449243D01*
X146328027Y-95447189D01*
X146328027Y-95447190D01*
X146320358Y-95446301D01*
X146320350Y-95446300D01*
X146320345Y-95446300D01*
X146320343Y-95446300D01*
X146320338Y-95446300D01*
X144954666Y-95446300D01*
X144954661Y-95446300D01*
X144938786Y-95448141D01*
X144929259Y-95449246D01*
X144909782Y-95457847D01*
X144909777Y-95457849D01*
X144886439Y-95468153D01*
X144846507Y-95481025D01*
X144806117Y-95489546D01*
X144764383Y-95493900D01*
X144713734Y-95493900D01*
X144668735Y-95488829D01*
X144648211Y-95484144D01*
X144567148Y-95445107D01*
X144559695Y-95439164D01*
X144512940Y-95380882D01*
X144512297Y-95381410D01*
X144510303Y-95378978D01*
X144509327Y-95379539D01*
X144505968Y-95373692D01*
X144505964Y-95373686D01*
X144421314Y-95289036D01*
X144421311Y-95289034D01*
X144313768Y-95236459D01*
X144313764Y-95236457D01*
X144313541Y-95236402D01*
X144311521Y-95236130D01*
X144244057Y-95226300D01*
X144244050Y-95226300D01*
X144244044Y-95226300D01*
X143865956Y-95226300D01*
X143865949Y-95226300D01*
X143865942Y-95226300D01*
X143796236Y-95236456D01*
X143790049Y-95239481D01*
X143752627Y-95257776D01*
X143751175Y-95258486D01*
X143708608Y-95273653D01*
X143665932Y-95283660D01*
X143619771Y-95289000D01*
X143510913Y-95289000D01*
X143465926Y-95283931D01*
X143439609Y-95277925D01*
X143367591Y-95245696D01*
X143359054Y-95239638D01*
X143333093Y-95217715D01*
X142818164Y-94702786D01*
X142789931Y-94667381D01*
X142781496Y-94653956D01*
X142751777Y-94569018D01*
X142761855Y-94479597D01*
X142809733Y-94403403D01*
X142885924Y-94355531D01*
X142893618Y-94352839D01*
X142960379Y-94341500D01*
X144471319Y-94341500D01*
X144516302Y-94346567D01*
G37*
%TD.AperFunction*%
%TA.AperFunction,Conductor*%
G36*
X148505442Y-66700599D02*
G01*
X149578388Y-66720116D01*
X149581947Y-66720213D01*
X149585787Y-66720353D01*
X149589232Y-66720510D01*
X150660815Y-66779043D01*
X150664392Y-66779271D01*
X150667984Y-66779533D01*
X150668087Y-66779541D01*
X150671723Y-66779840D01*
X151740317Y-66877295D01*
X151743904Y-66877655D01*
X151747575Y-66878057D01*
X151751189Y-66878485D01*
X152815551Y-67014744D01*
X152816409Y-67015008D01*
X152819171Y-67015240D01*
X152822752Y-67015764D01*
X152826324Y-67016321D01*
X153129690Y-67066432D01*
X153136905Y-67067624D01*
X153180463Y-67079956D01*
X153185668Y-67082084D01*
X153192859Y-67085024D01*
X153266489Y-67136755D01*
X153310382Y-67215312D01*
X153315844Y-67305133D01*
X153281793Y-67388430D01*
X153248571Y-67425163D01*
X153234956Y-67436930D01*
X153193213Y-67461685D01*
X153160607Y-67473094D01*
X153160607Y-67473095D01*
X153050562Y-67554311D01*
X153050561Y-67554312D01*
X152969345Y-67664357D01*
X152969343Y-67664359D01*
X152924175Y-67793445D01*
X152924174Y-67793449D01*
X152924173Y-67793452D01*
X152924173Y-67793453D01*
X152921301Y-67824088D01*
X152921300Y-67824106D01*
X152921300Y-70433403D01*
X152924173Y-70464045D01*
X152924173Y-70464046D01*
X152924173Y-70464048D01*
X152924174Y-70464050D01*
X152924175Y-70464054D01*
X152969343Y-70593140D01*
X152969345Y-70593142D01*
X152969346Y-70593144D01*
X153050562Y-70703188D01*
X153160606Y-70784404D01*
X153160607Y-70784404D01*
X153160609Y-70784406D01*
X153262771Y-70820153D01*
X153289700Y-70829576D01*
X153320348Y-70832450D01*
X153320351Y-70832450D01*
X155029648Y-70832450D01*
X155029652Y-70832450D01*
X155060300Y-70829576D01*
X155124847Y-70806990D01*
X155180673Y-70787456D01*
X155190724Y-70784448D01*
X155199302Y-70780938D01*
X155200338Y-70780575D01*
X155215466Y-70765162D01*
X155299438Y-70703188D01*
X155361412Y-70619216D01*
X155376825Y-70604088D01*
X155377188Y-70603052D01*
X155380700Y-70594470D01*
X155383713Y-70584403D01*
X155418709Y-70484390D01*
X155418709Y-70484385D01*
X155425826Y-70464050D01*
X155428700Y-70433402D01*
X155428700Y-67824098D01*
X155428284Y-67819663D01*
X155429128Y-67774391D01*
X155431501Y-67756366D01*
X155462805Y-67672005D01*
X155527615Y-67609576D01*
X155613086Y-67581450D01*
X155623810Y-67580444D01*
X155690051Y-67585187D01*
X156001446Y-67660225D01*
X156004918Y-67661095D01*
X156008555Y-67662041D01*
X156012042Y-67662983D01*
X156587788Y-67824089D01*
X157045465Y-67952156D01*
X157048747Y-67953106D01*
X157052495Y-67954229D01*
X157055842Y-67955265D01*
X157428949Y-68074460D01*
X157832105Y-68203255D01*
X158078070Y-68281834D01*
X158081536Y-68282976D01*
X158084953Y-68284136D01*
X158088450Y-68285359D01*
X159098000Y-68648848D01*
X159101408Y-68650109D01*
X159104915Y-68651445D01*
X159108299Y-68652770D01*
X160103928Y-69052721D01*
X160107299Y-69054110D01*
X160108063Y-69054433D01*
X160110689Y-69055543D01*
X160114071Y-69057010D01*
X160709715Y-69321836D01*
X161094555Y-69492938D01*
X161097892Y-69494459D01*
X161101236Y-69496019D01*
X161104564Y-69497608D01*
X162068494Y-69968882D01*
X162071680Y-69970475D01*
X162075105Y-69972227D01*
X162078212Y-69973853D01*
X162994784Y-70464054D01*
X163024495Y-70479944D01*
X163027761Y-70481730D01*
X163030945Y-70483509D01*
X163034101Y-70485310D01*
X163625059Y-70829575D01*
X163929310Y-71006818D01*
X163940180Y-71013150D01*
X163961273Y-71025439D01*
X163964376Y-71027284D01*
X163967548Y-71029210D01*
X163970638Y-71031125D01*
X163979973Y-71037028D01*
X164877569Y-71604628D01*
X164880554Y-71606554D01*
X164883747Y-71608656D01*
X164886709Y-71610644D01*
X165175320Y-71808200D01*
X165772192Y-72216762D01*
X165775174Y-72218843D01*
X165778150Y-72220961D01*
X165781093Y-72223095D01*
X166643950Y-72861021D01*
X166646888Y-72863236D01*
X166649787Y-72865462D01*
X166652683Y-72867727D01*
X166667144Y-72879255D01*
X167479452Y-73526797D01*
X167491771Y-73536617D01*
X167494518Y-73538848D01*
X167497443Y-73541268D01*
X167500154Y-73543553D01*
X168230261Y-74170324D01*
X168314418Y-74242570D01*
X168317040Y-74244863D01*
X168319843Y-74247359D01*
X168322522Y-74249788D01*
X168504700Y-74418069D01*
X169110768Y-74977907D01*
X169113468Y-74980448D01*
X169116129Y-74982998D01*
X169118740Y-74985546D01*
X169879852Y-75741723D01*
X169882427Y-75744328D01*
X169885045Y-75747025D01*
X169887593Y-75749698D01*
X170172776Y-76054430D01*
X170432973Y-76332463D01*
X170620735Y-76533095D01*
X170623241Y-76535822D01*
X170625728Y-76538579D01*
X170628149Y-76541313D01*
X170982202Y-76948350D01*
X171071438Y-77050940D01*
X171331245Y-77349628D01*
X171331253Y-77349637D01*
X171331252Y-77349637D01*
X171332304Y-77350846D01*
X171334716Y-77353670D01*
X171337089Y-77356501D01*
X171339371Y-77359273D01*
X171415161Y-77453089D01*
X172013674Y-78193955D01*
X172015932Y-78196802D01*
X172018241Y-78199768D01*
X172020432Y-78202638D01*
X172660043Y-79056102D01*
X172663919Y-79061273D01*
X172666075Y-79064205D01*
X172667956Y-79066812D01*
X172668236Y-79067200D01*
X172670356Y-79070195D01*
X173282232Y-79951729D01*
X173284304Y-79954774D01*
X173286303Y-79957769D01*
X173288314Y-79960842D01*
X173370915Y-80089604D01*
X173867673Y-80863973D01*
X173869648Y-80867115D01*
X173871593Y-80870273D01*
X173873476Y-80873393D01*
X174146744Y-81335538D01*
X174410617Y-81781797D01*
X174419591Y-81796973D01*
X174421424Y-81800137D01*
X174423230Y-81803323D01*
X174423266Y-81803385D01*
X174424997Y-81806503D01*
X174937230Y-82749470D01*
X174938900Y-82752612D01*
X174940630Y-82755938D01*
X174942291Y-82759207D01*
X175419819Y-83720035D01*
X175421407Y-83723303D01*
X175422979Y-83726614D01*
X175424545Y-83729991D01*
X175866858Y-84707659D01*
X175868332Y-84710999D01*
X175869529Y-84713777D01*
X175869776Y-84714351D01*
X175871194Y-84717728D01*
X175990927Y-85010269D01*
X175990927Y-85010270D01*
X176277625Y-85710758D01*
X176278987Y-85714173D01*
X176280317Y-85717599D01*
X176281617Y-85721040D01*
X176594255Y-86571950D01*
X176594255Y-86571951D01*
X176651665Y-86728205D01*
X176652898Y-86731657D01*
X176654078Y-86735060D01*
X176654095Y-86735107D01*
X176655268Y-86738592D01*
X176797605Y-87174335D01*
X176925037Y-87564450D01*
X176963828Y-87683202D01*
X176988439Y-87758546D01*
X176989535Y-87762008D01*
X176990622Y-87765550D01*
X176991677Y-87769105D01*
X177054246Y-87987231D01*
X177287527Y-88800493D01*
X177288515Y-88804061D01*
X177289470Y-88807636D01*
X177290381Y-88811174D01*
X177548526Y-89852644D01*
X177549385Y-89856250D01*
X177550195Y-89859795D01*
X177550975Y-89863359D01*
X177767702Y-90897462D01*
X177767703Y-90897473D01*
X177767704Y-90897473D01*
X177771068Y-90913528D01*
X177771792Y-90917142D01*
X177772483Y-90920768D01*
X177773135Y-90924369D01*
X177954886Y-91981835D01*
X177955472Y-91985439D01*
X177956032Y-91989091D01*
X177956560Y-91992758D01*
X178099731Y-93056156D01*
X178100188Y-93059804D01*
X178100604Y-93063385D01*
X178100996Y-93067043D01*
X178205403Y-94135006D01*
X178205729Y-94138698D01*
X178206018Y-94142343D01*
X178206274Y-94145983D01*
X178271763Y-95216934D01*
X178271954Y-95220594D01*
X178272115Y-95224340D01*
X178272239Y-95228029D01*
X178298731Y-96300589D01*
X178298788Y-96304231D01*
X178298813Y-96307972D01*
X178298804Y-96311686D01*
X178286267Y-97384566D01*
X178286191Y-97388236D01*
X178286083Y-97391854D01*
X178285940Y-97395536D01*
X178234385Y-98467375D01*
X178234173Y-98471062D01*
X178233935Y-98474645D01*
X178233660Y-98478297D01*
X178143159Y-99547507D01*
X178142811Y-99551212D01*
X178142432Y-99554884D01*
X178142026Y-99558495D01*
X178012704Y-100623647D01*
X178012229Y-100627284D01*
X178011729Y-100630859D01*
X178011185Y-100634507D01*
X177843198Y-101694312D01*
X177842587Y-101697950D01*
X177841943Y-101701583D01*
X177841270Y-101705187D01*
X177634866Y-102758093D01*
X177634125Y-102761702D01*
X177633352Y-102765297D01*
X177632547Y-102768880D01*
X177387983Y-103813584D01*
X177387117Y-103817139D01*
X177386208Y-103820728D01*
X177385268Y-103824303D01*
X177102858Y-104859465D01*
X177101859Y-104862998D01*
X177100820Y-104866551D01*
X177099754Y-104870077D01*
X176779903Y-105894211D01*
X176778770Y-105897728D01*
X176777596Y-105901259D01*
X176776409Y-105904722D01*
X176419511Y-106916575D01*
X176418253Y-106920042D01*
X176416972Y-106923473D01*
X176415658Y-106926897D01*
X176022163Y-107925178D01*
X176020795Y-107928559D01*
X176019393Y-107931936D01*
X176017939Y-107935348D01*
X175588429Y-108918581D01*
X175586943Y-108921902D01*
X175585421Y-108925222D01*
X175583841Y-108928587D01*
X175118813Y-109895632D01*
X175117175Y-109898959D01*
X175115525Y-109902235D01*
X175113855Y-109905477D01*
X174614022Y-110854858D01*
X174612269Y-110858115D01*
X174610473Y-110861380D01*
X174608682Y-110864568D01*
X174074635Y-111795168D01*
X174072765Y-111798358D01*
X174070844Y-111801568D01*
X174068937Y-111804690D01*
X173501433Y-112715191D01*
X173499465Y-112718286D01*
X173497448Y-112721395D01*
X173495413Y-112724471D01*
X172895088Y-113613850D01*
X172892994Y-113616892D01*
X172890870Y-113619918D01*
X172888769Y-113622852D01*
X172501766Y-114153500D01*
X172256535Y-114489752D01*
X172254341Y-114492703D01*
X172252107Y-114495652D01*
X172249860Y-114498563D01*
X171586510Y-115341900D01*
X171584216Y-115344763D01*
X171581873Y-115347633D01*
X171579515Y-115350468D01*
X170885928Y-116169121D01*
X170883547Y-116171881D01*
X170881128Y-116174634D01*
X170878653Y-116177399D01*
X170155698Y-116970341D01*
X170153199Y-116973032D01*
X170150715Y-116975659D01*
X170148160Y-116978312D01*
X169396897Y-117744383D01*
X169394295Y-117746989D01*
X169391671Y-117749569D01*
X169389029Y-117752120D01*
X168610346Y-118490412D01*
X168607687Y-118492887D01*
X168604987Y-118495356D01*
X168604979Y-118495363D01*
X168602272Y-118497792D01*
X167797248Y-119207275D01*
X167794466Y-119209682D01*
X167791682Y-119212047D01*
X167788858Y-119214402D01*
X166958639Y-119894074D01*
X166955780Y-119896372D01*
X166952849Y-119898684D01*
X166949933Y-119900941D01*
X166095560Y-120549955D01*
X166092616Y-120552150D01*
X166089608Y-120554350D01*
X166086615Y-120556497D01*
X165209197Y-121174011D01*
X165206181Y-121176093D01*
X165203091Y-121178185D01*
X165200016Y-121180226D01*
X164300697Y-121765434D01*
X164297586Y-121767417D01*
X164296392Y-121768164D01*
X164294466Y-121769368D01*
X164291371Y-121771263D01*
X163478714Y-122258951D01*
X163437531Y-122277755D01*
X163401686Y-122289480D01*
X163338823Y-122299500D01*
X133667648Y-122299500D01*
X133622661Y-122294431D01*
X133585886Y-122286037D01*
X133526840Y-122262285D01*
X133248142Y-122095035D01*
X132708623Y-121771261D01*
X132705503Y-121769350D01*
X132702431Y-121767430D01*
X132699314Y-121765442D01*
X131799981Y-121180226D01*
X131796906Y-121178185D01*
X131793816Y-121176093D01*
X131790800Y-121174011D01*
X130927473Y-120566414D01*
X130927447Y-120566395D01*
X130913384Y-120556498D01*
X130910389Y-120554350D01*
X130907381Y-120552150D01*
X130904437Y-120549955D01*
X130721497Y-120410987D01*
X133096300Y-120410987D01*
X133096300Y-120589011D01*
X133131028Y-120763602D01*
X133131030Y-120763609D01*
X133199141Y-120928042D01*
X133199148Y-120928058D01*
X133199150Y-120928062D01*
X133199151Y-120928063D01*
X133298050Y-121076075D01*
X133423925Y-121201950D01*
X133571937Y-121300849D01*
X133614895Y-121318642D01*
X133675646Y-121343807D01*
X133675647Y-121343807D01*
X133727221Y-121365170D01*
X133734433Y-121368581D01*
X133907254Y-121402956D01*
X133910993Y-121403700D01*
X133910996Y-121403700D01*
X134089004Y-121403700D01*
X134089007Y-121403700D01*
X134263600Y-121368972D01*
X134428063Y-121300849D01*
X134576075Y-121201950D01*
X134701950Y-121076075D01*
X134800849Y-120928063D01*
X134868972Y-120763600D01*
X134903700Y-120589007D01*
X134903700Y-120410993D01*
X134868972Y-120236400D01*
X134868970Y-120236396D01*
X134800851Y-120071943D01*
X134800849Y-120071937D01*
X134701950Y-119923925D01*
X134576075Y-119798050D01*
X134457459Y-119718793D01*
X134428062Y-119699150D01*
X134428058Y-119699148D01*
X134428047Y-119699143D01*
X134402150Y-119688417D01*
X134343728Y-119646965D01*
X134089013Y-119596300D01*
X134089009Y-119596300D01*
X134089007Y-119596300D01*
X133910993Y-119596300D01*
X133910990Y-119596300D01*
X133910987Y-119596300D01*
X133736396Y-119631028D01*
X133736389Y-119631030D01*
X133571941Y-119699147D01*
X133423921Y-119798052D01*
X133298052Y-119923921D01*
X133199147Y-120071941D01*
X133131030Y-120236389D01*
X133131028Y-120236396D01*
X133096300Y-120410987D01*
X130721497Y-120410987D01*
X130050064Y-119900941D01*
X130047148Y-119898684D01*
X130044217Y-119896372D01*
X130041358Y-119894074D01*
X129211139Y-119214402D01*
X129208315Y-119212047D01*
X129205531Y-119209682D01*
X129202749Y-119207275D01*
X128956471Y-118990226D01*
X128397723Y-118497790D01*
X128395019Y-118495363D01*
X128392298Y-118492875D01*
X128389680Y-118490439D01*
X127610968Y-117752120D01*
X127608326Y-117749569D01*
X127605662Y-117746949D01*
X127603181Y-117744465D01*
X126896154Y-117023502D01*
X126896152Y-117023501D01*
X126896147Y-117023495D01*
X126884401Y-117011518D01*
X126884397Y-117011514D01*
X126851743Y-116978217D01*
X126849306Y-116975685D01*
X126846742Y-116972973D01*
X126844301Y-116970343D01*
X126829757Y-116954392D01*
X126829757Y-116954391D01*
X126829754Y-116954389D01*
X126769713Y-116888535D01*
X129299501Y-116888535D01*
X129299501Y-117111463D01*
X129328592Y-117332442D01*
X129328599Y-117332474D01*
X129328689Y-117332807D01*
X129376783Y-117512299D01*
X129386290Y-117547780D01*
X129386297Y-117547800D01*
X129471598Y-117753734D01*
X129583040Y-117946756D01*
X129583047Y-117946767D01*
X129583057Y-117946780D01*
X129710790Y-118113247D01*
X129718130Y-118122812D01*
X129718720Y-118123590D01*
X129876383Y-118281253D01*
X129876439Y-118281302D01*
X129877198Y-118281878D01*
X130053220Y-118416943D01*
X130053225Y-118416948D01*
X130053243Y-118416959D01*
X130246265Y-118528401D01*
X130259060Y-118533701D01*
X130452213Y-118613708D01*
X130452220Y-118613710D01*
X130648319Y-118666254D01*
X130659022Y-118670282D01*
X130667533Y-118671402D01*
X130667538Y-118671404D01*
X130667542Y-118671404D01*
X130667544Y-118671404D01*
X130667545Y-118671405D01*
X130673532Y-118672193D01*
X130680663Y-118673132D01*
X130680669Y-118673132D01*
X130692905Y-118674743D01*
X130888544Y-118700500D01*
X130888545Y-118700500D01*
X131111457Y-118700500D01*
X131111458Y-118700500D01*
X131332464Y-118671404D01*
X131546191Y-118614136D01*
X131548025Y-118613661D01*
X131550657Y-118612617D01*
X131551442Y-118612318D01*
X131554387Y-118610974D01*
X131668425Y-118563738D01*
X131741503Y-118533468D01*
X131751391Y-118530111D01*
X131759440Y-118525106D01*
X131941551Y-118419964D01*
X131944679Y-118418282D01*
X131946505Y-118417184D01*
X131948307Y-118415772D01*
X132123625Y-118281247D01*
X132281248Y-118123624D01*
X132415774Y-117948305D01*
X132417182Y-117946507D01*
X132418289Y-117944666D01*
X132419975Y-117941534D01*
X132456425Y-117878401D01*
X132528404Y-117753730D01*
X132529594Y-117750859D01*
X132554610Y-117690464D01*
X132586920Y-117612461D01*
X132586922Y-117612456D01*
X132613709Y-117547787D01*
X132613711Y-117547780D01*
X132671405Y-117332463D01*
X132700501Y-117111457D01*
X132700501Y-116888543D01*
X132671405Y-116667537D01*
X132613711Y-116452219D01*
X132613709Y-116452212D01*
X132528404Y-116246269D01*
X132528402Y-116246264D01*
X132416960Y-116053242D01*
X132416953Y-116053231D01*
X132416944Y-116053219D01*
X132281258Y-115876388D01*
X132281255Y-115876384D01*
X132281250Y-115876378D01*
X132123621Y-115718749D01*
X131946768Y-115583046D01*
X131946757Y-115583039D01*
X131753735Y-115471597D01*
X131547801Y-115386296D01*
X131547794Y-115386293D01*
X131547788Y-115386291D01*
X131547781Y-115386289D01*
X131456782Y-115361906D01*
X131377973Y-115340789D01*
X131357919Y-115335416D01*
X131337604Y-115329973D01*
X131333584Y-115328782D01*
X131332456Y-115328594D01*
X131111462Y-115299500D01*
X131111460Y-115299500D01*
X131111458Y-115299500D01*
X130888544Y-115299500D01*
X130888541Y-115299500D01*
X130888536Y-115299500D01*
X130667557Y-115328591D01*
X130667520Y-115328599D01*
X130667102Y-115328712D01*
X130596489Y-115347633D01*
X130452219Y-115386289D01*
X130452199Y-115386296D01*
X130246265Y-115471597D01*
X130053243Y-115583039D01*
X130053232Y-115583046D01*
X129876379Y-115718749D01*
X129718750Y-115876378D01*
X129583047Y-116053231D01*
X129583040Y-116053242D01*
X129471598Y-116246264D01*
X129386297Y-116452198D01*
X129386292Y-116452210D01*
X129386292Y-116452212D01*
X129386290Y-116452219D01*
X129332065Y-116654596D01*
X129328726Y-116667056D01*
X129328600Y-116667519D01*
X129328592Y-116667556D01*
X129299501Y-116888535D01*
X126769713Y-116888535D01*
X126594754Y-116696638D01*
X126594753Y-116696636D01*
X126184131Y-116246264D01*
X126121308Y-116177358D01*
X126118929Y-116174701D01*
X126116426Y-116171853D01*
X126114069Y-116169121D01*
X125800847Y-115799419D01*
X125420466Y-115350447D01*
X125418141Y-115347652D01*
X125415827Y-115344819D01*
X125413500Y-115341916D01*
X125413487Y-115341900D01*
X124918801Y-114712991D01*
X124750137Y-114498563D01*
X124747890Y-114495652D01*
X124745656Y-114492703D01*
X124743502Y-114489806D01*
X124111174Y-113622779D01*
X124109192Y-113620010D01*
X124106950Y-113616816D01*
X124104942Y-113613899D01*
X123796745Y-113157306D01*
X123504543Y-112724411D01*
X123502526Y-112721361D01*
X123500513Y-112718257D01*
X123498564Y-112715191D01*
X123498341Y-112714834D01*
X123361722Y-112495642D01*
X123130637Y-112124888D01*
X123130630Y-112124878D01*
X123128955Y-112122191D01*
X123128954Y-112122189D01*
X123128930Y-112122151D01*
X123072218Y-112031163D01*
X126263450Y-112031163D01*
X126263450Y-112150635D01*
X126294366Y-112266017D01*
X126294367Y-112266018D01*
X126294368Y-112266020D01*
X126294369Y-112266022D01*
X126345156Y-112353987D01*
X126354101Y-112369479D01*
X126438572Y-112453950D01*
X126439427Y-112454444D01*
X126475846Y-112481323D01*
X126491279Y-112495642D01*
X126541971Y-112569988D01*
X126546268Y-112580935D01*
X126560249Y-112654816D01*
X126560249Y-112975609D01*
X126561979Y-112988749D01*
X126560212Y-112988981D01*
X126560641Y-113000434D01*
X126578068Y-113045090D01*
X126581013Y-113053158D01*
X126581057Y-113053263D01*
X126581060Y-113053269D01*
X126617553Y-113116476D01*
X126621248Y-113122875D01*
X126621249Y-113122876D01*
X127590873Y-114092500D01*
X127660490Y-114132694D01*
X127660492Y-114132694D01*
X127660493Y-114132695D01*
X127676903Y-114137092D01*
X127676906Y-114137092D01*
X127680046Y-114137934D01*
X127680045Y-114137935D01*
X127680069Y-114137940D01*
X127686195Y-114139581D01*
X127686196Y-114139582D01*
X127702364Y-114143913D01*
X127711124Y-114146260D01*
X127711136Y-114146266D01*
X127711137Y-114146264D01*
X127738139Y-114153500D01*
X133895338Y-114153500D01*
X133940321Y-114158567D01*
X133966635Y-114164573D01*
X134038659Y-114196803D01*
X134047196Y-114202861D01*
X134073157Y-114224784D01*
X134898667Y-115050294D01*
X134926899Y-115085696D01*
X134941255Y-115108544D01*
X134969386Y-115182232D01*
X134971140Y-115192550D01*
X134974000Y-115226437D01*
X134974000Y-118690616D01*
X134980153Y-118713577D01*
X134980154Y-118713580D01*
X134991715Y-118756727D01*
X134994805Y-118768258D01*
X135017178Y-118807008D01*
X135035000Y-118837877D01*
X136163373Y-119966250D01*
X136232990Y-120006444D01*
X136232992Y-120006444D01*
X136232993Y-120006445D01*
X136249403Y-120010842D01*
X136249406Y-120010842D01*
X136252546Y-120011684D01*
X136252545Y-120011685D01*
X136252569Y-120011690D01*
X136258695Y-120013331D01*
X136258696Y-120013332D01*
X136274864Y-120017663D01*
X136283624Y-120020010D01*
X136283636Y-120020016D01*
X136283637Y-120020014D01*
X136310639Y-120027250D01*
X138146859Y-120027250D01*
X138146861Y-120027250D01*
X138224509Y-120006444D01*
X138294127Y-119966250D01*
X139322501Y-118937876D01*
X139362695Y-118868259D01*
X139367091Y-118851849D01*
X139383501Y-118790610D01*
X139383501Y-118612940D01*
X139388569Y-118567954D01*
X139393255Y-118547421D01*
X139432290Y-118466357D01*
X139439629Y-118457155D01*
X139496618Y-118408111D01*
X139505178Y-118403170D01*
X139589650Y-118318698D01*
X139649381Y-118215242D01*
X139680300Y-118099851D01*
X139680300Y-117980389D01*
X139652971Y-117878395D01*
X139649382Y-117865001D01*
X139649381Y-117865000D01*
X139649381Y-117864998D01*
X139589650Y-117761542D01*
X139505178Y-117677070D01*
X139504314Y-117676571D01*
X139467897Y-117649691D01*
X139452464Y-117635370D01*
X139401775Y-117561022D01*
X139397470Y-117550051D01*
X139383501Y-117476199D01*
X139383501Y-117395910D01*
X139388568Y-117350928D01*
X139394575Y-117324611D01*
X139426802Y-117252592D01*
X139432863Y-117244050D01*
X139454779Y-117218097D01*
X139586548Y-117086328D01*
X139621939Y-117058105D01*
X139644797Y-117043742D01*
X139718501Y-117015610D01*
X139728819Y-117013857D01*
X139762687Y-117011000D01*
X141356588Y-117011000D01*
X141401582Y-117016070D01*
X141427887Y-117022074D01*
X141499892Y-117054292D01*
X141508428Y-117060348D01*
X141534406Y-117082283D01*
X144100874Y-119648752D01*
X144151688Y-119678089D01*
X144167589Y-119688288D01*
X144180771Y-119697640D01*
X144197838Y-119709749D01*
X144199695Y-119711066D01*
X144259661Y-119778161D01*
X144284577Y-119864630D01*
X144270573Y-119950725D01*
X144264384Y-119966281D01*
X144244629Y-120003872D01*
X144210215Y-120055373D01*
X144210214Y-120055377D01*
X144199150Y-120071935D01*
X144131028Y-120236394D01*
X144096300Y-120410987D01*
X144096300Y-120589011D01*
X144131028Y-120763602D01*
X144131030Y-120763609D01*
X144199141Y-120928042D01*
X144199148Y-120928058D01*
X144199150Y-120928062D01*
X144199151Y-120928063D01*
X144298050Y-121076075D01*
X144423925Y-121201950D01*
X144571937Y-121300849D01*
X144614895Y-121318642D01*
X144675646Y-121343807D01*
X144675647Y-121343807D01*
X144727221Y-121365170D01*
X144734433Y-121368581D01*
X144907254Y-121402956D01*
X144910993Y-121403700D01*
X144910996Y-121403700D01*
X145089004Y-121403700D01*
X145089007Y-121403700D01*
X145263600Y-121368972D01*
X145428063Y-121300849D01*
X145576075Y-121201950D01*
X145701950Y-121076075D01*
X145800849Y-120928063D01*
X145868972Y-120763600D01*
X145903700Y-120589007D01*
X145903700Y-120410993D01*
X145868972Y-120236400D01*
X145868970Y-120236396D01*
X145800851Y-120071943D01*
X145800849Y-120071937D01*
X145781664Y-120043225D01*
X145760886Y-120003005D01*
X145754511Y-119986306D01*
X145741931Y-119897206D01*
X145769257Y-119811468D01*
X145831077Y-119746077D01*
X145906764Y-119715349D01*
X145918977Y-119713097D01*
X145955615Y-119709750D01*
X151040086Y-119709750D01*
X151085071Y-119714818D01*
X151102492Y-119718794D01*
X151183568Y-119757833D01*
X151239677Y-119828186D01*
X151259705Y-119915916D01*
X151243212Y-119995910D01*
X151238305Y-120007303D01*
X151220722Y-120039653D01*
X151199149Y-120071939D01*
X151199147Y-120071943D01*
X151131030Y-120236389D01*
X151131028Y-120236396D01*
X151096300Y-120410987D01*
X151096300Y-120589011D01*
X151131028Y-120763602D01*
X151131030Y-120763609D01*
X151199141Y-120928042D01*
X151199148Y-120928058D01*
X151199150Y-120928062D01*
X151199151Y-120928063D01*
X151298050Y-121076075D01*
X151423925Y-121201950D01*
X151571937Y-121300849D01*
X151614895Y-121318642D01*
X151675646Y-121343807D01*
X151675647Y-121343807D01*
X151727221Y-121365170D01*
X151734433Y-121368581D01*
X151907254Y-121402956D01*
X151910993Y-121403700D01*
X151910996Y-121403700D01*
X152089004Y-121403700D01*
X152089007Y-121403700D01*
X152263600Y-121368972D01*
X152428063Y-121300849D01*
X152576075Y-121201950D01*
X152701950Y-121076075D01*
X152800849Y-120928063D01*
X152868972Y-120763600D01*
X152903700Y-120589007D01*
X152903700Y-120410993D01*
X152903699Y-120410990D01*
X152903698Y-120410987D01*
X162096300Y-120410987D01*
X162096300Y-120589011D01*
X162131028Y-120763602D01*
X162131030Y-120763609D01*
X162199141Y-120928042D01*
X162199148Y-120928058D01*
X162199150Y-120928062D01*
X162199151Y-120928063D01*
X162298050Y-121076075D01*
X162423925Y-121201950D01*
X162571937Y-121300849D01*
X162614895Y-121318642D01*
X162675646Y-121343807D01*
X162675647Y-121343807D01*
X162727221Y-121365170D01*
X162734433Y-121368581D01*
X162907254Y-121402956D01*
X162910993Y-121403700D01*
X162910996Y-121403700D01*
X163089004Y-121403700D01*
X163089007Y-121403700D01*
X163263600Y-121368972D01*
X163428063Y-121300849D01*
X163576075Y-121201950D01*
X163701950Y-121076075D01*
X163800849Y-120928063D01*
X163868972Y-120763600D01*
X163903700Y-120589007D01*
X163903700Y-120410993D01*
X163868972Y-120236400D01*
X163868970Y-120236396D01*
X163800851Y-120071943D01*
X163800849Y-120071937D01*
X163701950Y-119923925D01*
X163576075Y-119798050D01*
X163457459Y-119718793D01*
X163428062Y-119699150D01*
X163428058Y-119699148D01*
X163428047Y-119699143D01*
X163402150Y-119688417D01*
X163343728Y-119646965D01*
X163089013Y-119596300D01*
X163089009Y-119596300D01*
X163089007Y-119596300D01*
X162910993Y-119596300D01*
X162910990Y-119596300D01*
X162910987Y-119596300D01*
X162736396Y-119631028D01*
X162736389Y-119631030D01*
X162571941Y-119699147D01*
X162423921Y-119798052D01*
X162298052Y-119923921D01*
X162199147Y-120071941D01*
X162131030Y-120236389D01*
X162131028Y-120236396D01*
X162096300Y-120410987D01*
X152903698Y-120410987D01*
X152868971Y-120236397D01*
X152800851Y-120071943D01*
X152800849Y-120071937D01*
X152781664Y-120043225D01*
X152760886Y-120003005D01*
X152754511Y-119986306D01*
X152741931Y-119897206D01*
X152769257Y-119811468D01*
X152831077Y-119746077D01*
X152906764Y-119715349D01*
X152918977Y-119713097D01*
X152955615Y-119709750D01*
X156403109Y-119709750D01*
X156403111Y-119709750D01*
X156480759Y-119688944D01*
X156493207Y-119681757D01*
X156550377Y-119648750D01*
X157322502Y-118876626D01*
X157362695Y-118807008D01*
X157363300Y-118804743D01*
X157363344Y-118804660D01*
X157363325Y-118804655D01*
X157376162Y-118756752D01*
X157376167Y-118756727D01*
X157377284Y-118752559D01*
X157383501Y-118729360D01*
X157383501Y-118626334D01*
X157388569Y-118581348D01*
X157393255Y-118560815D01*
X157432290Y-118479751D01*
X157439629Y-118470549D01*
X157496618Y-118421505D01*
X157505178Y-118416564D01*
X157589650Y-118332092D01*
X157649381Y-118228636D01*
X157680300Y-118113245D01*
X157680300Y-117993783D01*
X157664840Y-117936087D01*
X157649382Y-117878395D01*
X157649381Y-117878394D01*
X157649381Y-117878392D01*
X157589650Y-117774936D01*
X157505178Y-117690464D01*
X157401722Y-117630733D01*
X157401720Y-117630732D01*
X157401717Y-117630730D01*
X157286335Y-117599814D01*
X157286333Y-117599814D01*
X157286331Y-117599814D01*
X157166869Y-117599814D01*
X157166866Y-117599814D01*
X157166863Y-117599814D01*
X157051485Y-117630730D01*
X157051482Y-117630731D01*
X157051479Y-117630732D01*
X157051476Y-117630733D01*
X157051475Y-117630734D01*
X156995826Y-117662863D01*
X156954330Y-117680968D01*
X156934215Y-117687173D01*
X156844486Y-117693900D01*
X156832858Y-117692148D01*
X156761883Y-117667315D01*
X156731358Y-117649691D01*
X156698520Y-117630732D01*
X156698519Y-117630731D01*
X156698520Y-117630731D01*
X156583135Y-117599814D01*
X156583133Y-117599814D01*
X156583131Y-117599814D01*
X156463669Y-117599814D01*
X156463666Y-117599814D01*
X156463663Y-117599814D01*
X156348287Y-117630729D01*
X156348284Y-117630730D01*
X156348281Y-117630731D01*
X156276585Y-117672125D01*
X156244818Y-117690466D01*
X156160352Y-117774932D01*
X156160351Y-117774934D01*
X156100617Y-117878395D01*
X156100616Y-117878398D01*
X156100615Y-117878401D01*
X156069700Y-117993777D01*
X156069700Y-118113249D01*
X156097029Y-118215242D01*
X156100617Y-118228632D01*
X156100618Y-118228634D01*
X156100619Y-118228636D01*
X156128869Y-118277566D01*
X156134691Y-118296440D01*
X156174227Y-118359362D01*
X156203948Y-118444300D01*
X156193879Y-118533701D01*
X156191231Y-118541271D01*
X156143362Y-118617471D01*
X156107952Y-118645712D01*
X156085210Y-118660003D01*
X156011509Y-118688138D01*
X156001188Y-118689892D01*
X155967311Y-118692750D01*
X144689663Y-118692750D01*
X144644676Y-118687681D01*
X144618359Y-118681675D01*
X144546341Y-118649446D01*
X144537804Y-118643388D01*
X144511843Y-118621465D01*
X142915276Y-117024898D01*
X142778918Y-116888540D01*
X164299501Y-116888540D01*
X164299501Y-116895523D01*
X164299501Y-117111463D01*
X164328592Y-117332442D01*
X164328599Y-117332474D01*
X164328689Y-117332807D01*
X164376783Y-117512299D01*
X164386290Y-117547780D01*
X164386297Y-117547800D01*
X164471598Y-117753734D01*
X164583040Y-117946756D01*
X164583047Y-117946767D01*
X164583057Y-117946780D01*
X164710790Y-118113247D01*
X164718130Y-118122812D01*
X164718720Y-118123590D01*
X164876383Y-118281253D01*
X164876439Y-118281302D01*
X164877198Y-118281878D01*
X165053220Y-118416943D01*
X165053225Y-118416948D01*
X165053243Y-118416959D01*
X165246265Y-118528401D01*
X165259060Y-118533701D01*
X165452213Y-118613708D01*
X165452220Y-118613710D01*
X165648319Y-118666254D01*
X165659022Y-118670282D01*
X165667533Y-118671402D01*
X165667538Y-118671404D01*
X165667542Y-118671404D01*
X165667544Y-118671404D01*
X165667545Y-118671405D01*
X165673532Y-118672193D01*
X165680663Y-118673132D01*
X165680669Y-118673132D01*
X165692905Y-118674743D01*
X165888544Y-118700500D01*
X165888545Y-118700500D01*
X166111457Y-118700500D01*
X166111458Y-118700500D01*
X166332464Y-118671404D01*
X166546191Y-118614136D01*
X166548025Y-118613661D01*
X166550657Y-118612617D01*
X166551442Y-118612318D01*
X166554387Y-118610974D01*
X166668425Y-118563738D01*
X166741503Y-118533468D01*
X166751391Y-118530111D01*
X166759440Y-118525106D01*
X166941551Y-118419964D01*
X166944679Y-118418282D01*
X166946505Y-118417184D01*
X166948307Y-118415772D01*
X167123625Y-118281247D01*
X167281248Y-118123624D01*
X167415774Y-117948305D01*
X167417182Y-117946507D01*
X167418289Y-117944666D01*
X167419975Y-117941534D01*
X167456425Y-117878401D01*
X167528404Y-117753730D01*
X167529594Y-117750859D01*
X167554610Y-117690464D01*
X167586920Y-117612461D01*
X167586922Y-117612456D01*
X167613709Y-117547787D01*
X167613711Y-117547780D01*
X167671405Y-117332463D01*
X167700501Y-117111457D01*
X167700501Y-116888543D01*
X167671405Y-116667537D01*
X167613711Y-116452219D01*
X167613709Y-116452212D01*
X167528404Y-116246269D01*
X167528402Y-116246264D01*
X167416960Y-116053242D01*
X167416953Y-116053231D01*
X167416944Y-116053219D01*
X167281258Y-115876388D01*
X167281255Y-115876384D01*
X167281250Y-115876378D01*
X167123621Y-115718749D01*
X166946768Y-115583046D01*
X166946757Y-115583039D01*
X166753735Y-115471597D01*
X166547801Y-115386296D01*
X166547794Y-115386293D01*
X166547788Y-115386291D01*
X166547781Y-115386289D01*
X166456782Y-115361906D01*
X166377973Y-115340789D01*
X166357919Y-115335416D01*
X166337604Y-115329973D01*
X166333584Y-115328782D01*
X166332456Y-115328594D01*
X166111462Y-115299500D01*
X166111460Y-115299500D01*
X166111458Y-115299500D01*
X165888544Y-115299500D01*
X165888541Y-115299500D01*
X165888536Y-115299500D01*
X165667557Y-115328591D01*
X165667520Y-115328599D01*
X165667102Y-115328712D01*
X165596489Y-115347633D01*
X165452219Y-115386289D01*
X165452199Y-115386296D01*
X165246265Y-115471597D01*
X165053243Y-115583039D01*
X165053232Y-115583046D01*
X164876379Y-115718749D01*
X164718750Y-115876378D01*
X164583047Y-116053231D01*
X164583040Y-116053242D01*
X164471598Y-116246264D01*
X164386297Y-116452198D01*
X164386292Y-116452210D01*
X164386292Y-116452212D01*
X164386290Y-116452219D01*
X164328598Y-116667533D01*
X164328595Y-116667544D01*
X164299501Y-116888540D01*
X142778918Y-116888540D01*
X141949690Y-116059313D01*
X141931028Y-116029613D01*
X141798117Y-115994000D01*
X141798113Y-115994000D01*
X141798111Y-115994000D01*
X139326889Y-115994000D01*
X139326888Y-115994000D01*
X139326883Y-115994000D01*
X139249278Y-116014794D01*
X139249244Y-116014804D01*
X139249243Y-116014805D01*
X139249240Y-116014806D01*
X139249239Y-116014806D01*
X139179622Y-116054998D01*
X138458564Y-116776057D01*
X138437960Y-116789003D01*
X138387309Y-116876731D01*
X138387305Y-116876740D01*
X138366499Y-116954387D01*
X138366499Y-117467298D01*
X138361428Y-117512294D01*
X138359622Y-117520210D01*
X138356743Y-117532822D01*
X138317705Y-117613885D01*
X138310372Y-117623081D01*
X138253385Y-117672125D01*
X138244821Y-117677069D01*
X138160352Y-117761538D01*
X138160351Y-117761540D01*
X138100617Y-117865001D01*
X138100616Y-117865004D01*
X138100615Y-117865007D01*
X138069700Y-117980383D01*
X138069700Y-118099855D01*
X138100616Y-118215237D01*
X138100617Y-118215238D01*
X138100622Y-118215248D01*
X138108351Y-118228634D01*
X138138733Y-118281257D01*
X138160350Y-118318698D01*
X138160352Y-118318700D01*
X138172800Y-118331148D01*
X138201028Y-118366544D01*
X138211547Y-118383286D01*
X138241270Y-118468221D01*
X138231197Y-118557643D01*
X138231194Y-118557651D01*
X138228524Y-118565281D01*
X138180649Y-118641472D01*
X137887203Y-118934919D01*
X137851807Y-118963146D01*
X137828957Y-118977504D01*
X137755252Y-119005639D01*
X137744932Y-119007393D01*
X137711064Y-119010250D01*
X136752163Y-119010250D01*
X136707176Y-119005181D01*
X136680859Y-118999175D01*
X136608841Y-118966946D01*
X136600304Y-118960888D01*
X136574343Y-118938965D01*
X136066332Y-118430954D01*
X136038102Y-118395555D01*
X136023743Y-118372702D01*
X135995610Y-118298997D01*
X135993857Y-118288679D01*
X135991000Y-118254811D01*
X135991000Y-114790641D01*
X135991000Y-114790639D01*
X135970194Y-114712991D01*
X135930001Y-114643373D01*
X134488439Y-113201812D01*
X134469778Y-113172113D01*
X134336867Y-113136500D01*
X134336863Y-113136500D01*
X134336861Y-113136500D01*
X128179662Y-113136500D01*
X128134675Y-113131431D01*
X128108358Y-113125425D01*
X128036340Y-113093196D01*
X128027803Y-113087138D01*
X128001842Y-113065215D01*
X127703597Y-112766970D01*
X127675369Y-112731574D01*
X127669947Y-112722945D01*
X127664848Y-112714830D01*
X127635127Y-112629897D01*
X127645199Y-112540481D01*
X127645670Y-112539136D01*
X127687021Y-112469831D01*
X127691334Y-112465098D01*
X127691333Y-112465097D01*
X127724559Y-112428628D01*
X127731076Y-112421801D01*
X127732608Y-112420270D01*
X127783400Y-112369478D01*
X127843131Y-112266022D01*
X127874050Y-112150631D01*
X127874050Y-112031169D01*
X127858200Y-111972016D01*
X127843132Y-111915781D01*
X127843131Y-111915780D01*
X127843131Y-111915778D01*
X127783400Y-111812322D01*
X127698928Y-111727850D01*
X127595472Y-111668119D01*
X127595470Y-111668118D01*
X127595467Y-111668116D01*
X127480085Y-111637200D01*
X127480083Y-111637200D01*
X127480081Y-111637200D01*
X127360619Y-111637200D01*
X127360616Y-111637200D01*
X127360613Y-111637200D01*
X127245235Y-111668116D01*
X127245232Y-111668117D01*
X127245229Y-111668118D01*
X127245226Y-111668119D01*
X127245225Y-111668120D01*
X127189576Y-111700249D01*
X127148080Y-111718354D01*
X127127965Y-111724559D01*
X127038236Y-111731286D01*
X127026608Y-111729534D01*
X126955633Y-111704701D01*
X126892273Y-111668120D01*
X126892270Y-111668118D01*
X126892269Y-111668117D01*
X126892270Y-111668117D01*
X126776885Y-111637200D01*
X126776883Y-111637200D01*
X126776881Y-111637200D01*
X126657419Y-111637200D01*
X126657416Y-111637200D01*
X126657413Y-111637200D01*
X126542037Y-111668115D01*
X126542034Y-111668116D01*
X126542031Y-111668117D01*
X126466650Y-111711639D01*
X126438568Y-111727852D01*
X126354102Y-111812318D01*
X126354101Y-111812320D01*
X126294367Y-111915781D01*
X126294366Y-111915784D01*
X126294365Y-111915787D01*
X126263450Y-112031163D01*
X123072218Y-112031163D01*
X123035358Y-111972024D01*
X123035358Y-111972025D01*
X122931013Y-111804616D01*
X122929104Y-111801488D01*
X122927238Y-111798369D01*
X122925381Y-111795201D01*
X122887696Y-111729534D01*
X122391311Y-110864560D01*
X122389524Y-110861380D01*
X122387728Y-110858115D01*
X122386008Y-110854919D01*
X122177840Y-110459526D01*
X122131727Y-110371940D01*
X135046300Y-110371940D01*
X135046300Y-110628058D01*
X135079723Y-110881945D01*
X135079731Y-110881984D01*
X135079841Y-110882389D01*
X135145562Y-111127666D01*
X135146414Y-111130955D01*
X135146897Y-111132890D01*
X135150760Y-111140806D01*
X135244019Y-111365951D01*
X135244020Y-111365953D01*
X135372072Y-111587747D01*
X135527979Y-111790928D01*
X135709072Y-111972021D01*
X135912253Y-112127928D01*
X136134047Y-112255980D01*
X136370656Y-112353987D01*
X136370657Y-112353987D01*
X136370659Y-112353988D01*
X136423162Y-112368056D01*
X136598815Y-112415122D01*
X136609515Y-112419149D01*
X136618024Y-112420269D01*
X136618034Y-112420272D01*
X136618040Y-112420272D01*
X136618041Y-112420273D01*
X136647175Y-112424108D01*
X136647180Y-112424110D01*
X136647181Y-112424109D01*
X136871948Y-112453700D01*
X136871951Y-112453700D01*
X137128049Y-112453700D01*
X137128052Y-112453700D01*
X137381966Y-112420272D01*
X137629344Y-112353987D01*
X137865953Y-112255980D01*
X138087747Y-112127928D01*
X138290928Y-111972021D01*
X138472021Y-111790928D01*
X138627928Y-111587747D01*
X138755980Y-111365953D01*
X138853987Y-111129344D01*
X138920272Y-110881966D01*
X138953700Y-110628052D01*
X138953700Y-110371948D01*
X138953699Y-110371940D01*
X153046300Y-110371940D01*
X153046300Y-110628058D01*
X153079723Y-110881945D01*
X153079731Y-110881984D01*
X153079841Y-110882389D01*
X153145562Y-111127666D01*
X153146414Y-111130955D01*
X153146897Y-111132890D01*
X153150760Y-111140806D01*
X153244019Y-111365951D01*
X153244020Y-111365953D01*
X153372072Y-111587747D01*
X153527979Y-111790928D01*
X153709072Y-111972021D01*
X153912253Y-112127928D01*
X154134047Y-112255980D01*
X154370656Y-112353987D01*
X154370657Y-112353987D01*
X154370659Y-112353988D01*
X154423162Y-112368056D01*
X154598815Y-112415122D01*
X154609515Y-112419149D01*
X154618024Y-112420269D01*
X154618034Y-112420272D01*
X154618040Y-112420272D01*
X154618041Y-112420273D01*
X154647175Y-112424108D01*
X154647180Y-112424110D01*
X154647181Y-112424109D01*
X154871948Y-112453700D01*
X154871951Y-112453700D01*
X155128049Y-112453700D01*
X155128052Y-112453700D01*
X155381966Y-112420272D01*
X155629344Y-112353987D01*
X155865953Y-112255980D01*
X156087747Y-112127928D01*
X156290928Y-111972021D01*
X156472021Y-111790928D01*
X156627928Y-111587747D01*
X156755980Y-111365953D01*
X156853987Y-111129344D01*
X156920272Y-110881966D01*
X156953700Y-110628052D01*
X156953700Y-110371948D01*
X156920272Y-110118034D01*
X156853987Y-109870656D01*
X156755980Y-109634047D01*
X156627928Y-109412253D01*
X156472021Y-109209072D01*
X156290928Y-109027979D01*
X156087747Y-108872072D01*
X155865953Y-108744020D01*
X155865951Y-108744019D01*
X155640806Y-108650760D01*
X155632890Y-108646897D01*
X155630955Y-108646414D01*
X155627667Y-108645562D01*
X155438627Y-108594910D01*
X155438623Y-108594909D01*
X155387116Y-108581107D01*
X155383094Y-108579915D01*
X155381958Y-108579726D01*
X155128056Y-108546300D01*
X155128054Y-108546300D01*
X155128052Y-108546300D01*
X154871948Y-108546300D01*
X154871945Y-108546300D01*
X154871940Y-108546300D01*
X154618053Y-108579723D01*
X154618009Y-108579732D01*
X154617609Y-108579841D01*
X154370660Y-108646010D01*
X154370653Y-108646012D01*
X154134049Y-108744018D01*
X153912256Y-108872069D01*
X153709070Y-109027980D01*
X153527980Y-109209070D01*
X153372069Y-109412256D01*
X153244018Y-109634049D01*
X153146012Y-109870653D01*
X153146010Y-109870660D01*
X153079841Y-110117609D01*
X153079732Y-110118009D01*
X153079723Y-110118053D01*
X153046300Y-110371940D01*
X138953699Y-110371940D01*
X138920272Y-110118034D01*
X138853987Y-109870656D01*
X138755980Y-109634047D01*
X138627928Y-109412253D01*
X138472021Y-109209072D01*
X138290928Y-109027979D01*
X138087747Y-108872072D01*
X137865953Y-108744020D01*
X137865951Y-108744019D01*
X137640806Y-108650760D01*
X137632890Y-108646897D01*
X137630955Y-108646414D01*
X137627667Y-108645562D01*
X137438627Y-108594910D01*
X137438623Y-108594909D01*
X137387116Y-108581107D01*
X137383094Y-108579915D01*
X137381958Y-108579726D01*
X137128056Y-108546300D01*
X137128054Y-108546300D01*
X137128052Y-108546300D01*
X136871948Y-108546300D01*
X136871945Y-108546300D01*
X136871940Y-108546300D01*
X136618053Y-108579723D01*
X136618009Y-108579732D01*
X136617609Y-108579841D01*
X136370660Y-108646010D01*
X136370653Y-108646012D01*
X136134049Y-108744018D01*
X135912256Y-108872069D01*
X135709070Y-109027980D01*
X135527980Y-109209070D01*
X135372069Y-109412256D01*
X135244018Y-109634049D01*
X135146012Y-109870653D01*
X135146010Y-109870660D01*
X135079841Y-110117609D01*
X135079732Y-110118009D01*
X135079723Y-110118053D01*
X135046300Y-110371940D01*
X122131727Y-110371940D01*
X121886134Y-109905462D01*
X121884472Y-109902235D01*
X121882799Y-109898913D01*
X121881184Y-109895632D01*
X121869172Y-109870653D01*
X121463952Y-109027979D01*
X121416133Y-108928539D01*
X121414594Y-108925260D01*
X121413043Y-108921878D01*
X121411574Y-108918594D01*
X121292501Y-108646013D01*
X121270849Y-108596448D01*
X120982023Y-107935266D01*
X120980638Y-107932016D01*
X120979198Y-107928549D01*
X120977834Y-107925179D01*
X120977834Y-107925178D01*
X120584321Y-106926852D01*
X120583008Y-106923428D01*
X120581733Y-106920011D01*
X120580489Y-106916582D01*
X120515329Y-106731846D01*
X120223557Y-105904632D01*
X120222401Y-105901259D01*
X120221214Y-105897690D01*
X120220112Y-105894267D01*
X119900235Y-104870050D01*
X119899178Y-104866557D01*
X119898118Y-104862930D01*
X119897137Y-104859457D01*
X119895653Y-104854016D01*
X119614718Y-103824262D01*
X119613778Y-103820688D01*
X119612871Y-103817104D01*
X119612023Y-103813622D01*
X119610504Y-103807135D01*
X119592355Y-103729606D01*
X119367445Y-102768859D01*
X119366707Y-102765434D01*
X119366645Y-102765297D01*
X119365851Y-102761604D01*
X119365152Y-102758198D01*
X119343932Y-102649949D01*
X119338905Y-102624305D01*
X125131500Y-102624305D01*
X125131500Y-102636199D01*
X125131500Y-102760894D01*
X125134930Y-102771000D01*
X125166149Y-102887512D01*
X125166152Y-102887521D01*
X125166155Y-102887528D01*
X125180013Y-102911531D01*
X125220435Y-102981541D01*
X125233100Y-103003477D01*
X125318045Y-103088422D01*
X125346278Y-103123826D01*
X125357384Y-103141502D01*
X125387103Y-103226440D01*
X125378244Y-103312272D01*
X125372813Y-103328778D01*
X125355853Y-103366681D01*
X125303769Y-103456892D01*
X125303767Y-103456896D01*
X125303767Y-103456898D01*
X125272850Y-103572284D01*
X125272850Y-103572287D01*
X125272850Y-103691753D01*
X125303766Y-103807135D01*
X125311591Y-103820688D01*
X125363500Y-103910596D01*
X125447972Y-103995068D01*
X125551428Y-104054799D01*
X125551429Y-104054799D01*
X125551431Y-104054800D01*
X125609123Y-104070258D01*
X125666819Y-104085718D01*
X125666821Y-104085718D01*
X125786279Y-104085718D01*
X125786281Y-104085718D01*
X125867389Y-104063984D01*
X125901669Y-104054800D01*
X125901669Y-104054799D01*
X125901672Y-104054799D01*
X125952703Y-104025335D01*
X125962767Y-104022231D01*
X126016684Y-103988354D01*
X126045796Y-103970061D01*
X126119500Y-103941928D01*
X126129817Y-103940175D01*
X126163688Y-103937318D01*
X128682686Y-103937318D01*
X128682687Y-103937318D01*
X128737265Y-103922693D01*
X128760332Y-103916513D01*
X128760332Y-103916512D01*
X128777467Y-103911922D01*
X128795162Y-103896405D01*
X128829946Y-103876322D01*
X128829945Y-103876322D01*
X128829953Y-103876318D01*
X129222984Y-103483287D01*
X129241590Y-103451058D01*
X129241590Y-103451057D01*
X129241592Y-103451058D01*
X129241594Y-103451049D01*
X129258053Y-103422546D01*
X129258053Y-103422545D01*
X129263177Y-103413670D01*
X129263178Y-103413669D01*
X129283984Y-103336021D01*
X129283984Y-102306805D01*
X140530250Y-102306805D01*
X140530250Y-102440695D01*
X140530250Y-102440698D01*
X140530251Y-102440699D01*
X140539279Y-102474395D01*
X140539280Y-102474401D01*
X140564901Y-102570021D01*
X140564901Y-102570024D01*
X140628821Y-102680735D01*
X140631089Y-102684951D01*
X140631715Y-102685843D01*
X144377855Y-106431983D01*
X144378711Y-106432612D01*
X144383012Y-106434927D01*
X144479025Y-106490360D01*
X144493721Y-106498845D01*
X144493726Y-106498847D01*
X144623055Y-106533500D01*
X150564087Y-106533500D01*
X150609070Y-106538567D01*
X150635384Y-106544573D01*
X150707408Y-106576803D01*
X150715945Y-106582861D01*
X150741906Y-106604784D01*
X151275164Y-107138042D01*
X151292605Y-107157930D01*
X151308607Y-107178785D01*
X151323299Y-107200774D01*
X151390678Y-107317478D01*
X151390679Y-107317479D01*
X151493770Y-107420570D01*
X151620027Y-107493465D01*
X151620029Y-107493466D01*
X151689190Y-107511997D01*
X151701311Y-107515245D01*
X151701329Y-107515249D01*
X151701334Y-107515251D01*
X151760854Y-107531200D01*
X151760856Y-107531200D01*
X151906644Y-107531200D01*
X151906646Y-107531200D01*
X152047470Y-107493466D01*
X152047474Y-107493464D01*
X152074152Y-107478060D01*
X152173730Y-107420570D01*
X152276820Y-107317480D01*
X152349716Y-107191220D01*
X152387450Y-107050396D01*
X152387450Y-106904604D01*
X152350490Y-106766671D01*
X152349808Y-106763964D01*
X152349715Y-106763777D01*
X152276820Y-106637520D01*
X152173729Y-106534429D01*
X152173728Y-106534428D01*
X152057024Y-106467049D01*
X152035035Y-106452357D01*
X152014180Y-106436355D01*
X151994292Y-106418914D01*
X151193478Y-105618100D01*
X151193465Y-105618090D01*
X151077528Y-105551154D01*
X151077525Y-105551153D01*
X151057385Y-105545756D01*
X150961000Y-105519930D01*
X150950895Y-105516500D01*
X150948198Y-105516500D01*
X150948195Y-105516500D01*
X150948191Y-105516500D01*
X145007163Y-105516500D01*
X144962176Y-105511431D01*
X144935859Y-105505425D01*
X144863841Y-105473196D01*
X144855304Y-105467138D01*
X144829343Y-105445215D01*
X141350978Y-101966850D01*
X141350965Y-101966840D01*
X141235028Y-101899904D01*
X141235025Y-101899903D01*
X141214885Y-101894506D01*
X141118500Y-101868680D01*
X141108395Y-101865250D01*
X141105698Y-101865250D01*
X141105695Y-101865250D01*
X140971805Y-101865250D01*
X140971802Y-101865250D01*
X140956416Y-101868882D01*
X140952023Y-101870549D01*
X140842475Y-101899902D01*
X140842474Y-101899901D01*
X140842474Y-101899902D01*
X140726533Y-101966840D01*
X140726520Y-101966850D01*
X140631850Y-102061520D01*
X140631840Y-102061533D01*
X140564902Y-102177473D01*
X140564903Y-102177474D01*
X140535316Y-102287898D01*
X140530250Y-102306805D01*
X129283984Y-102306805D01*
X129283984Y-93500131D01*
X129289051Y-93455149D01*
X129295058Y-93428832D01*
X129327285Y-93356813D01*
X129333346Y-93348271D01*
X129355262Y-93322318D01*
X131755217Y-90922363D01*
X131790618Y-90894134D01*
X131804043Y-90885699D01*
X131888981Y-90855980D01*
X131978402Y-90866058D01*
X132054596Y-90913936D01*
X132102467Y-90990124D01*
X132105152Y-90997797D01*
X132116500Y-91064582D01*
X132116500Y-96148116D01*
X132121915Y-96168323D01*
X132121916Y-96168323D01*
X132121917Y-96168327D01*
X132132581Y-96208124D01*
X132132582Y-96208132D01*
X132132583Y-96208132D01*
X132134604Y-96215675D01*
X132137306Y-96225759D01*
X132137307Y-96225762D01*
X132137311Y-96225769D01*
X132137312Y-96225771D01*
X132177494Y-96295370D01*
X132177498Y-96295375D01*
X132177499Y-96295376D01*
X132177500Y-96295377D01*
X132829624Y-96947501D01*
X132899241Y-96987695D01*
X132920047Y-96993269D01*
X132976890Y-97008501D01*
X133163429Y-97008501D01*
X133208416Y-97013569D01*
X133228946Y-97018255D01*
X133310013Y-97057291D01*
X133319211Y-97064626D01*
X133368254Y-97121612D01*
X133373200Y-97130178D01*
X133457672Y-97214650D01*
X133561128Y-97274381D01*
X133561129Y-97274381D01*
X133561131Y-97274382D01*
X133618823Y-97289840D01*
X133676519Y-97305300D01*
X133676521Y-97305300D01*
X133795979Y-97305300D01*
X133795981Y-97305300D01*
X133911372Y-97274381D01*
X134014828Y-97214650D01*
X134099300Y-97130178D01*
X134159031Y-97026722D01*
X134189950Y-96911331D01*
X134189950Y-96791869D01*
X134159031Y-96676478D01*
X134126899Y-96620824D01*
X134108794Y-96579329D01*
X134105710Y-96569331D01*
X134102588Y-96559211D01*
X134095863Y-96469481D01*
X134097618Y-96457837D01*
X134122448Y-96386884D01*
X134159031Y-96323522D01*
X134189950Y-96208131D01*
X134189950Y-96088669D01*
X134167597Y-96005245D01*
X134159032Y-95973281D01*
X134159031Y-95973280D01*
X134159031Y-95973278D01*
X134099300Y-95869822D01*
X134014828Y-95785350D01*
X133925457Y-95733751D01*
X133911367Y-95725616D01*
X133795985Y-95694700D01*
X133795983Y-95694700D01*
X133795981Y-95694700D01*
X133676519Y-95694700D01*
X133676516Y-95694700D01*
X133676511Y-95694700D01*
X133561128Y-95725617D01*
X133559668Y-95726277D01*
X133555487Y-95728875D01*
X133468778Y-95778937D01*
X133451988Y-95787611D01*
X133423236Y-95800801D01*
X133335146Y-95819182D01*
X133247804Y-95797521D01*
X133178510Y-95740110D01*
X133141381Y-95660159D01*
X133138154Y-95645386D01*
X133133500Y-95602249D01*
X133133500Y-91419660D01*
X133138568Y-91374673D01*
X133144574Y-91348357D01*
X133176795Y-91276349D01*
X133182853Y-91267811D01*
X133204774Y-91241851D01*
X135362166Y-89084458D01*
X135397553Y-89056238D01*
X135414306Y-89045711D01*
X135499237Y-89015993D01*
X135588651Y-89026065D01*
X135596291Y-89028738D01*
X135672483Y-89076611D01*
X135703988Y-89108116D01*
X135807444Y-89167847D01*
X135807446Y-89167847D01*
X135807447Y-89167848D01*
X135847884Y-89178683D01*
X135922835Y-89198766D01*
X135922837Y-89198766D01*
X136042295Y-89198766D01*
X136042297Y-89198766D01*
X136157688Y-89167847D01*
X136204985Y-89140539D01*
X136246470Y-89122438D01*
X136261625Y-89117763D01*
X136351355Y-89111036D01*
X136435123Y-89143909D01*
X136496333Y-89209872D01*
X136522859Y-89295859D01*
X136523248Y-89301039D01*
X136523469Y-89303989D01*
X136517144Y-89371415D01*
X136492730Y-89462536D01*
X136492729Y-89462545D01*
X136492729Y-89582008D01*
X136523645Y-89697390D01*
X136523646Y-89697391D01*
X136523647Y-89697393D01*
X136523648Y-89697395D01*
X136583379Y-89800851D01*
X136667851Y-89885323D01*
X136771307Y-89945054D01*
X136771308Y-89945054D01*
X136771309Y-89945054D01*
X136771310Y-89945055D01*
X136806847Y-89954577D01*
X136886698Y-89975973D01*
X136886700Y-89975973D01*
X137006158Y-89975973D01*
X137006160Y-89975973D01*
X137087268Y-89954239D01*
X137121548Y-89945055D01*
X137121548Y-89945054D01*
X137121551Y-89945054D01*
X137172582Y-89915590D01*
X137182646Y-89912486D01*
X137236563Y-89878609D01*
X137265675Y-89860316D01*
X137339379Y-89832183D01*
X137349696Y-89830430D01*
X137383567Y-89827573D01*
X137684630Y-89827573D01*
X137684632Y-89827573D01*
X137762280Y-89806767D01*
X137785124Y-89793578D01*
X137818942Y-89774052D01*
X137835715Y-89765388D01*
X137844255Y-89761470D01*
X137844256Y-89761471D01*
X137865615Y-89751671D01*
X137953706Y-89733292D01*
X138041047Y-89754954D01*
X138110340Y-89812367D01*
X138147464Y-89892301D01*
X138150691Y-89907072D01*
X138155350Y-89950228D01*
X138155350Y-92242491D01*
X138176153Y-92320130D01*
X138176154Y-92320132D01*
X138176155Y-92320134D01*
X138215526Y-92388326D01*
X138216351Y-92389754D01*
X140082464Y-94255868D01*
X140092732Y-94272210D01*
X140176708Y-94320692D01*
X140176714Y-94320693D01*
X140176715Y-94320694D01*
X140254363Y-94341500D01*
X141400937Y-94341500D01*
X141445926Y-94346569D01*
X141453449Y-94348286D01*
X141463637Y-94350611D01*
X141544714Y-94389653D01*
X141600822Y-94460007D01*
X141620848Y-94547737D01*
X141620848Y-94562619D01*
X141613958Y-94614952D01*
X141606076Y-94644368D01*
X141596300Y-94680850D01*
X141596300Y-94826650D01*
X141634033Y-94967471D01*
X141706926Y-95093725D01*
X141706928Y-95093728D01*
X141706929Y-95093729D01*
X141706930Y-95093730D01*
X141810020Y-95196820D01*
X141926740Y-95264208D01*
X141948711Y-95278888D01*
X141969575Y-95294898D01*
X141989451Y-95312329D01*
X142881523Y-96204401D01*
X142950630Y-96244300D01*
X142997476Y-96271347D01*
X143126805Y-96306000D01*
X143444305Y-96306000D01*
X143619200Y-96306000D01*
X143664189Y-96311068D01*
X143706927Y-96320823D01*
X143750731Y-96336296D01*
X143796235Y-96358542D01*
X143865956Y-96368700D01*
X143865960Y-96368700D01*
X144244040Y-96368700D01*
X144244044Y-96368700D01*
X144313765Y-96358542D01*
X144384829Y-96323799D01*
X144427476Y-96308593D01*
X144430321Y-96307926D01*
X144445163Y-96304445D01*
X144535149Y-96303914D01*
X144616454Y-96342479D01*
X144672963Y-96412479D01*
X144675726Y-96418129D01*
X144694944Y-96483728D01*
X144694961Y-96483875D01*
X144696300Y-96507104D01*
X144696300Y-96645335D01*
X144696343Y-96645944D01*
X144696607Y-96647985D01*
X144698439Y-96663776D01*
X144699246Y-96670737D01*
X144706283Y-96686674D01*
X144722095Y-96722485D01*
X144735631Y-96765692D01*
X144740302Y-96789798D01*
X144738924Y-96873256D01*
X144735617Y-96887745D01*
X144723458Y-96924425D01*
X144699248Y-96979254D01*
X144699247Y-96979258D01*
X144699247Y-96979259D01*
X144699247Y-96979263D01*
X144699243Y-96979292D01*
X144696300Y-97004653D01*
X144696300Y-97295335D01*
X144696343Y-97295953D01*
X144696610Y-97298009D01*
X144697898Y-97309117D01*
X144698315Y-97316324D01*
X144699246Y-97320734D01*
X144699246Y-97320737D01*
X144714431Y-97355128D01*
X144722095Y-97372485D01*
X144735631Y-97415692D01*
X144740302Y-97439798D01*
X144738925Y-97523254D01*
X144735618Y-97537744D01*
X144723458Y-97574427D01*
X144701203Y-97624829D01*
X144699375Y-97628713D01*
X144698351Y-97633050D01*
X144697899Y-97640873D01*
X144696642Y-97651712D01*
X144696300Y-97654656D01*
X144696300Y-97654660D01*
X144696300Y-97945335D01*
X144696343Y-97945953D01*
X144696604Y-97947965D01*
X144696880Y-97950341D01*
X144696885Y-97950380D01*
X144699245Y-97970731D01*
X144699247Y-97970740D01*
X144722095Y-98022486D01*
X144735631Y-98065692D01*
X144740302Y-98089798D01*
X144738924Y-98173256D01*
X144735617Y-98187745D01*
X144723458Y-98224425D01*
X144699248Y-98279254D01*
X144699247Y-98279258D01*
X144699247Y-98279259D01*
X144699247Y-98279263D01*
X144699243Y-98279292D01*
X144696300Y-98304653D01*
X144696300Y-98595335D01*
X144696343Y-98595949D01*
X144696609Y-98598000D01*
X144697900Y-98609132D01*
X144698461Y-98618843D01*
X144712122Y-98651825D01*
X144714513Y-98655315D01*
X144745106Y-98724602D01*
X144745108Y-98724605D01*
X144825395Y-98804892D01*
X144929263Y-98850754D01*
X144954655Y-98853700D01*
X146320344Y-98853699D01*
X146345737Y-98850754D01*
X146449605Y-98804892D01*
X146529892Y-98724605D01*
X146575754Y-98620737D01*
X146578700Y-98595345D01*
X146578699Y-98304656D01*
X146575754Y-98279263D01*
X146552903Y-98227512D01*
X146539367Y-98184307D01*
X146534696Y-98160197D01*
X146536074Y-98076739D01*
X146539383Y-98062244D01*
X146551538Y-98025579D01*
X146575754Y-97970737D01*
X146578700Y-97945345D01*
X146578699Y-97654656D01*
X150421300Y-97654656D01*
X150421300Y-97654660D01*
X150421300Y-97945335D01*
X150421343Y-97945953D01*
X150421604Y-97947965D01*
X150421880Y-97950341D01*
X150421885Y-97950380D01*
X150424245Y-97970731D01*
X150424247Y-97970740D01*
X150447095Y-98022486D01*
X150460631Y-98065692D01*
X150465302Y-98089798D01*
X150463924Y-98173256D01*
X150460617Y-98187745D01*
X150448458Y-98224425D01*
X150424248Y-98279254D01*
X150424247Y-98279258D01*
X150424247Y-98279259D01*
X150424247Y-98279263D01*
X150424243Y-98279292D01*
X150421300Y-98304653D01*
X150421300Y-98595335D01*
X150421343Y-98595949D01*
X150421609Y-98598000D01*
X150422900Y-98609132D01*
X150423461Y-98618843D01*
X150437122Y-98651825D01*
X150439513Y-98655315D01*
X150470106Y-98724602D01*
X150470108Y-98724605D01*
X150550395Y-98804892D01*
X150654263Y-98850754D01*
X150679655Y-98853700D01*
X152045344Y-98853699D01*
X152070737Y-98850754D01*
X152174605Y-98804892D01*
X152254892Y-98724605D01*
X152300754Y-98620737D01*
X152303700Y-98595345D01*
X152303699Y-98304656D01*
X152300754Y-98279263D01*
X152277903Y-98227512D01*
X152264367Y-98184307D01*
X152259696Y-98160197D01*
X152261074Y-98076739D01*
X152264383Y-98062244D01*
X152276538Y-98025579D01*
X152300754Y-97970737D01*
X152303700Y-97945345D01*
X152303699Y-97654656D01*
X152300754Y-97629263D01*
X152254892Y-97525395D01*
X152174605Y-97445108D01*
X152174604Y-97445107D01*
X152070737Y-97399246D01*
X152070733Y-97399244D01*
X152070729Y-97399243D01*
X152053027Y-97397189D01*
X152053027Y-97397190D01*
X152045358Y-97396301D01*
X152045350Y-97396300D01*
X152045345Y-97396300D01*
X152045343Y-97396300D01*
X152045338Y-97396300D01*
X150679661Y-97396300D01*
X150668500Y-97397594D01*
X150668496Y-97397594D01*
X150667263Y-97397737D01*
X150665873Y-97397898D01*
X150664011Y-97397695D01*
X150662233Y-97398288D01*
X150657301Y-97398528D01*
X150653713Y-97399375D01*
X150649839Y-97401198D01*
X150583293Y-97430581D01*
X150550397Y-97445106D01*
X150550395Y-97445106D01*
X150550393Y-97445108D01*
X150470108Y-97525393D01*
X150426203Y-97624830D01*
X150424469Y-97628514D01*
X150424245Y-97629266D01*
X150422473Y-97644545D01*
X150421642Y-97651712D01*
X150421300Y-97654656D01*
X146578699Y-97654656D01*
X146575754Y-97629263D01*
X146552903Y-97577512D01*
X146539367Y-97534307D01*
X146534696Y-97510197D01*
X146536074Y-97426739D01*
X146539383Y-97412244D01*
X146551538Y-97375579D01*
X146575754Y-97320737D01*
X146578700Y-97295345D01*
X146578699Y-97004656D01*
X146575754Y-96979263D01*
X146552903Y-96927512D01*
X146539367Y-96884307D01*
X146534696Y-96860197D01*
X146536074Y-96776739D01*
X146539383Y-96762244D01*
X146551538Y-96725579D01*
X146575754Y-96670737D01*
X146578700Y-96645345D01*
X146578699Y-96354656D01*
X146575754Y-96329263D01*
X146552903Y-96277512D01*
X146539367Y-96234307D01*
X146534696Y-96210197D01*
X146536074Y-96126739D01*
X146539383Y-96112244D01*
X146551538Y-96075579D01*
X146575754Y-96020737D01*
X146578700Y-95995345D01*
X146578699Y-95875272D01*
X146583768Y-95830282D01*
X146584741Y-95826018D01*
X146587296Y-95814825D01*
X146626338Y-95733751D01*
X146696692Y-95677644D01*
X146784423Y-95657618D01*
X146872145Y-95677636D01*
X146879475Y-95681166D01*
X146915789Y-95706931D01*
X146917116Y-95705203D01*
X146927628Y-95713269D01*
X146927630Y-95713270D01*
X146927632Y-95713272D01*
X147031088Y-95773003D01*
X147031090Y-95773003D01*
X147031091Y-95773004D01*
X147077171Y-95785351D01*
X147146479Y-95803922D01*
X147146481Y-95803922D01*
X147265939Y-95803922D01*
X147265941Y-95803922D01*
X147381332Y-95773003D01*
X147484788Y-95713272D01*
X147569260Y-95628800D01*
X147599502Y-95576417D01*
X147626387Y-95539990D01*
X147632035Y-95533903D01*
X147638745Y-95526671D01*
X147713093Y-95475980D01*
X147802075Y-95462567D01*
X147888063Y-95489089D01*
X147896396Y-95493900D01*
X147900956Y-95496533D01*
X147942829Y-95528664D01*
X147999821Y-95585656D01*
X148028052Y-95621057D01*
X148039159Y-95638734D01*
X148068880Y-95723672D01*
X148060019Y-95809514D01*
X148054588Y-95826018D01*
X148037638Y-95863901D01*
X148036757Y-95865426D01*
X148036754Y-95865432D01*
X148005837Y-95980816D01*
X148005837Y-96100288D01*
X148036753Y-96215670D01*
X148036754Y-96215671D01*
X148036755Y-96215673D01*
X148036756Y-96215675D01*
X148096487Y-96319131D01*
X148180959Y-96403603D01*
X148284415Y-96463334D01*
X148284416Y-96463334D01*
X148284418Y-96463335D01*
X148307292Y-96469464D01*
X148342110Y-96478793D01*
X148399806Y-96494253D01*
X148399808Y-96494253D01*
X148519266Y-96494253D01*
X148519268Y-96494253D01*
X148634659Y-96463334D01*
X148738115Y-96403603D01*
X148822587Y-96319131D01*
X148830831Y-96304851D01*
X148857717Y-96268422D01*
X148870077Y-96255100D01*
X148944428Y-96204412D01*
X149033410Y-96191002D01*
X149119396Y-96217526D01*
X149132279Y-96224964D01*
X149174156Y-96257097D01*
X149661359Y-96744300D01*
X149730976Y-96784494D01*
X149730978Y-96784494D01*
X149730979Y-96784495D01*
X149747389Y-96788892D01*
X149747392Y-96788892D01*
X149750532Y-96789734D01*
X149750531Y-96789735D01*
X149750555Y-96789740D01*
X149756681Y-96791381D01*
X149756682Y-96791382D01*
X149772850Y-96795713D01*
X149781610Y-96798060D01*
X149781622Y-96798066D01*
X149781623Y-96798064D01*
X149808625Y-96805300D01*
X150394268Y-96805300D01*
X150439256Y-96810368D01*
X150465569Y-96816374D01*
X150537582Y-96848597D01*
X150555503Y-96861313D01*
X150560318Y-96861544D01*
X150573161Y-96866146D01*
X150575534Y-96866449D01*
X150577414Y-96867670D01*
X150587600Y-96871319D01*
X150654263Y-96900754D01*
X150679655Y-96903700D01*
X152045344Y-96903699D01*
X152070737Y-96900754D01*
X152174605Y-96854892D01*
X152254892Y-96774605D01*
X152300754Y-96670737D01*
X152303700Y-96645345D01*
X152303699Y-96354656D01*
X152300754Y-96329263D01*
X152277903Y-96277512D01*
X152264367Y-96234307D01*
X152259696Y-96210197D01*
X152261074Y-96126739D01*
X152264383Y-96112244D01*
X152276538Y-96075579D01*
X152300754Y-96020737D01*
X152303700Y-95995345D01*
X152303699Y-95704656D01*
X152300754Y-95679263D01*
X152277903Y-95627512D01*
X152264367Y-95584307D01*
X152259696Y-95560197D01*
X152261074Y-95476739D01*
X152264383Y-95462244D01*
X152276538Y-95425579D01*
X152300754Y-95370737D01*
X152303700Y-95345345D01*
X152303699Y-95054656D01*
X152300754Y-95029263D01*
X152277903Y-94977512D01*
X152264367Y-94934307D01*
X152259696Y-94910197D01*
X152261074Y-94826739D01*
X152264383Y-94812244D01*
X152276538Y-94775579D01*
X152300754Y-94720737D01*
X152303700Y-94695345D01*
X152303699Y-94404656D01*
X152300754Y-94379263D01*
X152262296Y-94292163D01*
X152254893Y-94275397D01*
X152254891Y-94275394D01*
X152174604Y-94195107D01*
X152070737Y-94149246D01*
X152070733Y-94149244D01*
X152070729Y-94149243D01*
X152053027Y-94147189D01*
X152053027Y-94147190D01*
X152045358Y-94146301D01*
X152045350Y-94146300D01*
X152045345Y-94146300D01*
X152045343Y-94146300D01*
X152045338Y-94146300D01*
X150679661Y-94146300D01*
X150668500Y-94147594D01*
X150668496Y-94147594D01*
X150667263Y-94147737D01*
X150665867Y-94147899D01*
X150658050Y-94148351D01*
X150653712Y-94149375D01*
X150649836Y-94151199D01*
X150592543Y-94176496D01*
X150566190Y-94181602D01*
X150517884Y-94211955D01*
X150444185Y-94240089D01*
X150433870Y-94241842D01*
X150399993Y-94244700D01*
X149640495Y-94244700D01*
X149595508Y-94239631D01*
X149569191Y-94233625D01*
X149497173Y-94201396D01*
X149488636Y-94195338D01*
X149462675Y-94173415D01*
X147089012Y-91799753D01*
X147070350Y-91770053D01*
X146937439Y-91734440D01*
X146937435Y-91734440D01*
X146937433Y-91734440D01*
X143796484Y-91734440D01*
X143751497Y-91729371D01*
X143725180Y-91723365D01*
X143653162Y-91691136D01*
X143644625Y-91685078D01*
X143618664Y-91663155D01*
X142276696Y-90321187D01*
X142248465Y-90285786D01*
X142240969Y-90273856D01*
X142211248Y-90188918D01*
X142221324Y-90099496D01*
X142269201Y-90023302D01*
X142345396Y-89975426D01*
X142427298Y-89964647D01*
X142436997Y-89965374D01*
X142449799Y-89967551D01*
X142449876Y-89966969D01*
X142463016Y-89968699D01*
X142463019Y-89968700D01*
X142463023Y-89968700D01*
X142582479Y-89968700D01*
X142582481Y-89968700D01*
X142697872Y-89937781D01*
X142801328Y-89878050D01*
X142834401Y-89844975D01*
X142869798Y-89816747D01*
X142885180Y-89807081D01*
X142970116Y-89777359D01*
X143059538Y-89787432D01*
X143135734Y-89835307D01*
X143146255Y-89845828D01*
X143178386Y-89887701D01*
X143194490Y-89915592D01*
X143215700Y-89952328D01*
X143300172Y-90036800D01*
X143403628Y-90096531D01*
X143403629Y-90096531D01*
X143403631Y-90096532D01*
X143461323Y-90111990D01*
X143519019Y-90127450D01*
X143519021Y-90127450D01*
X143638479Y-90127450D01*
X143638481Y-90127450D01*
X143753872Y-90096531D01*
X143857328Y-90036800D01*
X143941800Y-89952328D01*
X144001531Y-89848872D01*
X144016779Y-89791962D01*
X144021701Y-89782650D01*
X144035873Y-89720562D01*
X144043524Y-89687041D01*
X144075751Y-89615025D01*
X144081812Y-89606483D01*
X144103728Y-89580530D01*
X144360300Y-89323959D01*
X144634320Y-89049939D01*
X144674514Y-88980321D01*
X144682213Y-88951587D01*
X144695320Y-88902673D01*
X144695320Y-87950942D01*
X144700388Y-87905955D01*
X144706394Y-87879639D01*
X144738612Y-87807635D01*
X144745671Y-87797688D01*
X144745670Y-87797687D01*
X144756547Y-87782357D01*
X144756647Y-87782222D01*
X144756677Y-87782175D01*
X144770278Y-87763005D01*
X144781260Y-87737831D01*
X144812801Y-87683202D01*
X144843720Y-87567811D01*
X144843720Y-87448349D01*
X144830251Y-87398085D01*
X144823503Y-87353311D01*
X144822824Y-87335156D01*
X144839556Y-87246738D01*
X144892993Y-87174335D01*
X144972547Y-87132291D01*
X144986935Y-87128435D01*
X145039252Y-87121550D01*
X146464896Y-87121550D01*
X146509874Y-87126616D01*
X146523619Y-87129753D01*
X146604692Y-87168792D01*
X146660802Y-87239144D01*
X146680830Y-87326874D01*
X146660810Y-87414607D01*
X146610525Y-87480144D01*
X146603158Y-87486484D01*
X146583399Y-87500503D01*
X146583586Y-87500765D01*
X146583579Y-87500770D01*
X146577600Y-87504618D01*
X146572364Y-87508334D01*
X146567167Y-87511334D01*
X146567157Y-87511341D01*
X146541683Y-87526048D01*
X146531277Y-87532057D01*
X146522653Y-87537036D01*
X146475174Y-87564447D01*
X146475171Y-87564450D01*
X146390702Y-87648918D01*
X146390701Y-87648920D01*
X146330967Y-87752381D01*
X146330966Y-87752384D01*
X146330965Y-87752387D01*
X146300050Y-87867763D01*
X146300050Y-87987235D01*
X146330966Y-88102617D01*
X146330967Y-88102618D01*
X146330971Y-88102627D01*
X146360420Y-88153633D01*
X146363527Y-88163705D01*
X146415703Y-88246743D01*
X146443836Y-88320433D01*
X146445590Y-88330751D01*
X146448450Y-88364638D01*
X146448450Y-89012925D01*
X146443380Y-89057919D01*
X146437376Y-89084224D01*
X146405146Y-89156246D01*
X146399088Y-89164783D01*
X146377165Y-89190744D01*
X145259210Y-90308700D01*
X145223807Y-90336932D01*
X145200962Y-90351286D01*
X145127259Y-90379420D01*
X145073277Y-90388592D01*
X145047704Y-90398634D01*
X144997211Y-90412163D01*
X144986820Y-90414948D01*
X144911081Y-90458676D01*
X144883357Y-90474683D01*
X144798891Y-90559149D01*
X144789863Y-90574786D01*
X144739156Y-90662612D01*
X144739155Y-90662615D01*
X144739154Y-90662618D01*
X144708239Y-90777994D01*
X144708239Y-90897466D01*
X144739155Y-91012848D01*
X144739156Y-91012849D01*
X144739157Y-91012851D01*
X144739158Y-91012853D01*
X144798889Y-91116309D01*
X144883361Y-91200781D01*
X144986817Y-91260512D01*
X144986818Y-91260512D01*
X144986820Y-91260513D01*
X145044512Y-91275971D01*
X145102208Y-91291431D01*
X145102210Y-91291431D01*
X145221668Y-91291431D01*
X145221670Y-91291431D01*
X145337061Y-91260512D01*
X145440517Y-91200781D01*
X145524989Y-91116309D01*
X145584720Y-91012853D01*
X145599968Y-90955943D01*
X145604890Y-90946631D01*
X145619062Y-90884543D01*
X145626713Y-90851022D01*
X145658940Y-90779006D01*
X145665001Y-90770464D01*
X145686917Y-90744511D01*
X146303980Y-90127449D01*
X146998051Y-89433379D01*
X147038244Y-89363761D01*
X147041372Y-89352087D01*
X147059050Y-89286113D01*
X147059050Y-88370362D01*
X147064118Y-88325375D01*
X147070124Y-88299059D01*
X147102342Y-88227055D01*
X147109401Y-88217108D01*
X147109400Y-88217107D01*
X147120277Y-88201777D01*
X147120377Y-88201642D01*
X147120407Y-88201595D01*
X147134008Y-88182425D01*
X147144990Y-88157251D01*
X147176531Y-88102622D01*
X147204796Y-87997133D01*
X147221333Y-87954995D01*
X147223475Y-87950942D01*
X147229823Y-87938930D01*
X147288516Y-87870722D01*
X147370993Y-87834733D01*
X147460912Y-87838092D01*
X147463522Y-87838792D01*
X147531259Y-87871410D01*
X147536782Y-87875486D01*
X147559692Y-87895201D01*
X148913117Y-89248626D01*
X148941349Y-89284028D01*
X148955705Y-89306876D01*
X148983836Y-89380564D01*
X148985590Y-89390882D01*
X148988450Y-89424769D01*
X148988450Y-90825195D01*
X148996246Y-90854289D01*
X149004167Y-90883849D01*
X149004166Y-90883849D01*
X149004169Y-90883857D01*
X149008692Y-90900742D01*
X149009255Y-90902841D01*
X149049450Y-90972459D01*
X149049452Y-90972461D01*
X150025391Y-91948401D01*
X150081260Y-91980656D01*
X150081275Y-91980666D01*
X150089213Y-91985247D01*
X150092737Y-91987282D01*
X150092739Y-91987284D01*
X150095005Y-91988592D01*
X150095011Y-91988595D01*
X150120472Y-91995417D01*
X150172657Y-92009400D01*
X151567356Y-92009400D01*
X151612339Y-92014467D01*
X151638653Y-92020473D01*
X151710677Y-92052703D01*
X151719214Y-92058761D01*
X151745175Y-92080684D01*
X152881867Y-93217376D01*
X152910098Y-93252777D01*
X152912521Y-93256633D01*
X152924455Y-93275626D01*
X152952586Y-93349314D01*
X152954340Y-93359632D01*
X152957200Y-93393519D01*
X152957200Y-100712005D01*
X152952130Y-100756999D01*
X152946126Y-100783304D01*
X152913896Y-100855326D01*
X152907838Y-100863863D01*
X152885915Y-100889824D01*
X152383208Y-101392531D01*
X152383202Y-101392538D01*
X152383193Y-101392549D01*
X152371948Y-101412028D01*
X152371947Y-101412031D01*
X152348005Y-101453500D01*
X152348001Y-101453505D01*
X152344088Y-101460280D01*
X152344089Y-101460281D01*
X152343012Y-101462146D01*
X152343004Y-101462161D01*
X152322200Y-101539803D01*
X152322200Y-101772137D01*
X152317130Y-101817133D01*
X152311126Y-101843437D01*
X152278902Y-101915449D01*
X152247253Y-101960052D01*
X152236262Y-101985244D01*
X152204717Y-102039880D01*
X152173800Y-102155263D01*
X152173800Y-102274735D01*
X152204716Y-102390117D01*
X152204717Y-102390118D01*
X152204718Y-102390120D01*
X152204719Y-102390122D01*
X152264450Y-102493578D01*
X152348922Y-102578050D01*
X152452378Y-102637781D01*
X152452380Y-102637781D01*
X152452381Y-102637782D01*
X152497789Y-102649949D01*
X152580570Y-102672130D01*
X152579823Y-102674917D01*
X152644835Y-102699029D01*
X152707274Y-102763829D01*
X152735414Y-102849303D01*
X152736300Y-102868211D01*
X152736300Y-105873602D01*
X152743410Y-105927613D01*
X152743412Y-105927620D01*
X152763692Y-106003308D01*
X152766888Y-106013665D01*
X152768296Y-106018229D01*
X152817711Y-106096873D01*
X152873127Y-106152289D01*
X152884567Y-106162904D01*
X152946592Y-106195685D01*
X152966672Y-106206299D01*
X152966684Y-106206305D01*
X153042384Y-106226589D01*
X153096400Y-106233700D01*
X153096403Y-106233700D01*
X157715963Y-106233700D01*
X157715966Y-106233700D01*
X157715966Y-106233699D01*
X157769987Y-106226586D01*
X157845686Y-106206299D01*
X157860598Y-106201699D01*
X157939241Y-106152281D01*
X157994655Y-106096863D01*
X158005270Y-106085421D01*
X158048667Y-106003303D01*
X158068948Y-105927602D01*
X158076057Y-105873586D01*
X158076039Y-105421257D01*
X158096060Y-105333526D01*
X158152163Y-105263169D01*
X158233238Y-105224121D01*
X158278239Y-105219050D01*
X162680756Y-105219050D01*
X162725739Y-105224117D01*
X162752053Y-105230123D01*
X162824077Y-105262353D01*
X162832614Y-105268411D01*
X162858575Y-105290334D01*
X163472077Y-105903836D01*
X163519953Y-105980031D01*
X163531300Y-106046813D01*
X163531300Y-106481600D01*
X163511276Y-106569331D01*
X163455170Y-106639686D01*
X163374094Y-106678730D01*
X163329100Y-106683800D01*
X162520359Y-106683800D01*
X162520354Y-106683800D01*
X162520353Y-106683800D01*
X162514809Y-106684259D01*
X162513131Y-106684477D01*
X162494063Y-106686264D01*
X162489701Y-106686673D01*
X162360602Y-106731846D01*
X162250563Y-106813059D01*
X162250560Y-106813062D01*
X162169346Y-106923103D01*
X162124174Y-107052196D01*
X162123563Y-107055790D01*
X162123291Y-107061614D01*
X162121300Y-107082844D01*
X162121300Y-107917142D01*
X162121363Y-107918165D01*
X162121590Y-107920243D01*
X162124174Y-107947801D01*
X162169346Y-108076895D01*
X162250562Y-108186938D01*
X162360605Y-108268154D01*
X162489699Y-108313326D01*
X162520347Y-108316200D01*
X163389925Y-108316199D01*
X163477656Y-108336223D01*
X163548011Y-108392329D01*
X163568370Y-108423309D01*
X163593479Y-108470428D01*
X163593481Y-108470431D01*
X163639236Y-108523235D01*
X163657101Y-108541468D01*
X163657103Y-108541469D01*
X163725701Y-108579841D01*
X163738162Y-108586811D01*
X163779584Y-108598974D01*
X163805197Y-108606495D01*
X163805198Y-108606495D01*
X163805201Y-108606496D01*
X163849131Y-108612812D01*
X163863999Y-108614950D01*
X163864000Y-108614950D01*
X168378496Y-108614950D01*
X168378500Y-108614950D01*
X168422864Y-108610180D01*
X168458386Y-108602452D01*
X168474385Y-108598972D01*
X168484709Y-108596449D01*
X168484709Y-108596448D01*
X168484712Y-108596448D01*
X168566681Y-108552769D01*
X168619485Y-108507014D01*
X168637718Y-108489149D01*
X168683061Y-108408088D01*
X168702746Y-108341049D01*
X168711200Y-108282250D01*
X168711200Y-105196500D01*
X168706430Y-105152136D01*
X168695224Y-105100625D01*
X168695222Y-105100614D01*
X168692699Y-105090290D01*
X168649019Y-105008319D01*
X168635471Y-104992684D01*
X168603264Y-104955515D01*
X168585399Y-104937282D01*
X168585396Y-104937280D01*
X168504339Y-104891939D01*
X168437302Y-104872254D01*
X168378501Y-104863800D01*
X168378500Y-104863800D01*
X166373100Y-104863800D01*
X166285369Y-104843776D01*
X166215014Y-104787670D01*
X166175970Y-104706594D01*
X166175970Y-104616606D01*
X166215014Y-104535530D01*
X166224881Y-104524065D01*
X166253420Y-104493309D01*
X166253419Y-104493309D01*
X166253423Y-104493306D01*
X166292611Y-104425437D01*
X166313462Y-104375105D01*
X166317675Y-104359385D01*
X166323003Y-104332606D01*
X166328164Y-104293414D01*
X166329950Y-104266167D01*
X166329950Y-101275082D01*
X166328164Y-101247835D01*
X166323003Y-101208643D01*
X166317675Y-101181864D01*
X166313462Y-101166144D01*
X166292613Y-101115816D01*
X166253429Y-101047951D01*
X166245127Y-101034739D01*
X166177040Y-100971565D01*
X166177037Y-100971563D01*
X166177036Y-100971562D01*
X166109171Y-100932381D01*
X166058845Y-100911534D01*
X166043124Y-100907321D01*
X166016334Y-100901992D01*
X165977144Y-100896834D01*
X165949917Y-100895050D01*
X165825442Y-100895050D01*
X165737711Y-100875026D01*
X165705371Y-100855539D01*
X165639395Y-100806846D01*
X165510302Y-100761674D01*
X165510291Y-100761673D01*
X165504171Y-100761099D01*
X165504169Y-100761098D01*
X165479658Y-100758800D01*
X165479653Y-100758800D01*
X165479649Y-100758800D01*
X162520359Y-100758800D01*
X162520354Y-100758800D01*
X162520353Y-100758800D01*
X162514809Y-100759259D01*
X162513131Y-100759477D01*
X162494063Y-100761264D01*
X162489701Y-100761673D01*
X162360602Y-100806846D01*
X162250563Y-100888059D01*
X162250560Y-100888062D01*
X162169346Y-100998103D01*
X162124174Y-101127196D01*
X162123563Y-101130790D01*
X162123291Y-101136614D01*
X162121300Y-101157844D01*
X162121300Y-101992142D01*
X162121364Y-101993176D01*
X162121595Y-101995289D01*
X162123687Y-102017606D01*
X162123688Y-102017612D01*
X162124174Y-102022802D01*
X162169343Y-102151890D01*
X162169345Y-102151893D01*
X162169346Y-102151895D01*
X162234475Y-102240142D01*
X162234476Y-102240143D01*
X162250559Y-102261935D01*
X162250560Y-102261936D01*
X162250562Y-102261938D01*
X162360605Y-102343154D01*
X162489699Y-102388326D01*
X162520347Y-102391200D01*
X163329100Y-102391199D01*
X163416831Y-102411223D01*
X163487186Y-102467329D01*
X163526230Y-102548405D01*
X163531300Y-102593399D01*
X163531300Y-102953187D01*
X163511276Y-103040918D01*
X163472077Y-103096164D01*
X162511373Y-104056867D01*
X162475971Y-104085099D01*
X162453123Y-104099455D01*
X162379438Y-104127586D01*
X162371958Y-104128857D01*
X162369117Y-104129340D01*
X162335231Y-104132200D01*
X158278180Y-104132200D01*
X158190449Y-104112176D01*
X158120094Y-104056070D01*
X158081050Y-103974994D01*
X158075980Y-103930008D01*
X158075766Y-98520776D01*
X158075766Y-98520770D01*
X158069937Y-98476507D01*
X158068653Y-98466754D01*
X158048366Y-98391054D01*
X158043769Y-98376153D01*
X158043768Y-98376151D01*
X158043767Y-98376148D01*
X157998845Y-98304657D01*
X157994352Y-98297506D01*
X157976099Y-98279254D01*
X157938934Y-98242090D01*
X157927491Y-98231474D01*
X157927490Y-98231473D01*
X157917775Y-98222460D01*
X157919876Y-98220195D01*
X157874265Y-98169163D01*
X157849348Y-98082694D01*
X157854091Y-98026381D01*
X157854768Y-98023418D01*
X157887001Y-97951375D01*
X157893062Y-97942833D01*
X157914980Y-97916878D01*
X157950069Y-97881790D01*
X158024606Y-97807252D01*
X158060000Y-97779026D01*
X158075395Y-97769353D01*
X158160331Y-97739638D01*
X158249752Y-97749716D01*
X158325940Y-97797590D01*
X158327844Y-97799494D01*
X158370202Y-97861627D01*
X158372944Y-97867913D01*
X158382918Y-97896420D01*
X158395967Y-97945117D01*
X158395968Y-97945119D01*
X158395969Y-97945122D01*
X158455700Y-98048578D01*
X158540172Y-98133050D01*
X158643628Y-98192781D01*
X158643629Y-98192781D01*
X158643630Y-98192781D01*
X158643631Y-98192782D01*
X158650756Y-98194691D01*
X158650759Y-98194692D01*
X158655512Y-98195965D01*
X158759019Y-98223700D01*
X158759021Y-98223700D01*
X158878479Y-98223700D01*
X158878481Y-98223700D01*
X158968162Y-98199670D01*
X158993869Y-98192782D01*
X158993869Y-98192781D01*
X158993872Y-98192781D01*
X159044903Y-98163317D01*
X159054967Y-98160213D01*
X159108884Y-98126336D01*
X159137996Y-98108043D01*
X159211700Y-98079910D01*
X159222017Y-98078157D01*
X159255888Y-98075300D01*
X160866592Y-98075300D01*
X160911577Y-98080368D01*
X160931931Y-98085013D01*
X161013005Y-98124052D01*
X161067445Y-98191021D01*
X161073538Y-98203089D01*
X161075278Y-98206535D01*
X161090083Y-98245321D01*
X161094719Y-98262622D01*
X161154450Y-98366078D01*
X161238922Y-98450550D01*
X161342378Y-98510281D01*
X161342379Y-98510281D01*
X161342381Y-98510282D01*
X161386073Y-98521989D01*
X161400073Y-98525740D01*
X161457769Y-98541200D01*
X161457771Y-98541200D01*
X161577229Y-98541200D01*
X161577231Y-98541200D01*
X161692622Y-98510281D01*
X161796078Y-98450550D01*
X161880550Y-98366078D01*
X161928521Y-98282989D01*
X161938711Y-98267104D01*
X161949125Y-98252424D01*
X161949126Y-98252425D01*
X161961714Y-98234680D01*
X162028810Y-98174715D01*
X162115279Y-98149799D01*
X162203994Y-98164867D01*
X162217291Y-98170374D01*
X162219147Y-98171143D01*
X162261841Y-98195263D01*
X162315251Y-98234681D01*
X162360605Y-98268154D01*
X162489699Y-98313326D01*
X162520347Y-98316200D01*
X163390591Y-98316199D01*
X163478322Y-98336223D01*
X163548677Y-98392329D01*
X163569036Y-98423308D01*
X163593474Y-98469168D01*
X163593481Y-98469181D01*
X163639236Y-98521985D01*
X163657101Y-98540218D01*
X163738162Y-98585561D01*
X163779584Y-98597724D01*
X163805197Y-98605245D01*
X163805198Y-98605245D01*
X163805201Y-98605246D01*
X163849131Y-98611562D01*
X163863999Y-98613700D01*
X163864000Y-98613700D01*
X168378496Y-98613700D01*
X168378500Y-98613700D01*
X168422864Y-98608930D01*
X168464860Y-98599794D01*
X168474385Y-98597722D01*
X168484709Y-98595199D01*
X168484709Y-98595198D01*
X168484712Y-98595198D01*
X168566681Y-98551519D01*
X168619485Y-98505764D01*
X168637718Y-98487899D01*
X168679908Y-98412475D01*
X168683060Y-98406840D01*
X168683060Y-98406839D01*
X168683061Y-98406838D01*
X168702746Y-98339799D01*
X168711200Y-98281000D01*
X168711200Y-95195250D01*
X168706430Y-95150886D01*
X168700969Y-95125782D01*
X168695222Y-95099364D01*
X168692699Y-95089040D01*
X168649019Y-95007069D01*
X168639153Y-94995683D01*
X168603264Y-94954265D01*
X168585399Y-94936032D01*
X168585396Y-94936030D01*
X168504339Y-94890689D01*
X168437302Y-94871004D01*
X168378501Y-94862550D01*
X168378500Y-94862550D01*
X166373100Y-94862550D01*
X166285369Y-94842526D01*
X166215014Y-94786420D01*
X166175970Y-94705344D01*
X166175970Y-94615356D01*
X166215014Y-94534280D01*
X166224881Y-94522815D01*
X166253420Y-94492059D01*
X166253419Y-94492059D01*
X166253423Y-94492056D01*
X166292611Y-94424187D01*
X166313462Y-94373855D01*
X166317675Y-94358135D01*
X166323003Y-94331356D01*
X166328164Y-94292164D01*
X166329950Y-94264917D01*
X166329950Y-91273832D01*
X166328164Y-91246585D01*
X166323003Y-91207393D01*
X166317675Y-91180614D01*
X166313462Y-91164894D01*
X166292613Y-91114566D01*
X166253429Y-91046701D01*
X166245127Y-91033489D01*
X166177040Y-90970315D01*
X166177037Y-90970313D01*
X166177036Y-90970312D01*
X166109171Y-90931131D01*
X166058845Y-90910284D01*
X166043124Y-90906071D01*
X166016334Y-90900742D01*
X165977144Y-90895584D01*
X165949917Y-90893800D01*
X165823748Y-90893800D01*
X165736017Y-90873776D01*
X165703677Y-90854289D01*
X165695570Y-90848306D01*
X165639395Y-90806846D01*
X165510302Y-90761674D01*
X165504171Y-90761099D01*
X165504169Y-90761098D01*
X165479658Y-90758800D01*
X165479653Y-90758800D01*
X165479649Y-90758800D01*
X162520359Y-90758800D01*
X162520354Y-90758800D01*
X162520353Y-90758800D01*
X162514809Y-90759259D01*
X162513131Y-90759477D01*
X162494063Y-90761264D01*
X162489701Y-90761673D01*
X162360602Y-90806846D01*
X162250563Y-90888059D01*
X162250560Y-90888062D01*
X162169346Y-90998103D01*
X162124174Y-91127196D01*
X162123563Y-91130787D01*
X162123292Y-91136606D01*
X162122841Y-91141418D01*
X162122840Y-91141428D01*
X162121300Y-91157851D01*
X162121300Y-91992142D01*
X162121365Y-91993190D01*
X162121592Y-91995266D01*
X162122916Y-92009380D01*
X162122917Y-92009402D01*
X162122918Y-92009402D01*
X162124173Y-92022800D01*
X162124173Y-92022801D01*
X162169345Y-92151895D01*
X162239482Y-92246927D01*
X162250559Y-92261935D01*
X162250560Y-92261936D01*
X162250562Y-92261938D01*
X162360605Y-92343154D01*
X162489699Y-92388326D01*
X162520347Y-92391200D01*
X163329100Y-92391199D01*
X163416831Y-92411223D01*
X163487186Y-92467329D01*
X163526230Y-92548405D01*
X163531300Y-92593399D01*
X163531300Y-92953187D01*
X163511276Y-93040918D01*
X163472077Y-93096164D01*
X162512623Y-94055617D01*
X162477221Y-94083849D01*
X162454373Y-94098205D01*
X162380688Y-94126336D01*
X162373208Y-94127607D01*
X162370367Y-94128090D01*
X162336481Y-94130950D01*
X158277787Y-94130950D01*
X158190056Y-94110926D01*
X158119701Y-94054820D01*
X158080657Y-93973744D01*
X158075587Y-93928758D01*
X158075294Y-86497897D01*
X158075251Y-85418757D01*
X158095272Y-85331026D01*
X158151375Y-85260669D01*
X158232449Y-85221621D01*
X158277451Y-85216550D01*
X162678256Y-85216550D01*
X162723239Y-85221617D01*
X162749553Y-85227623D01*
X162821577Y-85259853D01*
X162830114Y-85265911D01*
X162856075Y-85287834D01*
X163472077Y-85903836D01*
X163519953Y-85980031D01*
X163531300Y-86046813D01*
X163531300Y-86481600D01*
X163511276Y-86569331D01*
X163455170Y-86639686D01*
X163374094Y-86678730D01*
X163329100Y-86683800D01*
X162520359Y-86683800D01*
X162520354Y-86683800D01*
X162520353Y-86683800D01*
X162514809Y-86684259D01*
X162513131Y-86684477D01*
X162494063Y-86686264D01*
X162489701Y-86686673D01*
X162360602Y-86731846D01*
X162250563Y-86813059D01*
X162250560Y-86813062D01*
X162169346Y-86923103D01*
X162124174Y-87052196D01*
X162123563Y-87055790D01*
X162123291Y-87061614D01*
X162121300Y-87082844D01*
X162121300Y-87917142D01*
X162121364Y-87918179D01*
X162121590Y-87920240D01*
X162122333Y-87928162D01*
X162123318Y-87938668D01*
X162124174Y-87947802D01*
X162169344Y-88076891D01*
X162169345Y-88076894D01*
X162228846Y-88157516D01*
X162228847Y-88157516D01*
X162228849Y-88157519D01*
X162250562Y-88186938D01*
X162360605Y-88268154D01*
X162489699Y-88313326D01*
X162520347Y-88316200D01*
X163394136Y-88316199D01*
X163481867Y-88336223D01*
X163552222Y-88392329D01*
X163574930Y-88427855D01*
X163585346Y-88448653D01*
X163585350Y-88448661D01*
X163614271Y-88491922D01*
X163614274Y-88491926D01*
X163614275Y-88491927D01*
X163615462Y-88493296D01*
X163660335Y-88532161D01*
X163660340Y-88532164D01*
X163660348Y-88532170D01*
X163719073Y-88569899D01*
X163719081Y-88569904D01*
X163773081Y-88594563D01*
X163788080Y-88598968D01*
X163788088Y-88598969D01*
X163788089Y-88598970D01*
X163788093Y-88598971D01*
X163817164Y-88605297D01*
X163817171Y-88605297D01*
X163817181Y-88605300D01*
X163852122Y-88610325D01*
X163881830Y-88612450D01*
X168365153Y-88612450D01*
X168365168Y-88612450D01*
X168387491Y-88611253D01*
X168413862Y-88608416D01*
X168435923Y-88604839D01*
X168443481Y-88603194D01*
X168492554Y-88585873D01*
X168547415Y-88558397D01*
X168590677Y-88529474D01*
X168592046Y-88528287D01*
X168630909Y-88483418D01*
X168668652Y-88424675D01*
X168693312Y-88370674D01*
X168697717Y-88355676D01*
X168704050Y-88326570D01*
X168709075Y-88291626D01*
X168711200Y-88261920D01*
X168711200Y-85207331D01*
X168710003Y-85185008D01*
X168707166Y-85158637D01*
X168703589Y-85136576D01*
X168701944Y-85129018D01*
X168684623Y-85079945D01*
X168657147Y-85025084D01*
X168628224Y-84981822D01*
X168627037Y-84980453D01*
X168627036Y-84980452D01*
X168627033Y-84980449D01*
X168582170Y-84941593D01*
X168582165Y-84941589D01*
X168582161Y-84941586D01*
X168528346Y-84907012D01*
X168523409Y-84903840D01*
X168523404Y-84903838D01*
X168503815Y-84894894D01*
X168469404Y-84879182D01*
X168469399Y-84879180D01*
X168469398Y-84879180D01*
X168469396Y-84879179D01*
X168454415Y-84874779D01*
X168425314Y-84868448D01*
X168390377Y-84863424D01*
X168368095Y-84861831D01*
X168360670Y-84861300D01*
X168360668Y-84861300D01*
X166382266Y-84861300D01*
X166294535Y-84841276D01*
X166224180Y-84785170D01*
X166185136Y-84704094D01*
X166185136Y-84614106D01*
X166224180Y-84533030D01*
X166239289Y-84516123D01*
X166248539Y-84506873D01*
X166259154Y-84495433D01*
X166302555Y-84413316D01*
X166322839Y-84337616D01*
X166329950Y-84283600D01*
X166329950Y-81252650D01*
X166322839Y-81198634D01*
X166302555Y-81122934D01*
X166297954Y-81108021D01*
X166248539Y-81029377D01*
X166193123Y-80973961D01*
X166181683Y-80963346D01*
X166158789Y-80951246D01*
X166099571Y-80919947D01*
X166099563Y-80919944D01*
X166023870Y-80899662D01*
X166023863Y-80899660D01*
X165969852Y-80892550D01*
X165969850Y-80892550D01*
X165822055Y-80892550D01*
X165734324Y-80872526D01*
X165701983Y-80853038D01*
X165662567Y-80823947D01*
X165662557Y-80823941D01*
X165639395Y-80806846D01*
X165510302Y-80761674D01*
X165510291Y-80761673D01*
X165504171Y-80761099D01*
X165504169Y-80761098D01*
X165479658Y-80758800D01*
X165479653Y-80758800D01*
X165479649Y-80758800D01*
X162520359Y-80758800D01*
X162520354Y-80758800D01*
X162520353Y-80758800D01*
X162514809Y-80759259D01*
X162513131Y-80759477D01*
X162494063Y-80761264D01*
X162489701Y-80761673D01*
X162360602Y-80806846D01*
X162250563Y-80888059D01*
X162250560Y-80888062D01*
X162169346Y-80998103D01*
X162124174Y-81127196D01*
X162123563Y-81130790D01*
X162123291Y-81136615D01*
X162121597Y-81154687D01*
X162121593Y-81154731D01*
X162121300Y-81157849D01*
X162121300Y-81992142D01*
X162121363Y-81993165D01*
X162121590Y-81995243D01*
X162123594Y-82016613D01*
X162124174Y-82022801D01*
X162169346Y-82151895D01*
X162178430Y-82164204D01*
X162250562Y-82261938D01*
X162360605Y-82343154D01*
X162489699Y-82388326D01*
X162520347Y-82391200D01*
X163329100Y-82391199D01*
X163416831Y-82411223D01*
X163487186Y-82467329D01*
X163526230Y-82548405D01*
X163531300Y-82593399D01*
X163531300Y-82953187D01*
X163511276Y-83040918D01*
X163472077Y-83096164D01*
X162513873Y-84054367D01*
X162478471Y-84082599D01*
X162455623Y-84096955D01*
X162381938Y-84125086D01*
X162374458Y-84126357D01*
X162371617Y-84126840D01*
X162337731Y-84129700D01*
X158277393Y-84129700D01*
X158189662Y-84109676D01*
X158119307Y-84053570D01*
X158080263Y-83972494D01*
X158075193Y-83927508D01*
X158074986Y-78669525D01*
X158074876Y-75888540D01*
X164299501Y-75888540D01*
X164299501Y-75895523D01*
X164299501Y-76111463D01*
X164328592Y-76332442D01*
X164328599Y-76332474D01*
X164328689Y-76332807D01*
X164382355Y-76533095D01*
X164386290Y-76547780D01*
X164386297Y-76547800D01*
X164471598Y-76753734D01*
X164583040Y-76946756D01*
X164583047Y-76946767D01*
X164718130Y-77122812D01*
X164718720Y-77123590D01*
X164876383Y-77281253D01*
X164876439Y-77281302D01*
X164877198Y-77281878D01*
X165053220Y-77416943D01*
X165053225Y-77416948D01*
X165053243Y-77416959D01*
X165246265Y-77528401D01*
X165288931Y-77546074D01*
X165452213Y-77613708D01*
X165452220Y-77613710D01*
X165648319Y-77666254D01*
X165659022Y-77670282D01*
X165667533Y-77671402D01*
X165667538Y-77671404D01*
X165667542Y-77671404D01*
X165667544Y-77671404D01*
X165667545Y-77671405D01*
X165673532Y-77672193D01*
X165680663Y-77673132D01*
X165680669Y-77673132D01*
X165692905Y-77674743D01*
X165888544Y-77700500D01*
X165888545Y-77700500D01*
X166111457Y-77700500D01*
X166111458Y-77700500D01*
X166332464Y-77671404D01*
X166546191Y-77614136D01*
X166548025Y-77613661D01*
X166550657Y-77612617D01*
X166551442Y-77612318D01*
X166554387Y-77610974D01*
X166668425Y-77563738D01*
X166741503Y-77533468D01*
X166751391Y-77530111D01*
X166759440Y-77525106D01*
X166941551Y-77419964D01*
X166944679Y-77418282D01*
X166946505Y-77417184D01*
X166948307Y-77415772D01*
X167123625Y-77281247D01*
X167281248Y-77123624D01*
X167415774Y-76948305D01*
X167417182Y-76946507D01*
X167418280Y-76944680D01*
X167419950Y-76941576D01*
X167528404Y-76753730D01*
X167546013Y-76711220D01*
X167613711Y-76547781D01*
X167671405Y-76332463D01*
X167700501Y-76111457D01*
X167700501Y-75888543D01*
X167671405Y-75667537D01*
X167613711Y-75452219D01*
X167613709Y-75452212D01*
X167528404Y-75246269D01*
X167528402Y-75246264D01*
X167416960Y-75053242D01*
X167416953Y-75053231D01*
X167388577Y-75016250D01*
X167281258Y-74876388D01*
X167281255Y-74876384D01*
X167281250Y-74876378D01*
X167123621Y-74718749D01*
X166946768Y-74583046D01*
X166946757Y-74583039D01*
X166753735Y-74471597D01*
X166547801Y-74386296D01*
X166547794Y-74386293D01*
X166547788Y-74386291D01*
X166547781Y-74386289D01*
X166456782Y-74361906D01*
X166377973Y-74340789D01*
X166357919Y-74335416D01*
X166337604Y-74329973D01*
X166333584Y-74328782D01*
X166332456Y-74328594D01*
X166111462Y-74299500D01*
X166111460Y-74299500D01*
X166111458Y-74299500D01*
X165888544Y-74299500D01*
X165888541Y-74299500D01*
X165888536Y-74299500D01*
X165667557Y-74328591D01*
X165667520Y-74328599D01*
X165667102Y-74328712D01*
X165666844Y-74328782D01*
X165452219Y-74386289D01*
X165452199Y-74386296D01*
X165246265Y-74471597D01*
X165053243Y-74583039D01*
X165053232Y-74583046D01*
X164876379Y-74718749D01*
X164718750Y-74876378D01*
X164583047Y-75053231D01*
X164583040Y-75053242D01*
X164471598Y-75246264D01*
X164386297Y-75452198D01*
X164386292Y-75452210D01*
X164386292Y-75452212D01*
X164386290Y-75452219D01*
X164328598Y-75667533D01*
X164328595Y-75667544D01*
X164299501Y-75888540D01*
X158074876Y-75888540D01*
X158074876Y-75881929D01*
X158074818Y-74426385D01*
X158074817Y-74426379D01*
X158067705Y-74372369D01*
X158047421Y-74296674D01*
X158042824Y-74281774D01*
X158042822Y-74281769D01*
X158027390Y-74257209D01*
X157993408Y-74203127D01*
X157937992Y-74147711D01*
X157926552Y-74137096D01*
X157919854Y-74133556D01*
X157844440Y-74093697D01*
X157844432Y-74093694D01*
X157768739Y-74073412D01*
X157768732Y-74073410D01*
X157714721Y-74066300D01*
X157714719Y-74066300D01*
X154073614Y-74066300D01*
X153985883Y-74046276D01*
X153915528Y-73990170D01*
X153876484Y-73909094D01*
X153876484Y-73819106D01*
X153915528Y-73738030D01*
X153930637Y-73721123D01*
X154107381Y-73544378D01*
X154142772Y-73516155D01*
X154165630Y-73501792D01*
X154239334Y-73473660D01*
X154249652Y-73471907D01*
X154283520Y-73469050D01*
X154407137Y-73469050D01*
X154452131Y-73474120D01*
X154478436Y-73480124D01*
X154550445Y-73512345D01*
X154575743Y-73530294D01*
X154575850Y-73530373D01*
X154575895Y-73530402D01*
X154595021Y-73543972D01*
X154620205Y-73554965D01*
X154674878Y-73586531D01*
X154674880Y-73586532D01*
X154732487Y-73601967D01*
X154732573Y-73601990D01*
X154790269Y-73617450D01*
X154790271Y-73617450D01*
X154909729Y-73617450D01*
X154909731Y-73617450D01*
X155025122Y-73586531D01*
X155128578Y-73526800D01*
X155213050Y-73442328D01*
X155272781Y-73338872D01*
X155303700Y-73223481D01*
X155303700Y-73104019D01*
X155272781Y-72988628D01*
X155213050Y-72885172D01*
X155128578Y-72800700D01*
X155025122Y-72740969D01*
X155025120Y-72740968D01*
X155025117Y-72740966D01*
X154909735Y-72710050D01*
X154909733Y-72710050D01*
X154909731Y-72710050D01*
X154790269Y-72710050D01*
X154790266Y-72710050D01*
X154790263Y-72710050D01*
X154674879Y-72740967D01*
X154623841Y-72770434D01*
X154613772Y-72773539D01*
X154530755Y-72825704D01*
X154457054Y-72853839D01*
X154446739Y-72855592D01*
X154412862Y-72858450D01*
X154016051Y-72858450D01*
X153938446Y-72879244D01*
X153938412Y-72879254D01*
X153938411Y-72879255D01*
X153938408Y-72879256D01*
X153938407Y-72879256D01*
X153868790Y-72919448D01*
X152383202Y-74405037D01*
X152383197Y-74405044D01*
X152375678Y-74418069D01*
X152375675Y-74418073D01*
X152359494Y-74446100D01*
X152359489Y-74446109D01*
X152349040Y-74464203D01*
X152349041Y-74464204D01*
X152343007Y-74474654D01*
X152343004Y-74474662D01*
X152322200Y-74552303D01*
X152322200Y-80550756D01*
X152317130Y-80595750D01*
X152311126Y-80622055D01*
X152278896Y-80694077D01*
X152272838Y-80702614D01*
X152250915Y-80728575D01*
X148448873Y-84530617D01*
X148413471Y-84558849D01*
X148390623Y-84573205D01*
X148316938Y-84601336D01*
X148309458Y-84602607D01*
X148306617Y-84603090D01*
X148272731Y-84605950D01*
X143622431Y-84605950D01*
X143577437Y-84600880D01*
X143558164Y-84596481D01*
X143477088Y-84557437D01*
X143420983Y-84487083D01*
X143417467Y-84479781D01*
X143404251Y-84444066D01*
X143400334Y-84429349D01*
X143397450Y-84403750D01*
X143397450Y-84298124D01*
X143397449Y-84298119D01*
X143387202Y-84259878D01*
X143366531Y-84182731D01*
X143309497Y-84083947D01*
X143296575Y-84042056D01*
X143289853Y-83952324D01*
X143291606Y-83940695D01*
X143316438Y-83869733D01*
X143366531Y-83782972D01*
X143397450Y-83667581D01*
X143397450Y-83548119D01*
X143366531Y-83432728D01*
X143309817Y-83334499D01*
X143304084Y-83323842D01*
X143302479Y-83320632D01*
X143302561Y-83320590D01*
X143297632Y-83311452D01*
X143286584Y-83287369D01*
X143268209Y-83199279D01*
X143289870Y-83111946D01*
X143295716Y-83100366D01*
X143333237Y-83048520D01*
X143448994Y-82932764D01*
X143743675Y-82638084D01*
X143783869Y-82568467D01*
X143803403Y-82495564D01*
X143804675Y-82490818D01*
X143804675Y-81644326D01*
X143809743Y-81599339D01*
X143815749Y-81573023D01*
X143847967Y-81501019D01*
X143855026Y-81491072D01*
X143855025Y-81491071D01*
X143865902Y-81475741D01*
X143866002Y-81475606D01*
X143866032Y-81475559D01*
X143879633Y-81456389D01*
X143890615Y-81431215D01*
X143922156Y-81376586D01*
X143953075Y-81261195D01*
X143953075Y-81141733D01*
X143930023Y-81055701D01*
X143922157Y-81026345D01*
X143922156Y-81026344D01*
X143922156Y-81026342D01*
X143862425Y-80922886D01*
X143777953Y-80838414D01*
X143674497Y-80778683D01*
X143674495Y-80778682D01*
X143674492Y-80778680D01*
X143559110Y-80747764D01*
X143559108Y-80747764D01*
X143559106Y-80747764D01*
X143439644Y-80747764D01*
X143439641Y-80747764D01*
X143439638Y-80747764D01*
X143324262Y-80778679D01*
X143324259Y-80778680D01*
X143324256Y-80778681D01*
X143248517Y-80822409D01*
X143220793Y-80838416D01*
X143136327Y-80922882D01*
X143136326Y-80922884D01*
X143076592Y-81026345D01*
X143076591Y-81026348D01*
X143076590Y-81026351D01*
X143045675Y-81141727D01*
X143045675Y-81261199D01*
X143076591Y-81376581D01*
X143076592Y-81376582D01*
X143076596Y-81376591D01*
X143106044Y-81427594D01*
X143109152Y-81437669D01*
X143161328Y-81520707D01*
X143189461Y-81594397D01*
X143191215Y-81604715D01*
X143194075Y-81638602D01*
X143194075Y-81933195D01*
X143189006Y-81978184D01*
X143185821Y-81992142D01*
X143184964Y-81995895D01*
X143145922Y-82076972D01*
X143075568Y-82133080D01*
X142987838Y-82153106D01*
X142985140Y-82153106D01*
X142911250Y-82139121D01*
X142904859Y-82136612D01*
X142877649Y-82123507D01*
X142801372Y-82079468D01*
X142801370Y-82079467D01*
X142685985Y-82048550D01*
X142685983Y-82048550D01*
X142685981Y-82048550D01*
X142566519Y-82048550D01*
X142566516Y-82048550D01*
X142566513Y-82048550D01*
X142451129Y-82079467D01*
X142400091Y-82108934D01*
X142390022Y-82112039D01*
X142307005Y-82164204D01*
X142233304Y-82192339D01*
X142222989Y-82194092D01*
X142189112Y-82196950D01*
X141012744Y-82196950D01*
X140967752Y-82191880D01*
X140952289Y-82188351D01*
X140871216Y-82149306D01*
X140815111Y-82078950D01*
X140795088Y-81991219D01*
X140815111Y-81903494D01*
X140818643Y-81896160D01*
X140857836Y-81840922D01*
X141511860Y-81186899D01*
X142203800Y-80494959D01*
X142243994Y-80425342D01*
X142248390Y-80408932D01*
X142264800Y-80347693D01*
X142264800Y-78950180D01*
X142269867Y-78905198D01*
X142274268Y-78885915D01*
X142313307Y-78804844D01*
X142383655Y-78748738D01*
X142390979Y-78745212D01*
X142478685Y-78725200D01*
X142527229Y-78725200D01*
X142527231Y-78725200D01*
X142642622Y-78694281D01*
X142746078Y-78634550D01*
X142830550Y-78550078D01*
X142890281Y-78446622D01*
X142921200Y-78331231D01*
X142921200Y-78211769D01*
X142890281Y-78096378D01*
X142860804Y-78045323D01*
X142857699Y-78035258D01*
X142823836Y-77981365D01*
X142805543Y-77952253D01*
X142777407Y-77878532D01*
X142775654Y-77868213D01*
X142772800Y-77834361D01*
X142772800Y-75171051D01*
X142777867Y-75126069D01*
X142783874Y-75099752D01*
X142816101Y-75027733D01*
X142822162Y-75019191D01*
X142844078Y-74993238D01*
X143459088Y-74378228D01*
X143494479Y-74350005D01*
X143517337Y-74335642D01*
X143591041Y-74307510D01*
X143601359Y-74305757D01*
X143635227Y-74302900D01*
X148490091Y-74302900D01*
X148490093Y-74302900D01*
X148567741Y-74282094D01*
X148610848Y-74257206D01*
X148637359Y-74241900D01*
X149369301Y-73509959D01*
X149409494Y-73440341D01*
X149419703Y-73402241D01*
X149430300Y-73362693D01*
X149430300Y-73174868D01*
X149435368Y-73129882D01*
X149440054Y-73109349D01*
X149479089Y-73028285D01*
X149485333Y-73020456D01*
X149551619Y-72966364D01*
X149552211Y-72966062D01*
X149594592Y-72950157D01*
X149612220Y-72945715D01*
X149702184Y-72943700D01*
X149784114Y-72980918D01*
X149841780Y-73049994D01*
X149844244Y-73054830D01*
X149864740Y-73121700D01*
X149864958Y-73123455D01*
X149866500Y-73148380D01*
X149866500Y-74940337D01*
X149861430Y-74985331D01*
X149855426Y-75011636D01*
X149823196Y-75083658D01*
X149817138Y-75092195D01*
X149795215Y-75118156D01*
X149030894Y-75882477D01*
X148995492Y-75910709D01*
X148972644Y-75925065D01*
X148898959Y-75953196D01*
X148891479Y-75954467D01*
X148888638Y-75954950D01*
X148854752Y-75957810D01*
X145013804Y-75957810D01*
X144987411Y-75956080D01*
X144961357Y-75952649D01*
X144935418Y-75947490D01*
X144921648Y-75943800D01*
X144921647Y-75943800D01*
X144775848Y-75943800D01*
X144635027Y-75981533D01*
X144508773Y-76054426D01*
X144508768Y-76054430D01*
X144405680Y-76157518D01*
X144405676Y-76157523D01*
X144332783Y-76283777D01*
X144295050Y-76424598D01*
X144295050Y-76570400D01*
X144332782Y-76711217D01*
X144332783Y-76711221D01*
X144405676Y-76837475D01*
X144405678Y-76837478D01*
X144405679Y-76837479D01*
X144508770Y-76940570D01*
X144508771Y-76940571D01*
X144508773Y-76940572D01*
X144632867Y-77012218D01*
X144635027Y-77013465D01*
X144635029Y-77013466D01*
X144645140Y-77016175D01*
X144655341Y-77018909D01*
X144655371Y-77018916D01*
X144655399Y-77018924D01*
X144775854Y-77051200D01*
X144775856Y-77051200D01*
X144921644Y-77051200D01*
X144921646Y-77051200D01*
X145062470Y-77013466D01*
X145062472Y-77013465D01*
X145062738Y-77013311D01*
X145062846Y-77013264D01*
X145065140Y-77012030D01*
X145065241Y-77012218D01*
X145104263Y-76995187D01*
X145141209Y-76983791D01*
X145200801Y-76974810D01*
X145757569Y-76974810D01*
X145802552Y-76979877D01*
X145821832Y-76984278D01*
X145902905Y-77023317D01*
X145959014Y-77093670D01*
X145959014Y-77093672D01*
X145962523Y-77100958D01*
X145982550Y-77188688D01*
X145982550Y-77234245D01*
X146004893Y-77317630D01*
X146013467Y-77349628D01*
X146013468Y-77349630D01*
X146013469Y-77349632D01*
X146039022Y-77393890D01*
X146042921Y-77400643D01*
X146046028Y-77410718D01*
X146098203Y-77493753D01*
X146126336Y-77567443D01*
X146128090Y-77577761D01*
X146130950Y-77611648D01*
X146130950Y-78435887D01*
X146125880Y-78480883D01*
X146119876Y-78507187D01*
X146087652Y-78579199D01*
X146056003Y-78623802D01*
X146045012Y-78648994D01*
X146013467Y-78703630D01*
X145982550Y-78819013D01*
X145982550Y-78938485D01*
X146013466Y-79053867D01*
X146019457Y-79064243D01*
X146073200Y-79157328D01*
X146157672Y-79241800D01*
X146261128Y-79301531D01*
X146263360Y-79302129D01*
X146288404Y-79310630D01*
X146336447Y-79330529D01*
X146363038Y-79334798D01*
X146365650Y-79334798D01*
X146370443Y-79335986D01*
X146370911Y-79336061D01*
X146372987Y-79336618D01*
X146396057Y-79342800D01*
X146396059Y-79342800D01*
X146476441Y-79342800D01*
X146476443Y-79342800D01*
X146501552Y-79336071D01*
X146524768Y-79335202D01*
X146566710Y-79317829D01*
X146566711Y-79317830D01*
X146584093Y-79310630D01*
X146609135Y-79302130D01*
X146611372Y-79301531D01*
X146714828Y-79241800D01*
X146799300Y-79157328D01*
X146809048Y-79140442D01*
X146835930Y-79104016D01*
X146845521Y-79093680D01*
X146919868Y-79042991D01*
X147008850Y-79029578D01*
X147094840Y-79056102D01*
X147160806Y-79117309D01*
X147192414Y-79193611D01*
X147194223Y-79203169D01*
X147197750Y-79240771D01*
X147197750Y-79753744D01*
X147196020Y-79780140D01*
X147192590Y-79806190D01*
X147187430Y-79832128D01*
X147152550Y-79962300D01*
X147152550Y-80108100D01*
X147190283Y-80248921D01*
X147263176Y-80375175D01*
X147263178Y-80375178D01*
X147263179Y-80375179D01*
X147366270Y-80478270D01*
X147366271Y-80478271D01*
X147366273Y-80478272D01*
X147492525Y-80551164D01*
X147492527Y-80551165D01*
X147492529Y-80551166D01*
X147561690Y-80569697D01*
X147573811Y-80572945D01*
X147573829Y-80572949D01*
X147573834Y-80572951D01*
X147633354Y-80588900D01*
X147633356Y-80588900D01*
X147779144Y-80588900D01*
X147779146Y-80588900D01*
X147919970Y-80551166D01*
X147919974Y-80551164D01*
X147946652Y-80535760D01*
X148046230Y-80478270D01*
X148149320Y-80375180D01*
X148222216Y-80248920D01*
X148259950Y-80108096D01*
X148259950Y-79962304D01*
X148225070Y-79832130D01*
X148219910Y-79806190D01*
X148216480Y-79780137D01*
X148214750Y-79753744D01*
X148214750Y-77199790D01*
X148219817Y-77154808D01*
X148224218Y-77135525D01*
X148263257Y-77054454D01*
X148333605Y-76998348D01*
X148340929Y-76994822D01*
X148428635Y-76974810D01*
X149233131Y-76974810D01*
X149233135Y-76974810D01*
X149362464Y-76940157D01*
X149478417Y-76873211D01*
X150781901Y-75569727D01*
X150848847Y-75453774D01*
X150852613Y-75439719D01*
X150883500Y-75324445D01*
X150883500Y-72983834D01*
X150888568Y-72938847D01*
X150897990Y-72897568D01*
X150914952Y-72850781D01*
X150929671Y-72821894D01*
X150963727Y-72755055D01*
X150978700Y-72660520D01*
X150978700Y-71396980D01*
X150963727Y-71302445D01*
X150905671Y-71188503D01*
X150815247Y-71098079D01*
X150815246Y-71098078D01*
X150815245Y-71098077D01*
X150701306Y-71040023D01*
X150701300Y-71040022D01*
X150682398Y-71037028D01*
X150606770Y-71025050D01*
X150606766Y-71025050D01*
X150143233Y-71025050D01*
X150143230Y-71025050D01*
X150105415Y-71031039D01*
X150080204Y-71035032D01*
X150080203Y-71035031D01*
X150048698Y-71040022D01*
X150048696Y-71040022D01*
X150048693Y-71040023D01*
X150048691Y-71040023D01*
X150048691Y-71040024D01*
X149934753Y-71098077D01*
X149934752Y-71098078D01*
X149909085Y-71123746D01*
X149873686Y-71151976D01*
X149856947Y-71162494D01*
X149772010Y-71192215D01*
X149682590Y-71182141D01*
X149674951Y-71179468D01*
X149598762Y-71131594D01*
X149565245Y-71098077D01*
X149451306Y-71040023D01*
X149451300Y-71040022D01*
X149432398Y-71037028D01*
X149356770Y-71025050D01*
X149356766Y-71025050D01*
X148893233Y-71025050D01*
X148893230Y-71025050D01*
X148855415Y-71031039D01*
X148830204Y-71035032D01*
X148830203Y-71035031D01*
X148798698Y-71040022D01*
X148798696Y-71040022D01*
X148798693Y-71040023D01*
X148798691Y-71040023D01*
X148798691Y-71040024D01*
X148684753Y-71098077D01*
X148684752Y-71098078D01*
X148659085Y-71123746D01*
X148623686Y-71151976D01*
X148606947Y-71162494D01*
X148522010Y-71192215D01*
X148432590Y-71182141D01*
X148424951Y-71179468D01*
X148348762Y-71131594D01*
X148315245Y-71098077D01*
X148201306Y-71040023D01*
X148201300Y-71040022D01*
X148182398Y-71037028D01*
X148106770Y-71025050D01*
X148106766Y-71025050D01*
X147643233Y-71025050D01*
X147643230Y-71025050D01*
X147605415Y-71031039D01*
X147580204Y-71035032D01*
X147580203Y-71035031D01*
X147548698Y-71040022D01*
X147548696Y-71040022D01*
X147548693Y-71040023D01*
X147548691Y-71040023D01*
X147548691Y-71040024D01*
X147434753Y-71098077D01*
X147434752Y-71098078D01*
X147409085Y-71123746D01*
X147373686Y-71151976D01*
X147356947Y-71162494D01*
X147272010Y-71192215D01*
X147182590Y-71182141D01*
X147174951Y-71179468D01*
X147098762Y-71131594D01*
X147065245Y-71098077D01*
X146951306Y-71040023D01*
X146951300Y-71040022D01*
X146932398Y-71037028D01*
X146856770Y-71025050D01*
X146856766Y-71025050D01*
X146393233Y-71025050D01*
X146393230Y-71025050D01*
X146355415Y-71031039D01*
X146330204Y-71035032D01*
X146330203Y-71035031D01*
X146298698Y-71040022D01*
X146298696Y-71040022D01*
X146298693Y-71040023D01*
X146298691Y-71040023D01*
X146298691Y-71040024D01*
X146184753Y-71098077D01*
X146184752Y-71098078D01*
X146159085Y-71123746D01*
X146123686Y-71151976D01*
X146106947Y-71162494D01*
X146022010Y-71192215D01*
X145932590Y-71182141D01*
X145924951Y-71179468D01*
X145848762Y-71131594D01*
X145815245Y-71098077D01*
X145701306Y-71040023D01*
X145701300Y-71040022D01*
X145682398Y-71037028D01*
X145606770Y-71025050D01*
X145606766Y-71025050D01*
X145143233Y-71025050D01*
X145143230Y-71025050D01*
X145105415Y-71031039D01*
X145080204Y-71035032D01*
X145080203Y-71035031D01*
X145048698Y-71040022D01*
X145048696Y-71040022D01*
X145048693Y-71040023D01*
X145048691Y-71040023D01*
X145048691Y-71040024D01*
X144934752Y-71098078D01*
X144844328Y-71188502D01*
X144786273Y-71302442D01*
X144784409Y-71310203D01*
X144783784Y-71318159D01*
X144771300Y-71396983D01*
X144771300Y-71522219D01*
X144766230Y-71567210D01*
X144761831Y-71586488D01*
X144722786Y-71667563D01*
X144652437Y-71723664D01*
X144645151Y-71727173D01*
X144557421Y-71747200D01*
X143697302Y-71747200D01*
X143640462Y-71762430D01*
X143640463Y-71762431D01*
X143619662Y-71768004D01*
X143619653Y-71768008D01*
X143619650Y-71768009D01*
X143550043Y-71808198D01*
X143550037Y-71808202D01*
X142067286Y-73290954D01*
X142031881Y-73319187D01*
X142018456Y-73327622D01*
X141933518Y-73357341D01*
X141844097Y-73347263D01*
X141767903Y-73299385D01*
X141720031Y-73223192D01*
X141717339Y-73215501D01*
X141706000Y-73148739D01*
X141706000Y-72492706D01*
X141707730Y-72466315D01*
X141711160Y-72440260D01*
X141716319Y-72414322D01*
X141745900Y-72303924D01*
X141747568Y-72299528D01*
X141751200Y-72284146D01*
X141751200Y-72138356D01*
X141751200Y-72138354D01*
X141714240Y-72000421D01*
X141713558Y-71997714D01*
X141713465Y-71997527D01*
X141640570Y-71871270D01*
X141537479Y-71768179D01*
X141537478Y-71768178D01*
X141537475Y-71768176D01*
X141411221Y-71695283D01*
X141270400Y-71657550D01*
X141270398Y-71657550D01*
X141270396Y-71657550D01*
X141124604Y-71657550D01*
X141124601Y-71657550D01*
X141124598Y-71657550D01*
X140983777Y-71695283D01*
X140857523Y-71768176D01*
X140857518Y-71768180D01*
X140754430Y-71871268D01*
X140754426Y-71871273D01*
X140681533Y-71997527D01*
X140643800Y-72138348D01*
X140643800Y-72284152D01*
X140678679Y-72414322D01*
X140683838Y-72440253D01*
X140687269Y-72466305D01*
X140689000Y-72492706D01*
X140689000Y-73322837D01*
X140683930Y-73367831D01*
X140677926Y-73394136D01*
X140645696Y-73466158D01*
X140639638Y-73474695D01*
X140617715Y-73500656D01*
X139347401Y-74770970D01*
X139347393Y-74770979D01*
X139347392Y-74770982D01*
X139294998Y-74861731D01*
X139294997Y-74861733D01*
X139280454Y-74886921D01*
X139280453Y-74886923D01*
X139280452Y-74886926D01*
X139251708Y-74994205D01*
X139245801Y-75016250D01*
X139245800Y-75016257D01*
X139245800Y-78290743D01*
X139240730Y-78335737D01*
X139234726Y-78362042D01*
X139202496Y-78434064D01*
X139196438Y-78442601D01*
X139174515Y-78468562D01*
X134585660Y-83057417D01*
X134550258Y-83085649D01*
X134527410Y-83100005D01*
X134453725Y-83128136D01*
X134446245Y-83129407D01*
X134443404Y-83129890D01*
X134409518Y-83132750D01*
X127986508Y-83132750D01*
X127971122Y-83136382D01*
X127966729Y-83138049D01*
X127857181Y-83167402D01*
X127857180Y-83167401D01*
X127857180Y-83167402D01*
X127741239Y-83234340D01*
X127741226Y-83234350D01*
X126375100Y-84600476D01*
X126375095Y-84600482D01*
X126309695Y-84713760D01*
X126309684Y-84713777D01*
X126308155Y-84716423D01*
X126301265Y-84742130D01*
X126301263Y-84742146D01*
X126273501Y-84845756D01*
X126273500Y-84845763D01*
X126273500Y-87869145D01*
X126276930Y-87879251D01*
X126308151Y-87995771D01*
X126308152Y-87995774D01*
X126375090Y-88111715D01*
X126375100Y-88111728D01*
X127145164Y-88881792D01*
X127162605Y-88901680D01*
X127178607Y-88922535D01*
X127193299Y-88944524D01*
X127259082Y-89058463D01*
X127260679Y-89061229D01*
X127363770Y-89164320D01*
X127363771Y-89164321D01*
X127363773Y-89164322D01*
X127488631Y-89236409D01*
X127490027Y-89237215D01*
X127490029Y-89237216D01*
X127517807Y-89244659D01*
X127630854Y-89274950D01*
X127630856Y-89274950D01*
X127776644Y-89274950D01*
X127776646Y-89274950D01*
X127917470Y-89237216D01*
X127918846Y-89236422D01*
X127966856Y-89208703D01*
X128043730Y-89164320D01*
X128146820Y-89061230D01*
X128219716Y-88934970D01*
X128257450Y-88794146D01*
X128257450Y-88794143D01*
X128257925Y-88792371D01*
X128263658Y-88774381D01*
X128272869Y-88749553D01*
X128322159Y-88674268D01*
X128399231Y-88627824D01*
X128400592Y-88627376D01*
X128480702Y-88617983D01*
X128492922Y-88619013D01*
X128528260Y-88625187D01*
X128583354Y-88639950D01*
X128583356Y-88639950D01*
X128729144Y-88639950D01*
X128729146Y-88639950D01*
X128869970Y-88602216D01*
X128883226Y-88594563D01*
X128925945Y-88569899D01*
X128996230Y-88529320D01*
X129099320Y-88426230D01*
X129156808Y-88326654D01*
X129156810Y-88326653D01*
X129162845Y-88316200D01*
X129172215Y-88299972D01*
X129172216Y-88299970D01*
X129178101Y-88278006D01*
X129209950Y-88159146D01*
X129209950Y-88013354D01*
X129189938Y-87938670D01*
X129189937Y-87938668D01*
X129180903Y-87904950D01*
X129172216Y-87872529D01*
X129172215Y-87872527D01*
X129171173Y-87870722D01*
X129099322Y-87746273D01*
X129099318Y-87746268D01*
X128996228Y-87643178D01*
X128879521Y-87575797D01*
X128857532Y-87561105D01*
X128836677Y-87545103D01*
X128816789Y-87527662D01*
X128285304Y-86996177D01*
X128278813Y-86985846D01*
X128269327Y-86978174D01*
X128257076Y-86960780D01*
X128248385Y-86946949D01*
X128240858Y-86925442D01*
X128237428Y-86919982D01*
X128236706Y-86913575D01*
X128218662Y-86862012D01*
X128228735Y-86772591D01*
X128276610Y-86696395D01*
X128351026Y-86649148D01*
X128365255Y-86644020D01*
X128385850Y-86639014D01*
X128385680Y-86638380D01*
X128398480Y-86634950D01*
X128398481Y-86634950D01*
X128513872Y-86604031D01*
X128617328Y-86544300D01*
X128617331Y-86544297D01*
X128627844Y-86536231D01*
X128628884Y-86537586D01*
X128657996Y-86519293D01*
X128674882Y-86512848D01*
X128689417Y-86505972D01*
X128697679Y-86504146D01*
X128731700Y-86491160D01*
X128742017Y-86489407D01*
X128775888Y-86486550D01*
X134312268Y-86486550D01*
X134357250Y-86491617D01*
X134372715Y-86495147D01*
X134453788Y-86534187D01*
X134509896Y-86604540D01*
X134529923Y-86692271D01*
X134509902Y-86780003D01*
X134509899Y-86780008D01*
X134506371Y-86787334D01*
X134467172Y-86842580D01*
X128253200Y-93056553D01*
X128249257Y-93063383D01*
X128243292Y-93073717D01*
X128243291Y-93073718D01*
X128243290Y-93073719D01*
X128217816Y-93117842D01*
X128217815Y-93117844D01*
X128213006Y-93126171D01*
X128213006Y-93126173D01*
X128213004Y-93126179D01*
X128206760Y-93149481D01*
X128192200Y-93203819D01*
X128192200Y-98203089D01*
X128187131Y-98248078D01*
X128183089Y-98265789D01*
X128144047Y-98346866D01*
X128073693Y-98402974D01*
X127985963Y-98423000D01*
X127983175Y-98423000D01*
X127909463Y-98409085D01*
X127882335Y-98398464D01*
X127845114Y-98392689D01*
X127783502Y-98376181D01*
X127773394Y-98372750D01*
X127770698Y-98372750D01*
X127770695Y-98372750D01*
X127636805Y-98372750D01*
X127636802Y-98372750D01*
X127621416Y-98376382D01*
X127617023Y-98378049D01*
X127507493Y-98407397D01*
X127507478Y-98407402D01*
X127507465Y-98407408D01*
X127480464Y-98422998D01*
X127480463Y-98422999D01*
X127391521Y-98474350D01*
X127324399Y-98541473D01*
X127309898Y-98554633D01*
X127274613Y-98583667D01*
X127194145Y-98623948D01*
X127104168Y-98625326D01*
X127022503Y-98587529D01*
X126965330Y-98518049D01*
X126963769Y-98514931D01*
X126943817Y-98448500D01*
X126943689Y-98447433D01*
X126942250Y-98423349D01*
X126942250Y-94381456D01*
X126943978Y-94355075D01*
X126947412Y-94328992D01*
X126952569Y-94303072D01*
X126974667Y-94220601D01*
X126987450Y-94172896D01*
X126987450Y-94027104D01*
X126950490Y-93889171D01*
X126949808Y-93886464D01*
X126949715Y-93886277D01*
X126918457Y-93832137D01*
X126876822Y-93760023D01*
X126876818Y-93760018D01*
X126773730Y-93656930D01*
X126773725Y-93656926D01*
X126647471Y-93584033D01*
X126506650Y-93546300D01*
X126506648Y-93546300D01*
X126506646Y-93546300D01*
X126360854Y-93546300D01*
X126360851Y-93546300D01*
X126360848Y-93546300D01*
X126220027Y-93584033D01*
X126093773Y-93656926D01*
X126093768Y-93656930D01*
X125990680Y-93760018D01*
X125990676Y-93760023D01*
X125917783Y-93886277D01*
X125880050Y-94027098D01*
X125880050Y-94172902D01*
X125914929Y-94303072D01*
X125920088Y-94329003D01*
X125923519Y-94355055D01*
X125925250Y-94381456D01*
X125925250Y-98599794D01*
X125923520Y-98626190D01*
X125920090Y-98652240D01*
X125914930Y-98678178D01*
X125880050Y-98808350D01*
X125880050Y-98954150D01*
X125917783Y-99094971D01*
X125990676Y-99221225D01*
X125990678Y-99221228D01*
X125990679Y-99221229D01*
X126093770Y-99324320D01*
X126093771Y-99324321D01*
X126093773Y-99324322D01*
X126220025Y-99397214D01*
X126220027Y-99397215D01*
X126220029Y-99397216D01*
X126289190Y-99415747D01*
X126301311Y-99418995D01*
X126301329Y-99418999D01*
X126301334Y-99419001D01*
X126360854Y-99434950D01*
X126360856Y-99434950D01*
X126506644Y-99434950D01*
X126506646Y-99434950D01*
X126647470Y-99397216D01*
X126647474Y-99397214D01*
X126697528Y-99368315D01*
X126773730Y-99324320D01*
X126833966Y-99264083D01*
X126869368Y-99235853D01*
X126882793Y-99227418D01*
X126967731Y-99197699D01*
X127057152Y-99207777D01*
X127133346Y-99255655D01*
X127181217Y-99331843D01*
X127183902Y-99339516D01*
X127195250Y-99406301D01*
X127195250Y-101104087D01*
X127190180Y-101149081D01*
X127184176Y-101175386D01*
X127151946Y-101247408D01*
X127145888Y-101255945D01*
X127123965Y-101281906D01*
X126298454Y-102107417D01*
X126263052Y-102135649D01*
X126240204Y-102150005D01*
X126166519Y-102178136D01*
X126159039Y-102179407D01*
X126156198Y-102179890D01*
X126122312Y-102182750D01*
X125573052Y-102182750D01*
X125557666Y-102186382D01*
X125553273Y-102188049D01*
X125443743Y-102217397D01*
X125443728Y-102217402D01*
X125443724Y-102217403D01*
X125421451Y-102230263D01*
X125404342Y-102240142D01*
X125385199Y-102251194D01*
X125327775Y-102284347D01*
X125327770Y-102284351D01*
X125233101Y-102379020D01*
X125232279Y-102380160D01*
X125230068Y-102384271D01*
X125167982Y-102491806D01*
X125167981Y-102491809D01*
X125166153Y-102494976D01*
X125166152Y-102494979D01*
X125166150Y-102494984D01*
X125133094Y-102618356D01*
X125131500Y-102624305D01*
X119338905Y-102624305D01*
X119158725Y-101705179D01*
X119158058Y-101701605D01*
X119158054Y-101701583D01*
X119157400Y-101697895D01*
X119156797Y-101694299D01*
X119122985Y-101480981D01*
X119087315Y-101255945D01*
X118988800Y-100634430D01*
X118988284Y-100630973D01*
X118987754Y-100627185D01*
X118987305Y-100623751D01*
X118857959Y-99558391D01*
X118857602Y-99554928D01*
X118857554Y-99554784D01*
X118857186Y-99551209D01*
X118856842Y-99547547D01*
X118851004Y-99478576D01*
X118837094Y-99314234D01*
X123529500Y-99314234D01*
X123529500Y-99325015D01*
X123529500Y-99468465D01*
X123532932Y-99478576D01*
X123561829Y-99586423D01*
X123561830Y-99586426D01*
X123568719Y-99612138D01*
X123641457Y-99738123D01*
X123643725Y-99742339D01*
X123644351Y-99743231D01*
X123751717Y-99850597D01*
X123752571Y-99851225D01*
X123756875Y-99853541D01*
X123882863Y-99926280D01*
X123882865Y-99926281D01*
X123882866Y-99926281D01*
X123882868Y-99926282D01*
X123916391Y-99935264D01*
X124029234Y-99965500D01*
X124029238Y-99965500D01*
X124180762Y-99965500D01*
X124180766Y-99965500D01*
X124327135Y-99926281D01*
X124327139Y-99926279D01*
X124458358Y-99850519D01*
X124458357Y-99850519D01*
X124458365Y-99850515D01*
X124565515Y-99743365D01*
X124641281Y-99612135D01*
X124680500Y-99465766D01*
X124680500Y-99314234D01*
X124641281Y-99167865D01*
X124641280Y-99167863D01*
X124641280Y-99167862D01*
X124599196Y-99094971D01*
X124565522Y-99036645D01*
X124565512Y-99036632D01*
X124458366Y-98929486D01*
X124458359Y-98929481D01*
X124458360Y-98929481D01*
X124458358Y-98929480D01*
X124327136Y-98853719D01*
X124327135Y-98853718D01*
X124327132Y-98853717D01*
X124193579Y-98817933D01*
X124183465Y-98814500D01*
X124180769Y-98814500D01*
X124180766Y-98814500D01*
X124029234Y-98814500D01*
X124029231Y-98814500D01*
X124013849Y-98818130D01*
X124009450Y-98819800D01*
X123934401Y-98839909D01*
X123908578Y-98846829D01*
X123908573Y-98846829D01*
X123882860Y-98853719D01*
X123751645Y-98929476D01*
X123751632Y-98929486D01*
X123644486Y-99036632D01*
X123644476Y-99036645D01*
X123568719Y-99167860D01*
X123561831Y-99193566D01*
X123561831Y-99193571D01*
X123558025Y-99207777D01*
X123554818Y-99219746D01*
X123529500Y-99314234D01*
X118837094Y-99314234D01*
X118766338Y-98478297D01*
X118766066Y-98474693D01*
X118765891Y-98472076D01*
X118765820Y-98471004D01*
X118765607Y-98467257D01*
X118765439Y-98463742D01*
X118765439Y-98463741D01*
X118714058Y-97395535D01*
X118713913Y-97391809D01*
X118713806Y-97388198D01*
X118713731Y-97384572D01*
X118713295Y-97347219D01*
X118701192Y-96311544D01*
X118701183Y-96308026D01*
X118701208Y-96304231D01*
X118701265Y-96300640D01*
X118727764Y-95227830D01*
X118727882Y-95224340D01*
X118728042Y-95220582D01*
X118728229Y-95217018D01*
X118729560Y-95195250D01*
X118793730Y-94145853D01*
X118793978Y-94142338D01*
X118794269Y-94138666D01*
X118794580Y-94135143D01*
X118853327Y-93534234D01*
X123529500Y-93534234D01*
X123529500Y-93540726D01*
X123529500Y-93688465D01*
X123532932Y-93698576D01*
X123561829Y-93806423D01*
X123561830Y-93806426D01*
X123568719Y-93832138D01*
X123641457Y-93958123D01*
X123643725Y-93962339D01*
X123644351Y-93963231D01*
X123751717Y-94070597D01*
X123752568Y-94071223D01*
X123756853Y-94073528D01*
X123874116Y-94141230D01*
X123882865Y-94146281D01*
X124029234Y-94185500D01*
X124029238Y-94185500D01*
X124180762Y-94185500D01*
X124180766Y-94185500D01*
X124327135Y-94146281D01*
X124335886Y-94141229D01*
X124453130Y-94073536D01*
X124462105Y-94068708D01*
X124467208Y-94065408D01*
X124507569Y-94042105D01*
X124521192Y-94010882D01*
X124540901Y-93987978D01*
X124565515Y-93963365D01*
X124624627Y-93860981D01*
X124641280Y-93832137D01*
X124641280Y-93832136D01*
X124641281Y-93832135D01*
X124680500Y-93685766D01*
X124680500Y-93534234D01*
X124641281Y-93387865D01*
X124641280Y-93387863D01*
X124641280Y-93387862D01*
X124618423Y-93348273D01*
X124565522Y-93256645D01*
X124565512Y-93256632D01*
X124458366Y-93149486D01*
X124458359Y-93149481D01*
X124458360Y-93149481D01*
X124458358Y-93149480D01*
X124327136Y-93073719D01*
X124327135Y-93073718D01*
X124327132Y-93073717D01*
X124193579Y-93037933D01*
X124183465Y-93034500D01*
X124180769Y-93034500D01*
X124180766Y-93034500D01*
X124029234Y-93034500D01*
X124029231Y-93034500D01*
X124013849Y-93038130D01*
X124009450Y-93039800D01*
X123934949Y-93059763D01*
X123908578Y-93066829D01*
X123908573Y-93066829D01*
X123882860Y-93073719D01*
X123751645Y-93149476D01*
X123751632Y-93149486D01*
X123644486Y-93256632D01*
X123644476Y-93256645D01*
X123568719Y-93387860D01*
X123568718Y-93387863D01*
X123568719Y-93387864D01*
X123538324Y-93501305D01*
X123532599Y-93522670D01*
X123529500Y-93534234D01*
X118853327Y-93534234D01*
X118899002Y-93067028D01*
X118899393Y-93063383D01*
X118899814Y-93059763D01*
X118900266Y-93056156D01*
X118903182Y-93034500D01*
X119043453Y-91992639D01*
X119043948Y-91989200D01*
X119044533Y-91985382D01*
X119045106Y-91981868D01*
X119054120Y-91929428D01*
X119131600Y-91478624D01*
X119226884Y-90924231D01*
X119227493Y-90920871D01*
X119228221Y-90917050D01*
X119228897Y-90913677D01*
X119449050Y-89863220D01*
X119449786Y-89859858D01*
X119450651Y-89856079D01*
X119451437Y-89852783D01*
X119709618Y-88811161D01*
X119710528Y-88807630D01*
X119710615Y-88807305D01*
X119711497Y-88804003D01*
X119712441Y-88800595D01*
X120008357Y-87768978D01*
X120009345Y-87765647D01*
X120010461Y-87762008D01*
X120011491Y-87758754D01*
X120344759Y-86738498D01*
X120345902Y-86735107D01*
X120347097Y-86731661D01*
X120348303Y-86728287D01*
X120361536Y-86692271D01*
X120718422Y-85720929D01*
X120719680Y-85717597D01*
X120721010Y-85714173D01*
X120722322Y-85710880D01*
X121128846Y-84717625D01*
X121130200Y-84714400D01*
X121131688Y-84710946D01*
X121133169Y-84707594D01*
X121133461Y-84706950D01*
X121575497Y-83729891D01*
X121577018Y-83726614D01*
X121578597Y-83723287D01*
X121580114Y-83720162D01*
X122057726Y-82759165D01*
X122059334Y-82756001D01*
X122061140Y-82752528D01*
X122062779Y-82749448D01*
X122575026Y-81806457D01*
X122576732Y-81803385D01*
X122578579Y-81800126D01*
X122580355Y-81797059D01*
X123126595Y-80873266D01*
X123128386Y-80870299D01*
X123130398Y-80867033D01*
X123132240Y-80864104D01*
X123711730Y-79960770D01*
X123713683Y-79957787D01*
X123715676Y-79954800D01*
X123717725Y-79951787D01*
X124329653Y-79070177D01*
X124331755Y-79067208D01*
X124331894Y-79067015D01*
X124333939Y-79064180D01*
X124335998Y-79061380D01*
X124979571Y-78202629D01*
X124981780Y-78199738D01*
X124984032Y-78196844D01*
X124986322Y-78193956D01*
X125065149Y-78096381D01*
X125660676Y-77359212D01*
X125662909Y-77356498D01*
X125665322Y-77353620D01*
X125667654Y-77350891D01*
X125690736Y-77324355D01*
X126371863Y-76541294D01*
X126374276Y-76538571D01*
X126376801Y-76535772D01*
X126379140Y-76533225D01*
X126412765Y-76497297D01*
X126982469Y-75888540D01*
X129299501Y-75888540D01*
X129299501Y-75895523D01*
X129299501Y-76111463D01*
X129328592Y-76332442D01*
X129328599Y-76332474D01*
X129328689Y-76332807D01*
X129382355Y-76533095D01*
X129386290Y-76547780D01*
X129386297Y-76547800D01*
X129471598Y-76753734D01*
X129583040Y-76946756D01*
X129583047Y-76946767D01*
X129718130Y-77122812D01*
X129718720Y-77123590D01*
X129876383Y-77281253D01*
X129876439Y-77281302D01*
X129877198Y-77281878D01*
X130053220Y-77416943D01*
X130053225Y-77416948D01*
X130053243Y-77416959D01*
X130246265Y-77528401D01*
X130288931Y-77546074D01*
X130452213Y-77613708D01*
X130452220Y-77613710D01*
X130648319Y-77666254D01*
X130659022Y-77670282D01*
X130667533Y-77671402D01*
X130667538Y-77671404D01*
X130667542Y-77671404D01*
X130667544Y-77671404D01*
X130667545Y-77671405D01*
X130673532Y-77672193D01*
X130680663Y-77673132D01*
X130680669Y-77673132D01*
X130692905Y-77674743D01*
X130888544Y-77700500D01*
X130888545Y-77700500D01*
X131111457Y-77700500D01*
X131111458Y-77700500D01*
X131332464Y-77671404D01*
X131546191Y-77614136D01*
X131548025Y-77613661D01*
X131550657Y-77612617D01*
X131551442Y-77612318D01*
X131554387Y-77610974D01*
X131668425Y-77563738D01*
X131741503Y-77533468D01*
X131751391Y-77530111D01*
X131759440Y-77525106D01*
X131941551Y-77419964D01*
X131944679Y-77418282D01*
X131946505Y-77417184D01*
X131948307Y-77415772D01*
X132123625Y-77281247D01*
X132281248Y-77123624D01*
X132415774Y-76948305D01*
X132417182Y-76946507D01*
X132418280Y-76944680D01*
X132419950Y-76941576D01*
X132528404Y-76753730D01*
X132546013Y-76711220D01*
X132613711Y-76547781D01*
X132671405Y-76332463D01*
X132700501Y-76111457D01*
X132700501Y-75888543D01*
X132671405Y-75667537D01*
X132613711Y-75452219D01*
X132613709Y-75452212D01*
X132528404Y-75246269D01*
X132528402Y-75246264D01*
X132416960Y-75053242D01*
X132416953Y-75053231D01*
X132388577Y-75016250D01*
X132281258Y-74876388D01*
X132281255Y-74876384D01*
X132281250Y-74876378D01*
X132123621Y-74718749D01*
X131946768Y-74583046D01*
X131946757Y-74583039D01*
X131753735Y-74471597D01*
X131547801Y-74386296D01*
X131547794Y-74386293D01*
X131547788Y-74386291D01*
X131547781Y-74386289D01*
X131456782Y-74361906D01*
X131377973Y-74340789D01*
X131357919Y-74335416D01*
X131337604Y-74329973D01*
X131333584Y-74328782D01*
X131332456Y-74328594D01*
X131111462Y-74299500D01*
X131111460Y-74299500D01*
X131111458Y-74299500D01*
X130888544Y-74299500D01*
X130888541Y-74299500D01*
X130888536Y-74299500D01*
X130667557Y-74328591D01*
X130667520Y-74328599D01*
X130667102Y-74328712D01*
X130666844Y-74328782D01*
X130452219Y-74386289D01*
X130452199Y-74386296D01*
X130246265Y-74471597D01*
X130053243Y-74583039D01*
X130053232Y-74583046D01*
X129876379Y-74718749D01*
X129718750Y-74876378D01*
X129583047Y-75053231D01*
X129583040Y-75053242D01*
X129471598Y-75246264D01*
X129386297Y-75452198D01*
X129386292Y-75452210D01*
X129386292Y-75452212D01*
X129386290Y-75452219D01*
X129328598Y-75667533D01*
X129328595Y-75667544D01*
X129299501Y-75888540D01*
X126982469Y-75888540D01*
X127112456Y-75749642D01*
X127114910Y-75747093D01*
X127114956Y-75747019D01*
X127117585Y-75744310D01*
X127120017Y-75741850D01*
X127881301Y-74985502D01*
X127883885Y-74982981D01*
X127886501Y-74980474D01*
X127889152Y-74977978D01*
X128677545Y-74249723D01*
X128680142Y-74247368D01*
X128682961Y-74244859D01*
X128685611Y-74242543D01*
X129499856Y-73543541D01*
X129502617Y-73541216D01*
X129505420Y-73538897D01*
X129508237Y-73536607D01*
X130347386Y-72867669D01*
X130350147Y-72865508D01*
X130353150Y-72863202D01*
X130355941Y-72861100D01*
X131218965Y-72223050D01*
X131221889Y-72220930D01*
X131224834Y-72218834D01*
X131227709Y-72216828D01*
X132113313Y-71610627D01*
X132116300Y-71608622D01*
X132119401Y-71606581D01*
X132122350Y-71604677D01*
X133029443Y-71031072D01*
X133032448Y-71029210D01*
X133035650Y-71027265D01*
X133038691Y-71025457D01*
X133966009Y-70485243D01*
X133969006Y-70483534D01*
X133972378Y-70481650D01*
X133975292Y-70480057D01*
X134921810Y-69973839D01*
X134924884Y-69972230D01*
X134928258Y-69970504D01*
X134931413Y-69968925D01*
X135895512Y-69497569D01*
X135898646Y-69496071D01*
X135902181Y-69494422D01*
X135905338Y-69492983D01*
X136885972Y-69056990D01*
X136889279Y-69055556D01*
X136892706Y-69054106D01*
X136895996Y-69052750D01*
X137891791Y-68652732D01*
X137895080Y-68651445D01*
X137898572Y-68650116D01*
X137901936Y-68648870D01*
X138911678Y-68285312D01*
X138915001Y-68284150D01*
X138918487Y-68282966D01*
X138921888Y-68281846D01*
X138921926Y-68281834D01*
X139944197Y-67955252D01*
X139947476Y-67954236D01*
X139951268Y-67953100D01*
X139954471Y-67952172D01*
X140988027Y-67662964D01*
X140991436Y-67662044D01*
X140995030Y-67661108D01*
X140998593Y-67660214D01*
X141303014Y-67586857D01*
X141347940Y-67581246D01*
X141366107Y-67581027D01*
X141454072Y-67599992D01*
X141525099Y-67655246D01*
X141565115Y-67735836D01*
X141567636Y-67746296D01*
X141572382Y-67812544D01*
X141571300Y-67824078D01*
X141571300Y-70433403D01*
X141574173Y-70464045D01*
X141574173Y-70464046D01*
X141574173Y-70464048D01*
X141574174Y-70464050D01*
X141574175Y-70464054D01*
X141619343Y-70593140D01*
X141619345Y-70593142D01*
X141619346Y-70593144D01*
X141700562Y-70703188D01*
X141810606Y-70784404D01*
X141810607Y-70784404D01*
X141810609Y-70784406D01*
X141912771Y-70820153D01*
X141939700Y-70829576D01*
X141970348Y-70832450D01*
X141970351Y-70832450D01*
X143679648Y-70832450D01*
X143679652Y-70832450D01*
X143710300Y-70829576D01*
X143774847Y-70806990D01*
X143830673Y-70787456D01*
X143840724Y-70784448D01*
X143849302Y-70780938D01*
X143850338Y-70780575D01*
X143865466Y-70765162D01*
X143949438Y-70703188D01*
X144011412Y-70619216D01*
X144026825Y-70604088D01*
X144027188Y-70603052D01*
X144030700Y-70594470D01*
X144033713Y-70584403D01*
X144068709Y-70484390D01*
X144068709Y-70484385D01*
X144075826Y-70464050D01*
X144078700Y-70433402D01*
X144078700Y-67824098D01*
X144075826Y-67793450D01*
X144075824Y-67793445D01*
X144066404Y-67766523D01*
X144066403Y-67766520D01*
X144052502Y-67726794D01*
X144031264Y-67666097D01*
X144031011Y-67664774D01*
X144030559Y-67663714D01*
X144026628Y-67657948D01*
X144026614Y-67657926D01*
X144021658Y-67652167D01*
X143969154Y-67581027D01*
X143949438Y-67554312D01*
X143939509Y-67546984D01*
X143891661Y-67491384D01*
X143828291Y-67469210D01*
X143787493Y-67449562D01*
X143776151Y-67442435D01*
X143712522Y-67378801D01*
X143682805Y-67293863D01*
X143692883Y-67204441D01*
X143740762Y-67128249D01*
X143812075Y-67082155D01*
X143817878Y-67079956D01*
X143821791Y-67078473D01*
X143860491Y-67068053D01*
X144173725Y-67016312D01*
X144177188Y-67015773D01*
X144180891Y-67015230D01*
X144184330Y-67014758D01*
X145248893Y-66878475D01*
X145252345Y-66878065D01*
X145256141Y-66877649D01*
X145259620Y-66877300D01*
X146328349Y-66779833D01*
X146331864Y-66779544D01*
X146335638Y-66779269D01*
X146339132Y-66779046D01*
X147410701Y-66720514D01*
X147414211Y-66720353D01*
X147418042Y-66720213D01*
X147421532Y-66720117D01*
X148494558Y-66700599D01*
X148498235Y-66700566D01*
X148501765Y-66700566D01*
X148505442Y-66700599D01*
G37*
%TD.AperFunction*%
%TD*%
%TA.AperFunction,Conductor*%
%TO.N,GNDA*%
G36*
X157790419Y-74295284D02*
G01*
X157845835Y-74350700D01*
X157866118Y-74426393D01*
X157866286Y-78669533D01*
X157866495Y-83978294D01*
X157846214Y-84053995D01*
X157790800Y-84109413D01*
X157715101Y-84129700D01*
X156677790Y-84129700D01*
X156602090Y-84109416D01*
X156570734Y-84085356D01*
X156557330Y-84071952D01*
X156557328Y-84071950D01*
X156557323Y-84071947D01*
X156453873Y-84012218D01*
X156338481Y-83981300D01*
X156219019Y-83981300D01*
X156103627Y-84012218D01*
X156103626Y-84012218D01*
X156000176Y-84071947D01*
X156000169Y-84071952D01*
X155915702Y-84156419D01*
X155915697Y-84156426D01*
X155855968Y-84259876D01*
X155855968Y-84259877D01*
X155825050Y-84375268D01*
X155825050Y-84494731D01*
X155855968Y-84610122D01*
X155855968Y-84610123D01*
X155915157Y-84712637D01*
X155915700Y-84713578D01*
X156000172Y-84798050D01*
X156015854Y-84807104D01*
X156103626Y-84857781D01*
X156219019Y-84888700D01*
X156308650Y-84888700D01*
X156384350Y-84908984D01*
X156439766Y-84964400D01*
X156460050Y-85040100D01*
X156460050Y-85129731D01*
X156490968Y-85245122D01*
X156490968Y-85245123D01*
X156543566Y-85336222D01*
X156550700Y-85348578D01*
X156635172Y-85433050D01*
X156657038Y-85445674D01*
X156738626Y-85492781D01*
X156854019Y-85523700D01*
X156973480Y-85523700D01*
X156973481Y-85523700D01*
X157088872Y-85492781D01*
X157088873Y-85492781D01*
X157134376Y-85466509D01*
X157192328Y-85433050D01*
X157276800Y-85348578D01*
X157299425Y-85309389D01*
X157309323Y-85292248D01*
X157364740Y-85236833D01*
X157440438Y-85216550D01*
X157715150Y-85216550D01*
X157790850Y-85236834D01*
X157846266Y-85292250D01*
X157866549Y-85367942D01*
X157866889Y-93979544D01*
X157846608Y-94055245D01*
X157791194Y-94110663D01*
X157715495Y-94130950D01*
X156677790Y-94130950D01*
X156602090Y-94110666D01*
X156570734Y-94086606D01*
X156557330Y-94073202D01*
X156557328Y-94073200D01*
X156557323Y-94073197D01*
X156453873Y-94013468D01*
X156338481Y-93982550D01*
X156219019Y-93982550D01*
X156103627Y-94013468D01*
X156103626Y-94013468D01*
X156000176Y-94073197D01*
X156000169Y-94073202D01*
X155915702Y-94157669D01*
X155915697Y-94157676D01*
X155855968Y-94261126D01*
X155855968Y-94261127D01*
X155825050Y-94376518D01*
X155825050Y-94495981D01*
X155855968Y-94611372D01*
X155855968Y-94611373D01*
X155904451Y-94695345D01*
X155915700Y-94714828D01*
X156000172Y-94799300D01*
X156015854Y-94808354D01*
X156103626Y-94859031D01*
X156219019Y-94889950D01*
X156308650Y-94889950D01*
X156384350Y-94910234D01*
X156439766Y-94965650D01*
X156460050Y-95041350D01*
X156460050Y-95130981D01*
X156490968Y-95246372D01*
X156490968Y-95246373D01*
X156548111Y-95345344D01*
X156550700Y-95349828D01*
X156635172Y-95434300D01*
X156657038Y-95446924D01*
X156738626Y-95494031D01*
X156854019Y-95524950D01*
X156973480Y-95524950D01*
X156973481Y-95524950D01*
X157088872Y-95494031D01*
X157088873Y-95494031D01*
X157129666Y-95470477D01*
X157192328Y-95434300D01*
X157276800Y-95349828D01*
X157299425Y-95310639D01*
X157309323Y-95293498D01*
X157364740Y-95238083D01*
X157440438Y-95217800D01*
X157715544Y-95217800D01*
X157791244Y-95238084D01*
X157846660Y-95293500D01*
X157866943Y-95369192D01*
X157866950Y-95524950D01*
X157866986Y-96481035D01*
X157846705Y-96556736D01*
X157822642Y-96588096D01*
X157605658Y-96805081D01*
X157605654Y-96805087D01*
X157565459Y-96874706D01*
X157544655Y-96952351D01*
X157544655Y-97360973D01*
X157524371Y-97436673D01*
X157500311Y-97468029D01*
X157456284Y-97512056D01*
X157388413Y-97551241D01*
X157349228Y-97556400D01*
X157330269Y-97556400D01*
X157214877Y-97587318D01*
X157214876Y-97587318D01*
X157111426Y-97647047D01*
X157111419Y-97647052D01*
X157026952Y-97731519D01*
X157026947Y-97731526D01*
X156967218Y-97834976D01*
X156967218Y-97834977D01*
X156936300Y-97950368D01*
X156936300Y-98069831D01*
X156967218Y-98185222D01*
X156967218Y-98185223D01*
X157021514Y-98279263D01*
X157026950Y-98288678D01*
X157111422Y-98373150D01*
X157133288Y-98385774D01*
X157214876Y-98432881D01*
X157330269Y-98463800D01*
X157449730Y-98463800D01*
X157449731Y-98463800D01*
X157565122Y-98432881D01*
X157639966Y-98389669D01*
X157715662Y-98369384D01*
X157791363Y-98389666D01*
X157846780Y-98445081D01*
X157867066Y-98520778D01*
X157867282Y-103980794D01*
X157847001Y-104056495D01*
X157791587Y-104111913D01*
X157715888Y-104132200D01*
X156677790Y-104132200D01*
X156602090Y-104111916D01*
X156570734Y-104087856D01*
X156557330Y-104074452D01*
X156557328Y-104074450D01*
X156557323Y-104074447D01*
X156453873Y-104014718D01*
X156338481Y-103983800D01*
X156219019Y-103983800D01*
X156103627Y-104014718D01*
X156103626Y-104014718D01*
X156000176Y-104074447D01*
X156000169Y-104074452D01*
X155915702Y-104158919D01*
X155915697Y-104158926D01*
X155855968Y-104262376D01*
X155855968Y-104262377D01*
X155825050Y-104377768D01*
X155825050Y-104497231D01*
X155855968Y-104612622D01*
X155855968Y-104612623D01*
X155915697Y-104716073D01*
X155915700Y-104716078D01*
X156000172Y-104800550D01*
X156015854Y-104809604D01*
X156103626Y-104860281D01*
X156219019Y-104891200D01*
X156308650Y-104891200D01*
X156384350Y-104911484D01*
X156439766Y-104966900D01*
X156460050Y-105042600D01*
X156460050Y-105132231D01*
X156490968Y-105247622D01*
X156490968Y-105247623D01*
X156550697Y-105351073D01*
X156550700Y-105351078D01*
X156635172Y-105435550D01*
X156657038Y-105448174D01*
X156738626Y-105495281D01*
X156854019Y-105526200D01*
X156973480Y-105526200D01*
X156973481Y-105526200D01*
X157088872Y-105495281D01*
X157088873Y-105495281D01*
X157129666Y-105471727D01*
X157192328Y-105435550D01*
X157276800Y-105351078D01*
X157299425Y-105311889D01*
X157309323Y-105294748D01*
X157364740Y-105239333D01*
X157440438Y-105219050D01*
X157715937Y-105219050D01*
X157791637Y-105239334D01*
X157847053Y-105294750D01*
X157867337Y-105370444D01*
X157867357Y-105873594D01*
X157847076Y-105949295D01*
X157791662Y-106004713D01*
X157715963Y-106025000D01*
X153096400Y-106025000D01*
X153020700Y-106004716D01*
X152965284Y-105949300D01*
X152945000Y-105873600D01*
X152945000Y-102601840D01*
X152965284Y-102526140D01*
X152989344Y-102494784D01*
X152990550Y-102493578D01*
X153027998Y-102428717D01*
X153050281Y-102390123D01*
X153050281Y-102390122D01*
X153081200Y-102274731D01*
X153081200Y-102155268D01*
X153050281Y-102039877D01*
X153050281Y-102039876D01*
X152990552Y-101936426D01*
X152990550Y-101936422D01*
X152989344Y-101935216D01*
X152988492Y-101933741D01*
X152984507Y-101928547D01*
X152985190Y-101928022D01*
X152950159Y-101867345D01*
X152945000Y-101828160D01*
X152945000Y-101756971D01*
X152965284Y-101681271D01*
X152989344Y-101649915D01*
X153099452Y-101539807D01*
X153329261Y-101309997D01*
X153397130Y-101270814D01*
X153475500Y-101270814D01*
X153543371Y-101309999D01*
X154623016Y-102389644D01*
X154647076Y-102421000D01*
X154724427Y-102554976D01*
X154724429Y-102554979D01*
X154827520Y-102658070D01*
X154953782Y-102730967D01*
X155010708Y-102746220D01*
X155094604Y-102768700D01*
X155094605Y-102768700D01*
X155240395Y-102768700D01*
X155240396Y-102768700D01*
X155324292Y-102746220D01*
X155381217Y-102730967D01*
X155381217Y-102730966D01*
X155381220Y-102730966D01*
X155507480Y-102658070D01*
X155610570Y-102554980D01*
X155683466Y-102428720D01*
X155693937Y-102389644D01*
X155699414Y-102369200D01*
X155721200Y-102287896D01*
X155721200Y-102142104D01*
X155707086Y-102089430D01*
X155683467Y-102001282D01*
X155670487Y-101978800D01*
X155610570Y-101875020D01*
X155507480Y-101771930D01*
X155507479Y-101771929D01*
X155507476Y-101771927D01*
X155373500Y-101694576D01*
X155342144Y-101670516D01*
X154450344Y-100778716D01*
X154411159Y-100710845D01*
X154406000Y-100671660D01*
X154406000Y-93032400D01*
X154426284Y-92956700D01*
X154481700Y-92901284D01*
X154557400Y-92881000D01*
X154905984Y-92881000D01*
X154945169Y-92886159D01*
X155001617Y-92901284D01*
X155094604Y-92926200D01*
X155094605Y-92926200D01*
X155240395Y-92926200D01*
X155240396Y-92926200D01*
X155333383Y-92901284D01*
X155381217Y-92888467D01*
X155381217Y-92888466D01*
X155381220Y-92888466D01*
X155507480Y-92815570D01*
X155610570Y-92712480D01*
X155683466Y-92586220D01*
X155721200Y-92445396D01*
X155721200Y-92299604D01*
X155683466Y-92158780D01*
X155610570Y-92032520D01*
X155507480Y-91929430D01*
X155507479Y-91929429D01*
X155381217Y-91856532D01*
X155252118Y-91821941D01*
X155240396Y-91818800D01*
X155094604Y-91818800D01*
X155027667Y-91836735D01*
X154945169Y-91858841D01*
X154905984Y-91864000D01*
X154557400Y-91864000D01*
X154481700Y-91843716D01*
X154426284Y-91788300D01*
X154406000Y-91712600D01*
X154406000Y-79923052D01*
X154374101Y-79804005D01*
X154371347Y-79793726D01*
X154361274Y-79776280D01*
X154347985Y-79753263D01*
X154304401Y-79677774D01*
X154209726Y-79583099D01*
X153806981Y-79180353D01*
X153782920Y-79148996D01*
X153778466Y-79141282D01*
X153778466Y-79141280D01*
X153705570Y-79015020D01*
X153602480Y-78911930D01*
X153602479Y-78911929D01*
X153476217Y-78839032D01*
X153361167Y-78808205D01*
X153335396Y-78801300D01*
X153189604Y-78801300D01*
X153135583Y-78815774D01*
X153057213Y-78815774D01*
X152989343Y-78776588D01*
X152950158Y-78708717D01*
X152945000Y-78669533D01*
X152945000Y-74769471D01*
X152965284Y-74693771D01*
X152989344Y-74662415D01*
X153332415Y-74319344D01*
X153400286Y-74280159D01*
X153439471Y-74275000D01*
X157714719Y-74275000D01*
X157790419Y-74295284D01*
G37*
%TD.AperFunction*%
%TD*%
%TA.AperFunction,Conductor*%
%TO.N,/Gate Driver/SHA*%
G36*
X165989098Y-101108907D02*
G01*
X166004822Y-101113121D01*
X166072692Y-101152305D01*
X166111876Y-101220170D01*
X166116089Y-101235890D01*
X166121250Y-101275082D01*
X166121250Y-104266167D01*
X166116089Y-104305359D01*
X166111876Y-104321079D01*
X166072688Y-104388948D01*
X166004829Y-104428126D01*
X165989109Y-104432339D01*
X165949917Y-104437500D01*
X163911333Y-104437500D01*
X163872143Y-104432340D01*
X163856422Y-104428127D01*
X163788552Y-104388939D01*
X163749371Y-104321072D01*
X163745157Y-104305348D01*
X163740000Y-104266167D01*
X163740000Y-101275082D01*
X163745157Y-101235902D01*
X163749371Y-101220175D01*
X163788555Y-101152307D01*
X163856422Y-101113122D01*
X163857380Y-101112865D01*
X163872152Y-101108908D01*
X163911333Y-101103750D01*
X165949917Y-101103750D01*
X165989098Y-101108907D01*
G37*
%TD.AperFunction*%
%TD*%
%TA.AperFunction,Conductor*%
%TO.N,/Inverter/OUT_C*%
G36*
X168395606Y-85075023D02*
G01*
X168410604Y-85079427D01*
X168469355Y-85117172D01*
X168470542Y-85118541D01*
X168498018Y-85173402D01*
X168499663Y-85180960D01*
X168502500Y-85207331D01*
X168502500Y-88261920D01*
X168497475Y-88296864D01*
X168493070Y-88311862D01*
X168455327Y-88370605D01*
X168453958Y-88371792D01*
X168399097Y-88399268D01*
X168391539Y-88400913D01*
X168365168Y-88403750D01*
X163881830Y-88403750D01*
X163846889Y-88398725D01*
X163831890Y-88394320D01*
X163773144Y-88356577D01*
X163771957Y-88355208D01*
X163744477Y-88300333D01*
X163742832Y-88292771D01*
X163740000Y-88266418D01*
X163740000Y-85211829D01*
X163745023Y-85176893D01*
X163749427Y-85161895D01*
X163787172Y-85103144D01*
X163788541Y-85101957D01*
X163843420Y-85074477D01*
X163850979Y-85072833D01*
X163877332Y-85070000D01*
X168360670Y-85070000D01*
X168395606Y-85075023D01*
G37*
%TD.AperFunction*%
%TD*%
%TA.AperFunction,Conductor*%
%TO.N,/Inverter/OUT_B*%
G36*
X168445539Y-95090935D02*
G01*
X168491294Y-95143739D01*
X168502500Y-95195250D01*
X168502500Y-98281000D01*
X168482815Y-98348039D01*
X168430011Y-98393794D01*
X168378500Y-98405000D01*
X163864000Y-98405000D01*
X163796961Y-98385315D01*
X163751206Y-98332511D01*
X163740000Y-98281000D01*
X163740000Y-95195250D01*
X163759685Y-95128211D01*
X163812489Y-95082456D01*
X163864000Y-95071250D01*
X168378500Y-95071250D01*
X168445539Y-95090935D01*
G37*
%TD.AperFunction*%
%TD*%
M02*
