M48
; DRILL file KiCad 10.0.5 date 2026-09-05T18:44:12
; FORMAT={-:-/ absolute / metric / decimal}
; #@! TF.CreationDate,2026-09-05T18:44:12+08:00
; #@! TF.GenerationSoftware,Kicad,Pcbnew,10.0.5
; #@! TF.FileFunction,Plated,1,2,PTH
FMAT,2
METRIC
; #@! TA.AperFunction,Plated,PTH,ViaDrill
T1C0.300
; #@! TA.AperFunction,Plated,PTH,ViaDrill
T2C0.500
; #@! TA.AperFunction,Plated,PTH,ComponentDrill
T3C0.600
; #@! TA.AperFunction,Plated,PTH,ComponentDrill
T4C1.000
; #@! TA.AperFunction,Plated,PTH,ComponentDrill
T5C1.200
; #@! TA.AperFunction,Plated,PTH,ComponentDrill
T6C1.900
%
G90
G05
T1
X123.735Y-104.914
X124.688Y-106.977
X125.64Y-102.691
X125.727Y-103.632
X125.799Y-88.245
X126.275Y-107.295
X126.275Y-108.089
X126.717Y-112.091
X127.066Y-107.729
X127.227Y-96.5
X127.42Y-112.091
X127.704Y-98.881
X127.704Y-101.421
X127.704Y-104.404
X127.704Y-107.295
X127.704Y-108.089
X128.339Y-86.181
X128.474Y-103.087
X128.815Y-82.934
X128.815Y-85.222
X129.45Y-87.769
X129.45Y-88.88
X130.879Y-108.247
X131.196Y-110.152
X131.672Y-106.66
X131.99Y-88.88
X132.466Y-81.736
X132.784Y-86.975
X133.577Y-101.421
X133.736Y-96.148
X133.736Y-96.852
X133.895Y-105.16
X135.482Y-92.69
X135.983Y-88.745
X136.276Y-74.275
X136.946Y-89.522
X137.005Y-84.736
X137.07Y-99.04
X137.332Y-77.779
X137.509Y-85.218
X137.52Y-88.217
X137.705Y-107.454
X138.443Y-81.998
X138.523Y-118.04
X138.528Y-86.284
X138.816Y-77.205
X139.134Y-74.275
X139.227Y-118.04
X139.519Y-80.942
X139.519Y-89.674
X139.61Y-108.247
X139.769Y-96.817
X140.023Y-81.42
X140.023Y-89.197
X140.648Y-92.098
X140.721Y-117.931
X141.039Y-102.374
X141.039Y-104.438
X141.197Y-89.674
X141.197Y-94.595
X142.468Y-78.272
X142.523Y-89.515
X142.626Y-82.502
X142.944Y-83.608
X142.944Y-84.358
X143.499Y-81.201
X143.579Y-89.674
X143.737Y-87.451
X144.39Y-87.508
X145.162Y-90.838
X145.325Y-99.834
X145.325Y-101.104
X145.325Y-102.374
X145.484Y-110.152
X145.484Y-116.661
X146.068Y-75.018
X146.436Y-77.175
X146.436Y-78.879
X146.595Y-99.834
X146.595Y-101.104
X146.595Y-102.374
X146.754Y-87.927
X146.754Y-108.406
X147.206Y-95.35
X147.23Y-91.579
X147.547Y-110.152
X147.547Y-116.661
X148.024Y-92.373
X148.024Y-98.246
X148.024Y-99.834
X148.024Y-101.104
X148.024Y-102.374
X148.46Y-96.041
X148.5Y-78.561
X148.659Y-108.724
X149.294Y-98.246
X149.294Y-99.834
X149.294Y-101.104
X149.294Y-102.374
X149.611Y-110.152
X149.611Y-116.661
X149.77Y-78.72
X149.77Y-80.942
X149.77Y-82.212
X150.246Y-92.373
X150.564Y-91.102
X150.722Y-108.724
X151.04Y-78.72
X151.675Y-110.152
X151.675Y-116.661
X152.627Y-90.468
X152.627Y-81.578
X152.627Y-102.215
X153.547Y-74.91
X154.85Y-73.164
X154.85Y-83.959
X154.85Y-93.801
X155.009Y-103.802
X155.644Y-85.07
X155.644Y-94.912
X155.644Y-104.914
X156.12Y-75.862
X156.279Y-81.419
X156.279Y-84.435
X156.279Y-91.42
X156.279Y-94.436
X156.279Y-101.421
X156.279Y-104.438
X156.523Y-118.054
X156.914Y-85.07
X156.914Y-95.071
X156.914Y-105.072
X157.227Y-118.054
X157.39Y-98.01
X157.549Y-105.707
X157.571Y-86.028
X157.571Y-96.029
X158.819Y-96.024
X158.819Y-97.77
X158.819Y-117.931
X161.2Y-73.799
X161.517Y-98.087
X161.676Y-75.069
X175.002Y-108.878
X175.011Y-87.134
X175.011Y-89.197
X175.011Y-97.135
X175.011Y-99.199
X175.011Y-107.136
T2
X126.434Y-94.1
X126.434Y-98.881
X127.704Y-88.721
X128.656Y-88.086
X140.562Y-76.498
X141.197Y-72.211
X142.15Y-94.754
X144.849Y-76.498
X147.706Y-80.035
X151.834Y-106.977
X153.262Y-79.355
X155.167Y-92.373
X155.167Y-102.215
X158.501Y-79.99
X158.501Y-81.26
X158.501Y-82.53
X158.501Y-83.8
X158.501Y-89.991
X158.501Y-91.261
X158.501Y-92.531
X158.501Y-93.801
X158.501Y-99.992
X158.501Y-101.262
X158.501Y-102.532
X158.501Y-103.802
X159.295Y-80.625
X159.295Y-81.895
X159.295Y-83.165
X159.295Y-90.626
X159.295Y-91.896
X159.295Y-93.166
X159.295Y-100.627
X159.295Y-101.897
X159.295Y-103.167
X160.089Y-79.99
X160.089Y-81.26
X160.089Y-82.53
X160.089Y-83.8
X160.089Y-89.991
X160.089Y-91.261
X160.089Y-92.531
X160.089Y-93.801
X160.089Y-99.992
X160.089Y-101.262
X160.089Y-102.532
X160.089Y-103.802
X164.375Y-81.578
X164.375Y-82.689
X164.375Y-83.8
X164.375Y-91.579
X164.375Y-92.69
X164.375Y-93.801
X164.375Y-101.58
X164.375Y-102.691
X164.375Y-103.802
X165.486Y-81.578
X165.486Y-82.689
X165.486Y-83.8
X165.486Y-91.579
X165.486Y-92.69
X165.486Y-93.801
X165.486Y-101.58
X165.486Y-102.691
X165.486Y-103.802
T4
X134.0Y-120.5
X145.0Y-120.5
X152.0Y-120.5
X163.0Y-120.5
T5
X167.232Y-87.292
X167.232Y-97.294
X167.232Y-107.295
T6
X137.0Y-110.5
X142.0Y-110.5
X155.0Y-110.5
X160.0Y-110.5
T3
G00X120.825Y-92.18
M15
G01X120.025Y-92.18
M16
G05
G00X120.825Y-100.82
M15
G01X120.025Y-100.82
M16
G05
G00X125.175Y-92.18
M15
G01X124.075Y-92.18
M16
G05
G00X125.175Y-100.82
M15
G01X124.075Y-100.82
M16
G05
M30
