%TF.GenerationSoftware,KiCad,Pcbnew,10.0.5*%
%TF.CreationDate,2026-09-05T18:41:29+08:00*%
%TF.ProjectId,foc_driver,666f635f-6472-4697-9665-722e6b696361,rev?*%
%TF.SameCoordinates,Original*%
%TF.FileFunction,Copper,L1,Top*%
%TF.FilePolarity,Positive*%
%FSLAX46Y46*%
G04 Gerber Fmt 4.6, Leading zero omitted, Abs format (unit mm)*
G04 Created by KiCad (PCBNEW 10.0.5) date 2026-09-05 18:41:29*
%MOMM*%
%LPD*%
G01*
G04 APERTURE LIST*
G04 Aperture macros list*
%AMRoundRect*
0 Rectangle with rounded corners*
0 $1 Rounding radius*
0 $2 $3 $4 $5 $6 $7 $8 $9 X,Y pos of 4 corners*
0 Add a 4 corners polygon primitive as box body*
4,1,4,$2,$3,$4,$5,$6,$7,$8,$9,$2,$3,0*
0 Add four circle primitives for the rounded corners*
1,1,$1+$1,$2,$3*
1,1,$1+$1,$4,$5*
1,1,$1+$1,$6,$7*
1,1,$1+$1,$8,$9*
0 Add four rect primitives between the rounded corners*
20,1,$1+$1,$2,$3,$4,$5,0*
20,1,$1+$1,$4,$5,$6,$7,0*
20,1,$1+$1,$6,$7,$8,$9,0*
20,1,$1+$1,$8,$9,$2,$3,0*%
%AMFreePoly0*
4,1,23,0.550000,-0.750000,0.000000,-0.750000,0.000000,-0.745722,-0.065263,-0.745722,-0.191342,-0.711940,-0.304381,-0.646677,-0.396677,-0.554381,-0.461940,-0.441342,-0.495722,-0.315263,-0.495722,-0.250000,-0.500000,-0.250000,-0.500000,0.250000,-0.495722,0.250000,-0.495722,0.315263,-0.461940,0.441342,-0.396677,0.554381,-0.304381,0.646677,-0.191342,0.711940,-0.065263,0.745722,0.000000,0.745722,
0.000000,0.750000,0.550000,0.750000,0.550000,-0.750000,0.550000,-0.750000,$1*%
%AMFreePoly1*
4,1,23,0.000000,0.745722,0.065263,0.745722,0.191342,0.711940,0.304381,0.646677,0.396677,0.554381,0.461940,0.441342,0.495722,0.315263,0.495722,0.250000,0.500000,0.250000,0.500000,-0.250000,0.495722,-0.250000,0.495722,-0.315263,0.461940,-0.441342,0.396677,-0.554381,0.304381,-0.646677,0.191342,-0.711940,0.065263,-0.745722,0.000000,-0.745722,0.000000,-0.750000,-0.550000,-0.750000,
-0.550000,0.750000,0.000000,0.750000,0.000000,0.745722,0.000000,0.745722,$1*%
G04 Aperture macros list end*
%TA.AperFunction,SMDPad,CuDef*%
%ADD10RoundRect,0.250000X0.337500X0.475000X-0.337500X0.475000X-0.337500X-0.475000X0.337500X-0.475000X0*%
%TD*%
%TA.AperFunction,SMDPad,CuDef*%
%ADD11RoundRect,0.250000X0.475000X-0.337500X0.475000X0.337500X-0.475000X0.337500X-0.475000X-0.337500X0*%
%TD*%
%TA.AperFunction,SMDPad,CuDef*%
%ADD12RoundRect,0.237500X-0.250000X-0.237500X0.250000X-0.237500X0.250000X0.237500X-0.250000X0.237500X0*%
%TD*%
%TA.AperFunction,SMDPad,CuDef*%
%ADD13RoundRect,0.150000X-0.512500X-0.150000X0.512500X-0.150000X0.512500X0.150000X-0.512500X0.150000X0*%
%TD*%
%TA.AperFunction,SMDPad,CuDef*%
%ADD14RoundRect,0.155000X-0.212500X-0.155000X0.212500X-0.155000X0.212500X0.155000X-0.212500X0.155000X0*%
%TD*%
%TA.AperFunction,SMDPad,CuDef*%
%ADD15RoundRect,0.200000X-0.200000X-0.600000X0.200000X-0.600000X0.200000X0.600000X-0.200000X0.600000X0*%
%TD*%
%TA.AperFunction,SMDPad,CuDef*%
%ADD16RoundRect,0.190477X-0.609523X-1.309523X0.609523X-1.309523X0.609523X1.309523X-0.609523X1.309523X0*%
%TD*%
%TA.AperFunction,SMDPad,CuDef*%
%ADD17C,1.000000*%
%TD*%
%TA.AperFunction,SMDPad,CuDef*%
%ADD18RoundRect,0.155000X0.155000X-0.212500X0.155000X0.212500X-0.155000X0.212500X-0.155000X-0.212500X0*%
%TD*%
%TA.AperFunction,SMDPad,CuDef*%
%ADD19RoundRect,0.125000X-0.300000X-0.125000X0.300000X-0.125000X0.300000X0.125000X-0.300000X0.125000X0*%
%TD*%
%TA.AperFunction,SMDPad,CuDef*%
%ADD20R,4.550000X4.410000*%
%TD*%
%TA.AperFunction,SMDPad,CuDef*%
%ADD21RoundRect,0.155000X0.212500X0.155000X-0.212500X0.155000X-0.212500X-0.155000X0.212500X-0.155000X0*%
%TD*%
%TA.AperFunction,SMDPad,CuDef*%
%ADD22RoundRect,0.237500X-0.237500X0.300000X-0.237500X-0.300000X0.237500X-0.300000X0.237500X0.300000X0*%
%TD*%
%TA.AperFunction,SMDPad,CuDef*%
%ADD23RoundRect,0.150000X0.512500X0.150000X-0.512500X0.150000X-0.512500X-0.150000X0.512500X-0.150000X0*%
%TD*%
%TA.AperFunction,SMDPad,CuDef*%
%ADD24RoundRect,0.160000X0.160000X-0.197500X0.160000X0.197500X-0.160000X0.197500X-0.160000X-0.197500X0*%
%TD*%
%TA.AperFunction,SMDPad,CuDef*%
%ADD25RoundRect,0.155000X-0.155000X0.212500X-0.155000X-0.212500X0.155000X-0.212500X0.155000X0.212500X0*%
%TD*%
%TA.AperFunction,SMDPad,CuDef*%
%ADD26RoundRect,0.237500X0.287500X0.237500X-0.287500X0.237500X-0.287500X-0.237500X0.287500X-0.237500X0*%
%TD*%
%TA.AperFunction,SMDPad,CuDef*%
%ADD27RoundRect,0.160000X-0.197500X-0.160000X0.197500X-0.160000X0.197500X0.160000X-0.197500X0.160000X0*%
%TD*%
%TA.AperFunction,SMDPad,CuDef*%
%ADD28FreePoly0,90.000000*%
%TD*%
%TA.AperFunction,SMDPad,CuDef*%
%ADD29R,1.500000X1.000000*%
%TD*%
%TA.AperFunction,SMDPad,CuDef*%
%ADD30FreePoly1,90.000000*%
%TD*%
%TA.AperFunction,SMDPad,CuDef*%
%ADD31RoundRect,0.200000X0.200000X0.600000X-0.200000X0.600000X-0.200000X-0.600000X0.200000X-0.600000X0*%
%TD*%
%TA.AperFunction,SMDPad,CuDef*%
%ADD32RoundRect,0.250001X0.799999X1.249999X-0.799999X1.249999X-0.799999X-1.249999X0.799999X-1.249999X0*%
%TD*%
%TA.AperFunction,SMDPad,CuDef*%
%ADD33RoundRect,0.250000X-0.475000X0.337500X-0.475000X-0.337500X0.475000X-0.337500X0.475000X0.337500X0*%
%TD*%
%TA.AperFunction,SMDPad,CuDef*%
%ADD34RoundRect,0.160000X-0.160000X0.197500X-0.160000X-0.197500X0.160000X-0.197500X0.160000X0.197500X0*%
%TD*%
%TA.AperFunction,SMDPad,CuDef*%
%ADD35RoundRect,0.237500X0.237500X-0.287500X0.237500X0.287500X-0.237500X0.287500X-0.237500X-0.287500X0*%
%TD*%
%TA.AperFunction,SMDPad,CuDef*%
%ADD36RoundRect,0.150000X0.150000X-0.512500X0.150000X0.512500X-0.150000X0.512500X-0.150000X-0.512500X0*%
%TD*%
%TA.AperFunction,SMDPad,CuDef*%
%ADD37RoundRect,0.160000X0.197500X0.160000X-0.197500X0.160000X-0.197500X-0.160000X0.197500X-0.160000X0*%
%TD*%
%TA.AperFunction,SMDPad,CuDef*%
%ADD38RoundRect,0.100000X0.100000X-0.637500X0.100000X0.637500X-0.100000X0.637500X-0.100000X-0.637500X0*%
%TD*%
%TA.AperFunction,SMDPad,CuDef*%
%ADD39RoundRect,0.237500X0.250000X0.237500X-0.250000X0.237500X-0.250000X-0.237500X0.250000X-0.237500X0*%
%TD*%
%TA.AperFunction,SMDPad,CuDef*%
%ADD40RoundRect,0.250000X-0.350000X0.450000X-0.350000X-0.450000X0.350000X-0.450000X0.350000X0.450000X0*%
%TD*%
%TA.AperFunction,SMDPad,CuDef*%
%ADD41RoundRect,0.225000X0.225000X0.375000X-0.225000X0.375000X-0.225000X-0.375000X0.225000X-0.375000X0*%
%TD*%
%TA.AperFunction,SMDPad,CuDef*%
%ADD42RoundRect,0.165000X-0.385000X1.685000X-0.385000X-1.685000X0.385000X-1.685000X0.385000X1.685000X0*%
%TD*%
%TA.AperFunction,SMDPad,CuDef*%
%ADD43RoundRect,0.200000X-0.459261X0.434833X-0.628308X0.072309X0.459261X-0.434833X0.628308X-0.072309X0*%
%TD*%
%TA.AperFunction,SMDPad,CuDef*%
%ADD44RoundRect,0.250001X-0.794790X1.253318X-1.470978X-0.196773X0.794790X-1.253318X1.470978X0.196773X0*%
%TD*%
%TA.AperFunction,SMDPad,CuDef*%
%ADD45RoundRect,0.031250X0.093750X-0.368750X0.093750X0.368750X-0.093750X0.368750X-0.093750X-0.368750X0*%
%TD*%
%TA.AperFunction,SMDPad,CuDef*%
%ADD46RoundRect,0.031250X0.368750X-0.093750X0.368750X0.093750X-0.368750X0.093750X-0.368750X-0.093750X0*%
%TD*%
%TA.AperFunction,SMDPad,CuDef*%
%ADD47R,5.150000X5.150000*%
%TD*%
%TA.AperFunction,SMDPad,CuDef*%
%ADD48RoundRect,0.237500X0.237500X-0.300000X0.237500X0.300000X-0.237500X0.300000X-0.237500X-0.300000X0*%
%TD*%
%TA.AperFunction,SMDPad,CuDef*%
%ADD49RoundRect,0.237500X0.300000X0.237500X-0.300000X0.237500X-0.300000X-0.237500X0.300000X-0.237500X0*%
%TD*%
%TA.AperFunction,SMDPad,CuDef*%
%ADD50RoundRect,0.075000X-0.075000X0.350000X-0.075000X-0.350000X0.075000X-0.350000X0.075000X0.350000X0*%
%TD*%
%TA.AperFunction,HeatsinkPad*%
%ADD51R,2.400000X1.600000*%
%TD*%
%TA.AperFunction,SMDPad,CuDef*%
%ADD52R,1.240000X0.600000*%
%TD*%
%TA.AperFunction,SMDPad,CuDef*%
%ADD53R,1.240000X0.300000*%
%TD*%
%TA.AperFunction,HeatsinkPad*%
%ADD54O,2.100000X1.000000*%
%TD*%
%TA.AperFunction,HeatsinkPad*%
%ADD55O,1.800000X1.000000*%
%TD*%
%TA.AperFunction,ComponentPad*%
%ADD56RoundRect,0.250000X1.000000X0.750000X-1.000000X0.750000X-1.000000X-0.750000X1.000000X-0.750000X0*%
%TD*%
%TA.AperFunction,SMDPad,CuDef*%
%ADD57RoundRect,0.237500X-0.300000X-0.237500X0.300000X-0.237500X0.300000X0.237500X-0.300000X0.237500X0*%
%TD*%
%TA.AperFunction,SMDPad,CuDef*%
%ADD58RoundRect,0.075000X-0.700000X-0.075000X0.700000X-0.075000X0.700000X0.075000X-0.700000X0.075000X0*%
%TD*%
%TA.AperFunction,SMDPad,CuDef*%
%ADD59RoundRect,0.075000X-0.075000X-0.700000X0.075000X-0.700000X0.075000X0.700000X-0.075000X0.700000X0*%
%TD*%
%TA.AperFunction,ComponentPad*%
%ADD60C,1.400000*%
%TD*%
%TA.AperFunction,ComponentPad*%
%ADD61RoundRect,0.770000X-0.980000X-0.980000X0.980000X-0.980000X0.980000X0.980000X-0.980000X0.980000X0*%
%TD*%
%TA.AperFunction,ComponentPad*%
%ADD62C,3.500000*%
%TD*%
%TA.AperFunction,ViaPad*%
%ADD63C,0.700000*%
%TD*%
%TA.AperFunction,ViaPad*%
%ADD64C,0.500000*%
%TD*%
%TA.AperFunction,Conductor*%
%ADD65C,0.203200*%
%TD*%
%TA.AperFunction,Conductor*%
%ADD66C,0.304800*%
%TD*%
%TA.AperFunction,Conductor*%
%ADD67C,0.609600*%
%TD*%
%TA.AperFunction,Conductor*%
%ADD68C,0.406400*%
%TD*%
G04 APERTURE END LIST*
D10*
%TO.P,C38,1*%
%TO.N,GND*%
X173985000Y-87140000D03*
%TO.P,C38,2*%
%TO.N,VS*%
X171910000Y-87140000D03*
%TD*%
D11*
%TO.P,C27,1*%
%TO.N,GND*%
X151675000Y-116587500D03*
%TO.P,C27,2*%
%TO.N,VS*%
X151675000Y-114512500D03*
%TD*%
D12*
%TO.P,R17,1*%
%TO.N,/Gate Driver/GHB*%
X162827500Y-96817500D03*
%TO.P,R17,2*%
%TO.N,Net-(Q3-G)*%
X164652500Y-96817500D03*
%TD*%
D13*
%TO.P,U8,1,I/O1_1*%
%TO.N,Net-(J7-D--PadA7)*%
X127518750Y-95550000D03*
%TO.P,U8,2,GND_2*%
%TO.N,GND*%
X127518750Y-96500000D03*
%TO.P,U8,3,I/O2_3*%
%TO.N,Net-(J7-D+-PadA6)*%
X127518750Y-97450000D03*
%TO.P,U8,4,I/O2_4*%
%TO.N,Net-(R26-Pad2)*%
X129793750Y-97450000D03*
%TO.P,U8,5,VBUS_5*%
%TO.N,/Communications/VBUS*%
X129793750Y-96500000D03*
%TO.P,U8,6,I/O1_6*%
%TO.N,Net-(R27-Pad1)*%
X129793750Y-95550000D03*
%TD*%
D14*
%TO.P,C3,1*%
%TO.N,+3V3*%
X147773750Y-80942500D03*
%TO.P,C3,2*%
%TO.N,GND*%
X148908750Y-80942500D03*
%TD*%
D15*
%TO.P,J8,1,Pin_1_1*%
%TO.N,/Communications/CAN_P*%
X138250000Y-117100000D03*
%TO.P,J8,2,Pin_2_2*%
%TO.N,/Communications/CAN_N*%
X139500000Y-117100000D03*
%TO.P,J8,3,Pin_3_3*%
%TO.N,GND*%
X140750000Y-117100000D03*
D16*
%TO.P,J8,MP,MountPin_MP*%
%TO.N,unconnected-(J8-MountPin-PadMP)_1*%
X135700000Y-120000000D03*
%TO.N,unconnected-(J8-MountPin-PadMP)*%
X143300000Y-120000000D03*
%TD*%
D17*
%TO.P,TP1,1,1_1*%
%TO.N,+5V*%
X134530000Y-107295000D03*
%TD*%
D18*
%TO.P,C37,1*%
%TO.N,+3V3*%
X153262500Y-76747500D03*
%TO.P,C37,2*%
%TO.N,GNDA*%
X153262500Y-75612500D03*
%TD*%
D14*
%TO.P,C50,1*%
%TO.N,GND*%
X146027500Y-74116250D03*
%TO.P,C50,2*%
%TO.N,Net-(J11-Pin_4)*%
X147162500Y-74116250D03*
%TD*%
D19*
%TO.P,Q1,1,S_1*%
%TO.N,/Gate Driver/SHA*%
X167016250Y-101262500D03*
%TO.P,Q1,2,S_2*%
X167016250Y-102532500D03*
%TO.P,Q1,3,S_3*%
X167016250Y-103802500D03*
%TO.P,Q1,4,G_4*%
%TO.N,Net-(Q1-G)*%
X167016250Y-105072500D03*
D20*
%TO.P,Q1,5,D_5*%
%TO.N,VS*%
X170966250Y-103167500D03*
%TD*%
D21*
%TO.P,C31,1*%
%TO.N,+3V3*%
X157481250Y-98722500D03*
%TO.P,C31,2*%
%TO.N,GNDA*%
X156346250Y-98722500D03*
%TD*%
D22*
%TO.P,C19,1*%
%TO.N,Net-(U2-CPL)*%
X143261250Y-105956250D03*
%TO.P,C19,2*%
%TO.N,Net-(U2-CPH)*%
X143261250Y-107681250D03*
%TD*%
D23*
%TO.P,U5,1,+_1*%
%TO.N,Net-(U5-+)*%
X157072500Y-76812500D03*
%TO.P,U5,2,V-_2*%
%TO.N,GNDA*%
X157072500Y-75862500D03*
%TO.P,U5,3,-_3*%
%TO.N,/Inverter/PV_SENSE*%
X157072500Y-74912500D03*
%TO.P,U5,4*%
X154797500Y-74912500D03*
%TO.P,U5,5,V+_5*%
%TO.N,+3V3*%
X154797500Y-76812500D03*
%TD*%
D24*
%TO.P,R5,1*%
%TO.N,/MCU/LED_G*%
X137705000Y-73126250D03*
%TO.P,R5,2*%
%TO.N,Net-(D3-A)*%
X137705000Y-71931250D03*
%TD*%
D25*
%TO.P,C49,1*%
%TO.N,GND*%
X130402500Y-110177500D03*
%TO.P,C49,2*%
%TO.N,Net-(C49-Pad2)*%
X130402500Y-111312500D03*
%TD*%
D21*
%TO.P,C48,1*%
%TO.N,GND*%
X127581250Y-104892500D03*
%TO.P,C48,2*%
%TO.N,+5V*%
X126446250Y-104892500D03*
%TD*%
D11*
%TO.P,C35,1*%
%TO.N,GND*%
X149611250Y-116587500D03*
%TO.P,C35,2*%
%TO.N,VS*%
X149611250Y-114512500D03*
%TD*%
%TO.P,C33,1*%
%TO.N,GND*%
X145483750Y-116587500D03*
%TO.P,C33,2*%
%TO.N,VS*%
X145483750Y-114512500D03*
%TD*%
D26*
%TO.P,FB1,1*%
%TO.N,+3V3A*%
X131595000Y-91578750D03*
%TO.P,FB1,2*%
%TO.N,+3V3*%
X129845000Y-91578750D03*
%TD*%
D27*
%TO.P,R26,1*%
%TO.N,+3V3*%
X128567500Y-98881250D03*
%TO.P,R26,2*%
%TO.N,Net-(R26-Pad2)*%
X129762500Y-98881250D03*
%TD*%
D26*
%TO.P,D1,1,K_1*%
%TO.N,GND*%
X123655000Y-104077500D03*
%TO.P,D1,2,A_2*%
%TO.N,Net-(D1-A)*%
X121905000Y-104077500D03*
%TD*%
D25*
%TO.P,C36,1*%
%TO.N,/Inverter/ISENSE_A*%
X154215000Y-102758750D03*
%TO.P,C36,2*%
%TO.N,GNDA*%
X154215000Y-103893750D03*
%TD*%
D21*
%TO.P,C10,1*%
%TO.N,Net-(U1-VCAP_1)*%
X142400000Y-93007500D03*
%TO.P,C10,2*%
%TO.N,GND*%
X141265000Y-93007500D03*
%TD*%
D17*
%TO.P,TP5,1,1_1*%
%TO.N,/Inverter/PV_SENSE*%
X154850000Y-73163750D03*
%TD*%
D24*
%TO.P,R32,1*%
%TO.N,/Encoders/EXT_ENCDA*%
X151040000Y-75348750D03*
%TO.P,R32,2*%
%TO.N,Net-(J11-Pin_1)*%
X151040000Y-74153750D03*
%TD*%
D28*
%TO.P,JP1,1,A_1*%
%TO.N,+3V3*%
X142782500Y-74738750D03*
D29*
%TO.P,JP1,2,C_2*%
%TO.N,Net-(J11-Pin_4)*%
X142782500Y-73438750D03*
D30*
%TO.P,JP1,3,B_3*%
%TO.N,+5V*%
X142782500Y-72138750D03*
%TD*%
D31*
%TO.P,J11,1,Pin_1_1*%
%TO.N,Net-(J11-Pin_1)*%
X151000000Y-72046250D03*
%TO.P,J11,2,Pin_2_2*%
%TO.N,Net-(J11-Pin_2)*%
X149750000Y-72046250D03*
%TO.P,J11,3,Pin_3_3*%
%TO.N,Net-(J11-Pin_3)*%
X148500000Y-72046250D03*
%TO.P,J11,4,Pin_4_4*%
%TO.N,Net-(J11-Pin_4)*%
X147250000Y-72046250D03*
%TO.P,J11,5,Pin_5_5*%
%TO.N,GND*%
X146000000Y-72046250D03*
D32*
%TO.P,J11,MP,MountPin_MP*%
%TO.N,unconnected-(J11-MountPin-PadMP)_1*%
X153550000Y-69146250D03*
%TO.N,unconnected-(J11-MountPin-PadMP)*%
X143450000Y-69146250D03*
%TD*%
D12*
%TO.P,R22,1*%
%TO.N,/Gate Driver/GHC*%
X162827500Y-86816250D03*
%TO.P,R22,2*%
%TO.N,Net-(Q5-G)*%
X164652500Y-86816250D03*
%TD*%
D10*
%TO.P,C44,1*%
%TO.N,GND*%
X173985000Y-99198750D03*
%TO.P,C44,2*%
%TO.N,VS*%
X171910000Y-99198750D03*
%TD*%
D14*
%TO.P,C41,1*%
%TO.N,Net-(U5-+)*%
X159336250Y-73798750D03*
%TO.P,C41,2*%
%TO.N,GND*%
X160471250Y-73798750D03*
%TD*%
D24*
%TO.P,R33,1*%
%TO.N,/Encoders/EXT_ENCDB*%
X149770000Y-75348750D03*
%TO.P,R33,2*%
%TO.N,Net-(J11-Pin_2)*%
X149770000Y-74153750D03*
%TD*%
D33*
%TO.P,C14,1*%
%TO.N,VS*%
X141038750Y-101495000D03*
%TO.P,C14,2*%
%TO.N,GND*%
X141038750Y-103570000D03*
%TD*%
%TO.P,C29,1*%
%TO.N,GND*%
X147547500Y-110226250D03*
%TO.P,C29,2*%
%TO.N,VS*%
X147547500Y-112301250D03*
%TD*%
D34*
%TO.P,R35,1*%
%TO.N,/Encoders/EXT_ENCDA*%
X151040000Y-76852500D03*
%TO.P,R35,2*%
%TO.N,GND*%
X151040000Y-78047500D03*
%TD*%
%TO.P,R36,1*%
%TO.N,/Encoders/EXT_ENCDB*%
X149770000Y-76852500D03*
%TO.P,R36,2*%
%TO.N,GND*%
X149770000Y-78047500D03*
%TD*%
D25*
%TO.P,C46,1*%
%TO.N,/Inverter/ISENSE_C*%
X154215000Y-82756250D03*
%TO.P,C46,2*%
%TO.N,GNDA*%
X154215000Y-83891250D03*
%TD*%
%TO.P,C42,1*%
%TO.N,/Inverter/ISENSE_B*%
X154215000Y-92757500D03*
%TO.P,C42,2*%
%TO.N,GNDA*%
X154215000Y-93892500D03*
%TD*%
D35*
%TO.P,D3,1,K_1*%
%TO.N,GND*%
X139133750Y-73403750D03*
%TO.P,D3,2,A_2*%
%TO.N,Net-(D3-A)*%
X139133750Y-71653750D03*
%TD*%
D18*
%TO.P,C6,1*%
%TO.N,+3V3A*%
X130085000Y-90082500D03*
%TO.P,C6,2*%
%TO.N,GND*%
X130085000Y-88947500D03*
%TD*%
D12*
%TO.P,R25,1*%
%TO.N,/Gate Driver/GLC*%
X158858750Y-86816250D03*
%TO.P,R25,2*%
%TO.N,Net-(Q6-G)*%
X160683750Y-86816250D03*
%TD*%
D36*
%TO.P,U3,1,VIN_1*%
%TO.N,+5V*%
X130722500Y-105575000D03*
%TO.P,U3,2,GND_2*%
%TO.N,GND*%
X131672500Y-105575000D03*
%TO.P,U3,3,ON/~{OFF}_3*%
%TO.N,+5V*%
X132622500Y-105575000D03*
%TO.P,U3,4,BP_4*%
%TO.N,Net-(U3-BP)*%
X132622500Y-103300000D03*
%TO.P,U3,5,VOUT_5*%
%TO.N,+3V3*%
X130722500Y-103300000D03*
%TD*%
D37*
%TO.P,R2,1*%
%TO.N,+3V3*%
X123377500Y-102648750D03*
%TO.P,R2,2*%
%TO.N,Net-(D1-A)*%
X122182500Y-102648750D03*
%TD*%
D10*
%TO.P,C43,1*%
%TO.N,GND*%
X173985000Y-97135000D03*
%TO.P,C43,2*%
%TO.N,VS*%
X171910000Y-97135000D03*
%TD*%
D17*
%TO.P,TP3,1,1_1*%
%TO.N,GND*%
X139768750Y-96817500D03*
%TD*%
D21*
%TO.P,C7,1*%
%TO.N,/MCU/NRST*%
X131287500Y-87768750D03*
%TO.P,C7,2*%
%TO.N,GND*%
X130152500Y-87768750D03*
%TD*%
D10*
%TO.P,C39,1*%
%TO.N,GND*%
X173985000Y-89197500D03*
%TO.P,C39,2*%
%TO.N,VS*%
X171910000Y-89197500D03*
%TD*%
D21*
%TO.P,C40,1*%
%TO.N,+3V3*%
X157481250Y-88721250D03*
%TO.P,C40,2*%
%TO.N,GNDA*%
X156346250Y-88721250D03*
%TD*%
D33*
%TO.P,C12,1*%
%TO.N,VS*%
X148658750Y-106257500D03*
%TO.P,C12,2*%
%TO.N,GND*%
X148658750Y-108332500D03*
%TD*%
D24*
%TO.P,R4,1*%
%TO.N,/MCU/LED_R*%
X134847500Y-73126250D03*
%TO.P,R4,2*%
%TO.N,Net-(D2-A)*%
X134847500Y-71931250D03*
%TD*%
D38*
%TO.P,U7,1,GND_1*%
%TO.N,GNDA*%
X155621250Y-86027500D03*
%TO.P,U7,2,+_2*%
%TO.N,/Gate Driver/SHC*%
X156271250Y-86027500D03*
%TO.P,U7,3,-_3*%
%TO.N,/Inverter/OUT_C*%
X156921250Y-86027500D03*
%TO.P,U7,4,GND_4*%
%TO.N,GNDA*%
X157571250Y-86027500D03*
%TO.P,U7,5,V+_5*%
%TO.N,+3V3*%
X157571250Y-80302500D03*
%TO.P,U7,6,REF2_6*%
X156921250Y-80302500D03*
%TO.P,U7,7,REF1_7*%
%TO.N,GNDA*%
X156271250Y-80302500D03*
%TO.P,U7,8*%
%TO.N,Net-(R24-Pad1)*%
X155621250Y-80302500D03*
%TD*%
D12*
%TO.P,R18,1*%
%TO.N,Net-(U5-+)*%
X158991250Y-75068750D03*
%TO.P,R18,2*%
%TO.N,GND*%
X160816250Y-75068750D03*
%TD*%
D34*
%TO.P,R24,1*%
%TO.N,Net-(R24-Pad1)*%
X154215000Y-80345000D03*
%TO.P,R24,2*%
%TO.N,/Inverter/ISENSE_C*%
X154215000Y-81540000D03*
%TD*%
%TO.P,R20,1*%
%TO.N,Net-(R20-Pad1)*%
X154215000Y-90346250D03*
%TO.P,R20,2*%
%TO.N,/Inverter/ISENSE_B*%
X154215000Y-91541250D03*
%TD*%
%TO.P,R14,1*%
%TO.N,Net-(R14-Pad1)*%
X154215000Y-100347500D03*
%TO.P,R14,2*%
%TO.N,/Inverter/ISENSE_A*%
X154215000Y-101542500D03*
%TD*%
D37*
%TO.P,R3,1*%
%TO.N,GND*%
X139413750Y-77767500D03*
%TO.P,R3,2*%
%TO.N,/MCU/BOOT0*%
X138218750Y-77767500D03*
%TD*%
D24*
%TO.P,R29,1*%
%TO.N,Net-(C49-Pad2)*%
X129291250Y-111342500D03*
%TO.P,R29,2*%
%TO.N,/Communications/CAN_P*%
X129291250Y-110147500D03*
%TD*%
D34*
%TO.P,R37,1*%
%TO.N,/Encoders/EXT_ENCDI*%
X148500000Y-76852500D03*
%TO.P,R37,2*%
%TO.N,GND*%
X148500000Y-78047500D03*
%TD*%
D21*
%TO.P,C8,1*%
%TO.N,GND*%
X131287500Y-80148750D03*
%TO.P,C8,2*%
%TO.N,/MCU/OSC_IN*%
X130152500Y-80148750D03*
%TD*%
D18*
%TO.P,C5,1*%
%TO.N,+3V3A*%
X131355000Y-90082500D03*
%TO.P,C5,2*%
%TO.N,GND*%
X131355000Y-88947500D03*
%TD*%
D39*
%TO.P,R30,1*%
%TO.N,/Communications/CAN_P*%
X127981250Y-110745000D03*
%TO.P,R30,2*%
%TO.N,/Communications/CAN_N*%
X126156250Y-110745000D03*
%TD*%
D27*
%TO.P,R27,1*%
%TO.N,Net-(R27-Pad1)*%
X131392500Y-95706250D03*
%TO.P,R27,2*%
%TO.N,/Communications/USB_N*%
X132587500Y-95706250D03*
%TD*%
D40*
%TO.P,Y1,1,1_1*%
%TO.N,/MCU/OSC_IN*%
X129870000Y-81747500D03*
%TO.P,Y1,2,G_2*%
%TO.N,GND*%
X129870000Y-83947500D03*
%TO.P,Y1,3,3_3*%
%TO.N,/MCU/OSC_OUT*%
X131570000Y-83947500D03*
%TO.P,Y1,4,G_4*%
%TO.N,GND*%
X131570000Y-81747500D03*
%TD*%
D27*
%TO.P,R1,1*%
%TO.N,+3V3*%
X130122500Y-86657500D03*
%TO.P,R1,2*%
%TO.N,/MCU/NRST*%
X131317500Y-86657500D03*
%TD*%
D12*
%TO.P,R6,1*%
%TO.N,+5V*%
X139650000Y-105707500D03*
%TO.P,R6,2*%
%TO.N,Net-(U2-FB)*%
X141475000Y-105707500D03*
%TD*%
D22*
%TO.P,C18,1*%
%TO.N,Net-(U2-VCP)*%
X145007500Y-105956250D03*
%TO.P,C18,2*%
%TO.N,VS*%
X145007500Y-107681250D03*
%TD*%
D41*
%TO.P,D4,1,K_1*%
%TO.N,Net-(D4-K)*%
X139513750Y-99040000D03*
%TO.P,D4,2,A_2*%
%TO.N,GND*%
X136213750Y-99040000D03*
%TD*%
D42*
%TO.P,L1,1,1_1*%
%TO.N,Net-(D4-K)*%
X139363750Y-102373750D03*
%TO.P,L1,2,2_2*%
%TO.N,+5V*%
X136363750Y-102373750D03*
%TD*%
D39*
%TO.P,R9,1*%
%TO.N,Net-(U2-FB)*%
X141475000Y-107453750D03*
%TO.P,R9,2*%
%TO.N,GND*%
X139650000Y-107453750D03*
%TD*%
D12*
%TO.P,R12,1*%
%TO.N,/Gate Driver/GHA*%
X162827500Y-106818750D03*
%TO.P,R12,2*%
%TO.N,Net-(Q1-G)*%
X164652500Y-106818750D03*
%TD*%
D21*
%TO.P,C45,1*%
%TO.N,+3V3*%
X157481250Y-78720000D03*
%TO.P,C45,2*%
%TO.N,GNDA*%
X156346250Y-78720000D03*
%TD*%
D43*
%TO.P,J1,1,Pin_1_1*%
%TO.N,/MCU/SWDIO*%
X127229662Y-84908899D03*
%TO.P,J1,2,Pin_2_2*%
%TO.N,/MCU/SWCLK*%
X126701389Y-86041784D03*
%TO.P,J1,3,Pin_3_3*%
%TO.N,GND*%
X126173116Y-87174669D03*
D44*
%TO.P,J1,MP,MountPin_MP*%
%TO.N,unconnected-(J1-MountPin-PadMP)_1*%
X125679046Y-81372221D03*
%TO.N,unconnected-(J1-MountPin-PadMP)*%
X122467147Y-88260160D03*
%TD*%
D45*
%TO.P,U2,1,FB_1*%
%TO.N,Net-(U2-FB)*%
X144638750Y-103810000D03*
%TO.P,U2,2,PGND_2*%
%TO.N,GND*%
X145138750Y-103810000D03*
%TO.P,U2,3,CPL_3*%
%TO.N,Net-(U2-CPL)*%
X145638750Y-103810000D03*
%TO.P,U2,4,CPH_4*%
%TO.N,Net-(U2-CPH)*%
X146138750Y-103810000D03*
%TO.P,U2,5,VCP_5*%
%TO.N,Net-(U2-VCP)*%
X146638750Y-103810000D03*
%TO.P,U2,6,VM_6*%
%TO.N,VS*%
X147138750Y-103810000D03*
%TO.P,U2,7,VDRAIN_7*%
X147638750Y-103810000D03*
%TO.P,U2,8,GHA_8*%
%TO.N,/Gate Driver/GHA*%
X148138750Y-103810000D03*
%TO.P,U2,9,SHA_9*%
%TO.N,/Gate Driver/SHA*%
X148638750Y-103810000D03*
%TO.P,U2,10,GLA_10*%
%TO.N,/Gate Driver/GLA*%
X149138750Y-103810000D03*
%TO.P,U2,11,SPA_11*%
%TO.N,GND*%
X149638750Y-103810000D03*
%TO.P,U2,12,SNA_12*%
X150138750Y-103810000D03*
D46*
%TO.P,U2,13,SNB_13*%
X150888750Y-103060000D03*
%TO.P,U2,14,SPB_14*%
X150888750Y-102560000D03*
%TO.P,U2,15,GLB_15*%
%TO.N,/Gate Driver/GLB*%
X150888750Y-102060000D03*
%TO.P,U2,16,SHB_16*%
%TO.N,/Gate Driver/SHB*%
X150888750Y-101560000D03*
%TO.P,U2,17,GHB_17*%
%TO.N,/Gate Driver/GHB*%
X150888750Y-101060000D03*
%TO.P,U2,18,GHC_18*%
%TO.N,/Gate Driver/GHC*%
X150888750Y-100560000D03*
%TO.P,U2,19,SHC_19*%
%TO.N,/Gate Driver/SHC*%
X150888750Y-100060000D03*
%TO.P,U2,20,GLC_20*%
%TO.N,/Gate Driver/GLC*%
X150888750Y-99560000D03*
%TO.P,U2,21,SPC_21*%
%TO.N,GND*%
X150888750Y-99060000D03*
%TO.P,U2,22,SNC_22*%
X150888750Y-98560000D03*
%TO.P,U2,23,SOC_23*%
%TO.N,unconnected-(U2-SOC-Pad23)*%
X150888750Y-98060000D03*
%TO.P,U2,24,SOB_24*%
%TO.N,unconnected-(U2-SOB-Pad24)*%
X150888750Y-97560000D03*
D45*
%TO.P,U2,25,SOA_25*%
%TO.N,unconnected-(U2-SOA-Pad25)*%
X150138750Y-96810000D03*
%TO.P,U2,26,VREF_26*%
%TO.N,+3V3*%
X149638750Y-96810000D03*
%TO.P,U2,27,DGND_27*%
%TO.N,GND*%
X149138750Y-96810000D03*
%TO.P,U2,28,NFAULT_28*%
%TO.N,/Gate Driver/FAULT*%
X148638750Y-96810000D03*
%TO.P,U2,29,MODE_29*%
%TO.N,GND*%
X148138750Y-96810000D03*
%TO.P,U2,30,IDRIVE_30*%
%TO.N,/Gate Driver/IDRIVE*%
X147638750Y-96810000D03*
%TO.P,U2,31,VDS_31*%
%TO.N,/Gate Driver/VDS*%
X147138750Y-96810000D03*
%TO.P,U2,32,GAIN_32*%
%TO.N,unconnected-(U2-GAIN-Pad32)*%
X146638750Y-96810000D03*
%TO.P,U2,33,ENABLE_33*%
%TO.N,/Gate Driver/EN_GATE*%
X146138750Y-96810000D03*
%TO.P,U2,34,CAL_34*%
%TO.N,unconnected-(U2-CAL-Pad34)*%
X145638750Y-96810000D03*
%TO.P,U2,35,AGND_35*%
%TO.N,GND*%
X145138750Y-96810000D03*
%TO.P,U2,36,DVDD_36*%
%TO.N,DVDD*%
X144638750Y-96810000D03*
D46*
%TO.P,U2,37,INHA_37*%
%TO.N,/Gate Driver/INH_A*%
X143888750Y-97560000D03*
%TO.P,U2,38,INLA_38*%
%TO.N,/Gate Driver/INL_A*%
X143888750Y-98060000D03*
%TO.P,U2,39,INHB_39*%
%TO.N,/Gate Driver/INH_B*%
X143888750Y-98560000D03*
%TO.P,U2,40,INLB_40*%
%TO.N,/Gate Driver/INL_B*%
X143888750Y-99060000D03*
%TO.P,U2,41,INHC_41*%
%TO.N,/Gate Driver/INH_C*%
X143888750Y-99560000D03*
%TO.P,U2,42,INLC_42*%
%TO.N,/Gate Driver/INL_C*%
X143888750Y-100060000D03*
%TO.P,U2,43,BGND_43*%
%TO.N,GND*%
X143888750Y-100560000D03*
%TO.P,U2,44,CB_44*%
%TO.N,Net-(U2-CB)*%
X143888750Y-101060000D03*
%TO.P,U2,45,SW_45*%
%TO.N,Net-(D4-K)*%
X143888750Y-101560000D03*
%TO.P,U2,46,NC_46*%
%TO.N,unconnected-(U2-NC-Pad46)*%
X143888750Y-102060000D03*
%TO.P,U2,47,VIN_47*%
%TO.N,VS*%
X143888750Y-102560000D03*
%TO.P,U2,48,NSHDN_48*%
%TO.N,unconnected-(U2-NSHDN-Pad48)*%
X143888750Y-103060000D03*
D47*
%TO.P,U2,49,EP_49*%
%TO.N,GND*%
X147388750Y-100310000D03*
%TD*%
D14*
%TO.P,C11,1*%
%TO.N,Net-(U1-VCAP_2)*%
X147773750Y-82212500D03*
%TO.P,C11,2*%
%TO.N,GND*%
X148908750Y-82212500D03*
%TD*%
D34*
%TO.P,R10,1*%
%TO.N,DVDD*%
X149135000Y-93045000D03*
%TO.P,R10,2*%
%TO.N,/Gate Driver/VDS*%
X149135000Y-94240000D03*
%TD*%
D10*
%TO.P,C25,1*%
%TO.N,GND*%
X173985000Y-107136250D03*
%TO.P,C25,2*%
%TO.N,VS*%
X171910000Y-107136250D03*
%TD*%
D33*
%TO.P,C30,1*%
%TO.N,GND*%
X145483750Y-110226250D03*
%TO.P,C30,2*%
%TO.N,VS*%
X145483750Y-112301250D03*
%TD*%
D25*
%TO.P,C24,1*%
%TO.N,Net-(U3-BP)*%
X133895000Y-103393750D03*
%TO.P,C24,2*%
%TO.N,GND*%
X133895000Y-104528750D03*
%TD*%
D38*
%TO.P,U6,1,GND_1*%
%TO.N,GNDA*%
X155621250Y-96028750D03*
%TO.P,U6,2,+_2*%
%TO.N,/Gate Driver/SHB*%
X156271250Y-96028750D03*
%TO.P,U6,3,-_3*%
%TO.N,/Inverter/OUT_B*%
X156921250Y-96028750D03*
%TO.P,U6,4,GND_4*%
%TO.N,GNDA*%
X157571250Y-96028750D03*
%TO.P,U6,5,V+_5*%
%TO.N,+3V3*%
X157571250Y-90303750D03*
%TO.P,U6,6,REF2_6*%
X156921250Y-90303750D03*
%TO.P,U6,7,REF1_7*%
%TO.N,GNDA*%
X156271250Y-90303750D03*
%TO.P,U6,8*%
%TO.N,Net-(R20-Pad1)*%
X155621250Y-90303750D03*
%TD*%
D19*
%TO.P,Q4,1,S_1*%
%TO.N,GND*%
X159570000Y-91261250D03*
%TO.P,Q4,2,S_2*%
X159570000Y-92531250D03*
%TO.P,Q4,3,S_3*%
X159570000Y-93801250D03*
%TO.P,Q4,4,G_4*%
%TO.N,Net-(Q4-G)*%
X159570000Y-95071250D03*
D20*
%TO.P,Q4,5,D_5*%
%TO.N,/Gate Driver/SHB*%
X163520000Y-93166250D03*
%TD*%
D27*
%TO.P,R28,1*%
%TO.N,Net-(R26-Pad2)*%
X131392500Y-97293750D03*
%TO.P,R28,2*%
%TO.N,/Communications/USB_P*%
X132587500Y-97293750D03*
%TD*%
D48*
%TO.P,C20,1*%
%TO.N,DVDD*%
X146595000Y-94346250D03*
%TO.P,C20,2*%
%TO.N,GND*%
X146595000Y-92621250D03*
%TD*%
D14*
%TO.P,C4,1*%
%TO.N,+3V3*%
X135708750Y-77767500D03*
%TO.P,C4,2*%
%TO.N,GND*%
X136843750Y-77767500D03*
%TD*%
D33*
%TO.P,C32,1*%
%TO.N,GND*%
X151675000Y-110226250D03*
%TO.P,C32,2*%
%TO.N,VS*%
X151675000Y-112301250D03*
%TD*%
D14*
%TO.P,C21,1*%
%TO.N,GND*%
X149202500Y-95706250D03*
%TO.P,C21,2*%
%TO.N,+3V3*%
X150337500Y-95706250D03*
%TD*%
D19*
%TO.P,Q2,1,S_1*%
%TO.N,GND*%
X159596250Y-101262500D03*
%TO.P,Q2,2,S_2*%
X159596250Y-102532500D03*
%TO.P,Q2,3,S_3*%
X159596250Y-103802500D03*
%TO.P,Q2,4,G_4*%
%TO.N,Net-(Q2-G)*%
X159596250Y-105072500D03*
D20*
%TO.P,Q2,5,D_5*%
%TO.N,/Gate Driver/SHA*%
X163546250Y-103167500D03*
%TD*%
D35*
%TO.P,D2,1,K_1*%
%TO.N,GND*%
X136276250Y-73403750D03*
%TO.P,D2,2,A_2*%
%TO.N,Net-(D2-A)*%
X136276250Y-71653750D03*
%TD*%
D49*
%TO.P,C22,1*%
%TO.N,+5V*%
X132611250Y-107362500D03*
%TO.P,C22,2*%
%TO.N,GND*%
X130886250Y-107362500D03*
%TD*%
D50*
%TO.P,U9,1,TXD_1*%
%TO.N,/Communications/CAN_TX*%
X128041250Y-106278750D03*
%TO.P,U9,2,GND_2*%
%TO.N,GND*%
X127391250Y-106278750D03*
%TO.P,U9,3,VCC_3*%
%TO.N,+5V*%
X126741250Y-106278750D03*
%TO.P,U9,4,RXD_4*%
%TO.N,/Communications/CAN_RX*%
X126091250Y-106278750D03*
%TO.P,U9,5,VIO_5*%
%TO.N,+3V3*%
X126091250Y-109178750D03*
%TO.P,U9,6,CANL_6*%
%TO.N,/Communications/CAN_N*%
X126741250Y-109178750D03*
%TO.P,U9,7,CANH_7*%
%TO.N,/Communications/CAN_P*%
X127391250Y-109178750D03*
%TO.P,U9,8,S_8*%
%TO.N,GND*%
X128041250Y-109178750D03*
D51*
%TO.P,U9,9,GND_9*%
X127066250Y-107728750D03*
%TD*%
D22*
%TO.P,C15,1*%
%TO.N,Net-(U2-CB)*%
X141038750Y-98018750D03*
%TO.P,C15,2*%
%TO.N,Net-(D4-K)*%
X141038750Y-99743750D03*
%TD*%
D33*
%TO.P,C16,1*%
%TO.N,+5V*%
X136593750Y-105463750D03*
%TO.P,C16,2*%
%TO.N,GND*%
X136593750Y-107538750D03*
%TD*%
D34*
%TO.P,R7,1*%
%TO.N,DVDD*%
X151357500Y-93045000D03*
%TO.P,R7,2*%
%TO.N,/Gate Driver/IDRIVE*%
X151357500Y-94240000D03*
%TD*%
D19*
%TO.P,Q5,1,S_1*%
%TO.N,/Gate Driver/SHC*%
X167016250Y-81260000D03*
%TO.P,Q5,2,S_2*%
X167016250Y-82530000D03*
%TO.P,Q5,3,S_3*%
X167016250Y-83800000D03*
%TO.P,Q5,4,G_4*%
%TO.N,Net-(Q5-G)*%
X167016250Y-85070000D03*
D20*
%TO.P,Q5,5,D_5*%
%TO.N,VS*%
X170966250Y-83165000D03*
%TD*%
D34*
%TO.P,R11,1*%
%TO.N,GND*%
X148023750Y-93045000D03*
%TO.P,R11,2*%
%TO.N,/Gate Driver/VDS*%
X148023750Y-94240000D03*
%TD*%
D52*
%TO.P,J7,A1,GND_A1*%
%TO.N,GND*%
X125225000Y-93300000D03*
%TO.P,J7,A4,VBUS_A4*%
%TO.N,/Communications/VBUS*%
X125225000Y-94100000D03*
D53*
%TO.P,J7,A5,CC1_A5*%
%TO.N,unconnected-(J7-CC1-PadA5)*%
X125225000Y-95250000D03*
%TO.P,J7,A6,D+_A6*%
%TO.N,Net-(J7-D+-PadA6)*%
X125225000Y-96250000D03*
%TO.P,J7,A7,D-_A7*%
%TO.N,Net-(J7-D--PadA7)*%
X125225000Y-96750000D03*
%TO.P,J7,A8,SBU1_A8*%
%TO.N,unconnected-(J7-SBU1-PadA8)*%
X125225000Y-97750000D03*
D52*
%TO.P,J7,A9,VBUS_A9*%
%TO.N,/Communications/VBUS*%
X125225000Y-98900000D03*
%TO.P,J7,A12,GND_A12*%
%TO.N,GND*%
X125225000Y-99700000D03*
%TO.P,J7,B1,GND_B1*%
X125225000Y-99700000D03*
%TO.P,J7,B4,VBUS_B4*%
%TO.N,/Communications/VBUS*%
X125225000Y-98900000D03*
D53*
%TO.P,J7,B5,CC2_B5*%
%TO.N,unconnected-(J7-CC2-PadB5)*%
X125225000Y-98250000D03*
%TO.P,J7,B6,D+_B6*%
%TO.N,Net-(J7-D+-PadA6)*%
X125225000Y-97250000D03*
%TO.P,J7,B7,D-_B7*%
%TO.N,Net-(J7-D--PadA7)*%
X125225000Y-95750000D03*
%TO.P,J7,B8,SBU2_B8*%
%TO.N,unconnected-(J7-SBU2-PadB8)*%
X125225000Y-94750000D03*
D52*
%TO.P,J7,B9,VBUS_B9*%
%TO.N,/Communications/VBUS*%
X125225000Y-94100000D03*
%TO.P,J7,B12,GND_B12*%
%TO.N,GND*%
X125225000Y-93300000D03*
D54*
%TO.P,J7,S1,SHIELD_S1*%
X124625000Y-92180000D03*
D55*
X120425000Y-92180000D03*
D54*
X124625000Y-100820000D03*
D55*
X120425000Y-100820000D03*
%TD*%
D17*
%TO.P,TP6,1,1_1*%
%TO.N,/Inverter/ISENSE_B*%
X152627500Y-90467500D03*
%TD*%
D56*
%TO.P,J5,1,Pin_1_1*%
%TO.N,/Inverter/OUT_B*%
X167232500Y-97293750D03*
%TD*%
D41*
%TO.P,D5,1,K_1*%
%TO.N,+5V*%
X130623750Y-93642500D03*
%TO.P,D5,2,A_2*%
%TO.N,/Communications/VBUS*%
X127323750Y-93642500D03*
%TD*%
D57*
%TO.P,C23,1*%
%TO.N,+3V3*%
X130810000Y-101421250D03*
%TO.P,C23,2*%
%TO.N,GND*%
X132535000Y-101421250D03*
%TD*%
D33*
%TO.P,C28,1*%
%TO.N,GND*%
X149611250Y-110226250D03*
%TO.P,C28,2*%
%TO.N,VS*%
X149611250Y-112301250D03*
%TD*%
D56*
%TO.P,J6,1,Pin_1_1*%
%TO.N,/Inverter/OUT_C*%
X167232500Y-87292500D03*
%TD*%
D38*
%TO.P,U4,1,GND_1*%
%TO.N,GNDA*%
X155621250Y-106030000D03*
%TO.P,U4,2,+_2*%
%TO.N,/Gate Driver/SHA*%
X156271250Y-106030000D03*
%TO.P,U4,3,-_3*%
%TO.N,/Inverter/OUT_A*%
X156921250Y-106030000D03*
%TO.P,U4,4,GND_4*%
%TO.N,GNDA*%
X157571250Y-106030000D03*
%TO.P,U4,5,V+_5*%
%TO.N,+3V3*%
X157571250Y-100305000D03*
%TO.P,U4,6,REF2_6*%
X156921250Y-100305000D03*
%TO.P,U4,7,REF1_7*%
%TO.N,GNDA*%
X156271250Y-100305000D03*
%TO.P,U4,8*%
%TO.N,Net-(R14-Pad1)*%
X155621250Y-100305000D03*
%TD*%
D25*
%TO.P,C47,1*%
%TO.N,GND*%
X124632500Y-107796250D03*
%TO.P,C47,2*%
%TO.N,+3V3*%
X124632500Y-108931250D03*
%TD*%
D11*
%TO.P,C34,1*%
%TO.N,GND*%
X147547500Y-116587500D03*
%TO.P,C34,2*%
%TO.N,VS*%
X147547500Y-114512500D03*
%TD*%
D39*
%TO.P,R16,1*%
%TO.N,VS*%
X160816250Y-76656250D03*
%TO.P,R16,2*%
%TO.N,Net-(U5-+)*%
X158991250Y-76656250D03*
%TD*%
D21*
%TO.P,C1,1*%
%TO.N,+3V3*%
X137320000Y-92690000D03*
%TO.P,C1,2*%
%TO.N,GND*%
X136185000Y-92690000D03*
%TD*%
D15*
%TO.P,J9,1,Pin_1_1*%
%TO.N,/Communications/CAN_P*%
X156250000Y-117100000D03*
%TO.P,J9,2,Pin_2_2*%
%TO.N,/Communications/CAN_N*%
X157500000Y-117100000D03*
%TO.P,J9,3,Pin_3_3*%
%TO.N,GND*%
X158750000Y-117100000D03*
D16*
%TO.P,J9,MP,MountPin_MP*%
%TO.N,unconnected-(J9-MountPin-PadMP)_1*%
X153700000Y-120000000D03*
%TO.N,unconnected-(J9-MountPin-PadMP)*%
X161300000Y-120000000D03*
%TD*%
D12*
%TO.P,R21,1*%
%TO.N,/Gate Driver/GLB*%
X158858750Y-96817500D03*
%TO.P,R21,2*%
%TO.N,Net-(Q4-G)*%
X160683750Y-96817500D03*
%TD*%
D58*
%TO.P,U1,1,VBAT_1*%
%TO.N,unconnected-(U1-VBAT-Pad1)*%
X134093750Y-81478750D03*
%TO.P,U1,2,PC13_2*%
%TO.N,/MCU/LED_R*%
X134093750Y-81978750D03*
%TO.P,U1,3,PC14_3*%
%TO.N,/MCU/LED_G*%
X134093750Y-82478750D03*
%TO.P,U1,4,PC15_4*%
%TO.N,/MCU/IO_PC15*%
X134093750Y-82978750D03*
%TO.P,U1,5,PH0_5*%
%TO.N,/MCU/OSC_IN*%
X134093750Y-83478750D03*
%TO.P,U1,6,PH1_6*%
%TO.N,/MCU/OSC_OUT*%
X134093750Y-83978750D03*
%TO.P,U1,7,NRST_7*%
%TO.N,/MCU/NRST*%
X134093750Y-84478750D03*
%TO.P,U1,8,PC0_8*%
%TO.N,/MCU/ISENSE2_A*%
X134093750Y-84978750D03*
%TO.P,U1,9,PC1_9*%
%TO.N,/MCU/ISENSE2_B*%
X134093750Y-85478750D03*
%TO.P,U1,10,PC2_10*%
%TO.N,/MCU/ISENSE2_C*%
X134093750Y-85978750D03*
%TO.P,U1,11,PC3_11*%
%TO.N,/Inverter/ISENSE_A*%
X134093750Y-86478750D03*
%TO.P,U1,12,VSSA_12*%
%TO.N,GND*%
X134093750Y-86978750D03*
%TO.P,U1,13,VDDA_13*%
%TO.N,+3V3A*%
X134093750Y-87478750D03*
%TO.P,U1,14,PA0_14*%
%TO.N,/MCU/ENCD2_A*%
X134093750Y-87978750D03*
%TO.P,U1,15,PA1_15*%
%TO.N,/MCU/ENCD2_B*%
X134093750Y-88478750D03*
%TO.P,U1,16,PA2_16*%
%TO.N,/MCU/ENCD2_I*%
X134093750Y-88978750D03*
D59*
%TO.P,U1,17,PA3_17*%
%TO.N,/Inverter/ISENSE_B*%
X136018750Y-90903750D03*
%TO.P,U1,18,VSS_18*%
%TO.N,GND*%
X136518750Y-90903750D03*
%TO.P,U1,19,VDD_19*%
%TO.N,+3V3*%
X137018750Y-90903750D03*
%TO.P,U1,20,PA4_20*%
%TO.N,/Inverter/ISENSE_C*%
X137518750Y-90903750D03*
%TO.P,U1,21,PA5_21*%
%TO.N,/Encoders/SCK*%
X138018750Y-90903750D03*
%TO.P,U1,22,PA6_22*%
%TO.N,/Inverter/PV_SENSE*%
X138518750Y-90903750D03*
%TO.P,U1,23,PA7_23*%
%TO.N,/MCU/PWM2_AN*%
X139018750Y-90903750D03*
%TO.P,U1,24,PC4_24*%
%TO.N,/MCU/IO_PC4*%
X139518750Y-90903750D03*
%TO.P,U1,25,PC5_25*%
%TO.N,/MCU/IO_PC5*%
X140018750Y-90903750D03*
%TO.P,U1,26,PB0_26*%
%TO.N,/MCU/PWM2_BN*%
X140518750Y-90903750D03*
%TO.P,U1,27,PB1_27*%
%TO.N,/MCU/PWM2_CN*%
X141018750Y-90903750D03*
%TO.P,U1,28,PB2_28*%
%TO.N,/MCU/IO_PB2*%
X141518750Y-90903750D03*
%TO.P,U1,29,PB10_29*%
%TO.N,/Encoders/EXT_ENCDI*%
X142018750Y-90903750D03*
%TO.P,U1,30,PB11_30*%
%TO.N,/Gate Driver/FAULT*%
X142518750Y-90903750D03*
%TO.P,U1,31,VCAP_1_31*%
%TO.N,Net-(U1-VCAP_1)*%
X143018750Y-90903750D03*
%TO.P,U1,32,VDD_32*%
%TO.N,+3V3*%
X143518750Y-90903750D03*
D58*
%TO.P,U1,33,PB12_33*%
%TO.N,/MCU/EN_GATE2*%
X145443750Y-88978750D03*
%TO.P,U1,34,PB13_34*%
%TO.N,/Gate Driver/INL_A*%
X145443750Y-88478750D03*
%TO.P,U1,35,PB14_35*%
%TO.N,/Gate Driver/INL_B*%
X145443750Y-87978750D03*
%TO.P,U1,36,PB15_36*%
%TO.N,/Gate Driver/INL_C*%
X145443750Y-87478750D03*
%TO.P,U1,37,PC6_37*%
%TO.N,/MCU/PWM2_A*%
X145443750Y-86978750D03*
%TO.P,U1,38,PC7_38*%
%TO.N,/MCU/PWM2_B*%
X145443750Y-86478750D03*
%TO.P,U1,39,PC8_39*%
%TO.N,/MCU/PWM2_C*%
X145443750Y-85978750D03*
%TO.P,U1,40,PC9_40*%
%TO.N,/Gate Driver/EN_GATE*%
X145443750Y-85478750D03*
%TO.P,U1,41,PA8_41*%
%TO.N,/Gate Driver/INH_A*%
X145443750Y-84978750D03*
%TO.P,U1,42,PA9_42*%
%TO.N,/Gate Driver/INH_B*%
X145443750Y-84478750D03*
%TO.P,U1,43,PA10_43*%
%TO.N,/Gate Driver/INH_C*%
X145443750Y-83978750D03*
%TO.P,U1,44,PA11_44*%
%TO.N,/Communications/USB_N*%
X145443750Y-83478750D03*
%TO.P,U1,45,PA12_45*%
%TO.N,/Communications/USB_P*%
X145443750Y-82978750D03*
%TO.P,U1,46,PA13_46*%
%TO.N,/MCU/SWDIO*%
X145443750Y-82478750D03*
%TO.P,U1,47,VCAP_2_47*%
%TO.N,Net-(U1-VCAP_2)*%
X145443750Y-81978750D03*
%TO.P,U1,48,VDD_48*%
%TO.N,+3V3*%
X145443750Y-81478750D03*
D59*
%TO.P,U1,49,PA14_49*%
%TO.N,/MCU/SWCLK*%
X143518750Y-79553750D03*
%TO.P,U1,50,PA15_50*%
%TO.N,/Encoders/EXT_ENCDA*%
X143018750Y-79553750D03*
%TO.P,U1,51,PC10_51*%
%TO.N,/Encoders/CS0*%
X142518750Y-79553750D03*
%TO.P,U1,52,PC11_52*%
%TO.N,/Encoders/CS1*%
X142018750Y-79553750D03*
%TO.P,U1,53,PC12_53*%
%TO.N,/MCU/NFAULT2*%
X141518750Y-79553750D03*
%TO.P,U1,54,PD2_54*%
%TO.N,/MCU/IO_PD2*%
X141018750Y-79553750D03*
%TO.P,U1,55,PB3_55*%
%TO.N,/Encoders/EXT_ENCDB*%
X140518750Y-79553750D03*
%TO.P,U1,56,PB4_56*%
%TO.N,/Encoders/MISO*%
X140018750Y-79553750D03*
%TO.P,U1,57,PB5_57*%
%TO.N,/Encoders/MOSI*%
X139518750Y-79553750D03*
%TO.P,U1,58,PB6_58*%
%TO.N,/MCU/UART1_TX*%
X139018750Y-79553750D03*
%TO.P,U1,59,PB7_59*%
%TO.N,/MCU/UART1_RX*%
X138518750Y-79553750D03*
%TO.P,U1,60,BOOT0_60*%
%TO.N,/MCU/BOOT0*%
X138018750Y-79553750D03*
%TO.P,U1,61,PB8_61*%
%TO.N,/Communications/CAN_RX*%
X137518750Y-79553750D03*
%TO.P,U1,62,PB9_62*%
%TO.N,/Communications/CAN_TX*%
X137018750Y-79553750D03*
%TO.P,U1,63,VSS_63*%
%TO.N,GND*%
X136518750Y-79553750D03*
%TO.P,U1,64,VDD_64*%
%TO.N,+3V3*%
X136018750Y-79553750D03*
%TD*%
D34*
%TO.P,R8,1*%
%TO.N,GND*%
X150246250Y-93045000D03*
%TO.P,R8,2*%
%TO.N,/Gate Driver/IDRIVE*%
X150246250Y-94240000D03*
%TD*%
D24*
%TO.P,R34,1*%
%TO.N,/Encoders/EXT_ENCDI*%
X148500000Y-75348750D03*
%TO.P,R34,2*%
%TO.N,Net-(J11-Pin_3)*%
X148500000Y-74153750D03*
%TD*%
D10*
%TO.P,C26,1*%
%TO.N,GND*%
X173985000Y-109200000D03*
%TO.P,C26,2*%
%TO.N,VS*%
X171910000Y-109200000D03*
%TD*%
D17*
%TO.P,TP2,1,1_1*%
%TO.N,+3V3*%
X128815000Y-101421250D03*
%TD*%
D56*
%TO.P,J4,1,Pin_1_1*%
%TO.N,/Inverter/OUT_A*%
X167232500Y-107295000D03*
%TD*%
D12*
%TO.P,R15,1*%
%TO.N,/Gate Driver/GLA*%
X158858750Y-106818750D03*
%TO.P,R15,2*%
%TO.N,Net-(Q2-G)*%
X160683750Y-106818750D03*
%TD*%
D17*
%TO.P,TP4,1,1_1*%
%TO.N,/Inverter/ISENSE_A*%
X152627500Y-102215000D03*
%TD*%
D33*
%TO.P,C17,1*%
%TO.N,VS*%
X150722500Y-106257500D03*
%TO.P,C17,2*%
%TO.N,GND*%
X150722500Y-108332500D03*
%TD*%
D22*
%TO.P,C13,1*%
%TO.N,VS*%
X146753750Y-105956250D03*
%TO.P,C13,2*%
%TO.N,GND*%
X146753750Y-107681250D03*
%TD*%
D21*
%TO.P,C2,1*%
%TO.N,+3V3*%
X142400000Y-93960000D03*
%TO.P,C2,2*%
%TO.N,GND*%
X141265000Y-93960000D03*
%TD*%
D24*
%TO.P,R31,1*%
%TO.N,Net-(C49-Pad2)*%
X124846250Y-111342500D03*
%TO.P,R31,2*%
%TO.N,/Communications/CAN_N*%
X124846250Y-110147500D03*
%TD*%
D14*
%TO.P,C9,1*%
%TO.N,GND*%
X130152500Y-85546250D03*
%TO.P,C9,2*%
%TO.N,/MCU/OSC_OUT*%
X131287500Y-85546250D03*
%TD*%
D17*
%TO.P,TP7,1,1_1*%
%TO.N,/Inverter/ISENSE_C*%
X152627500Y-81577500D03*
%TD*%
D19*
%TO.P,Q6,1,S_1*%
%TO.N,GND*%
X159555000Y-81260000D03*
%TO.P,Q6,2,S_2*%
X159555000Y-82530000D03*
%TO.P,Q6,3,S_3*%
X159555000Y-83800000D03*
%TO.P,Q6,4,G_4*%
%TO.N,Net-(Q6-G)*%
X159555000Y-85070000D03*
D20*
%TO.P,Q6,5,D_5*%
%TO.N,/Gate Driver/SHC*%
X163505000Y-83165000D03*
%TD*%
D19*
%TO.P,Q3,1,S_1*%
%TO.N,/Gate Driver/SHB*%
X167016250Y-91261250D03*
%TO.P,Q3,2,S_2*%
X167016250Y-92531250D03*
%TO.P,Q3,3,S_3*%
X167016250Y-93801250D03*
%TO.P,Q3,4,G_4*%
%TO.N,Net-(Q3-G)*%
X167016250Y-95071250D03*
D20*
%TO.P,Q3,5,D_5*%
%TO.N,VS*%
X170966250Y-93166250D03*
%TD*%
D60*
%TO.P,J3,*%
%TO.N,*%
X134000000Y-120500000D03*
X145000000Y-120500000D03*
D61*
%TO.P,J3,1,Pin_1_1*%
%TO.N,GND*%
X142000000Y-110500000D03*
D62*
%TO.P,J3,2,Pin_2_2*%
%TO.N,VS*%
X137000000Y-110500000D03*
%TD*%
D60*
%TO.P,J2,*%
%TO.N,*%
X152000000Y-120500000D03*
X163000000Y-120500000D03*
D61*
%TO.P,J2,1,Pin_1_1*%
%TO.N,GND*%
X160000000Y-110500000D03*
D62*
%TO.P,J2,2,Pin_2_2*%
%TO.N,VS*%
X155000000Y-110500000D03*
%TD*%
D63*
%TO.N,GND*%
X160088750Y-91261250D03*
D64*
X136276250Y-74275000D03*
D63*
X158501250Y-79990000D03*
D64*
X137332321Y-77778550D03*
X151675000Y-116661250D03*
X146753750Y-108406250D03*
X141038750Y-104437500D03*
X127703750Y-104404100D03*
D63*
X160088750Y-83800000D03*
D64*
X146067896Y-75017896D03*
D63*
X160088750Y-89991250D03*
D64*
X145325000Y-99833750D03*
D63*
X158501250Y-92531250D03*
D64*
X139133750Y-74275000D03*
X127703750Y-108088750D03*
X148023750Y-101103750D03*
X175011250Y-87133750D03*
D63*
X159295000Y-83165000D03*
D64*
X149293750Y-101103750D03*
D63*
X159295000Y-103167500D03*
D64*
X149293750Y-98246250D03*
D63*
X160088750Y-99992500D03*
D64*
X148023750Y-99833750D03*
X145483750Y-110152500D03*
D63*
X160088750Y-93801250D03*
X159295000Y-90626250D03*
D64*
X133895000Y-105160100D03*
D63*
X158501250Y-81260000D03*
X158501250Y-93801250D03*
X159295000Y-80625000D03*
D64*
X150722500Y-108723750D03*
D63*
X158501250Y-83800000D03*
D64*
X127227500Y-96500000D03*
X139610000Y-108247500D03*
X126275000Y-108088750D03*
X129450000Y-87768750D03*
X148023750Y-98246250D03*
X131990000Y-88880000D03*
D63*
X160088750Y-92531250D03*
D64*
X127066250Y-107728750D03*
X125798750Y-88245000D03*
X149770000Y-80942500D03*
X137070000Y-99040000D03*
D63*
X159295000Y-100627500D03*
D64*
X133577500Y-101421250D03*
D63*
X158501250Y-101262500D03*
X158501250Y-91261250D03*
D64*
X129450000Y-88880000D03*
X175011250Y-107136250D03*
X175011250Y-99198750D03*
X131196250Y-110152500D03*
X150246250Y-92372500D03*
D63*
X158501250Y-82530000D03*
D64*
X149611250Y-110152500D03*
X149293750Y-99833750D03*
D63*
X159295000Y-91896250D03*
X159295000Y-101897500D03*
X158501250Y-102532500D03*
D64*
X158818750Y-117931250D03*
X139768750Y-96817500D03*
X146595000Y-101103750D03*
D63*
X158501250Y-99992500D03*
D64*
X132783750Y-86975000D03*
X123735000Y-104913750D03*
X147547500Y-110152500D03*
X126275000Y-107295000D03*
X135482500Y-92690000D03*
X138816250Y-77204700D03*
X175001795Y-108878084D03*
X149770000Y-78720000D03*
X137705000Y-107453750D03*
D63*
X160088750Y-103802500D03*
D64*
X149293750Y-102373750D03*
D63*
X158501250Y-89991250D03*
D64*
X124687500Y-106977500D03*
X131672500Y-106660000D03*
X141197500Y-94595000D03*
X151040000Y-78720000D03*
X148658750Y-108723750D03*
X148023750Y-102373750D03*
X140721250Y-117931250D03*
X128815000Y-82934050D03*
D63*
X160088750Y-102532500D03*
X160088750Y-82530000D03*
D64*
X132466250Y-81736250D03*
D63*
X159295000Y-93166250D03*
D64*
X161200000Y-73798750D03*
X146595000Y-102373750D03*
X147547500Y-116661250D03*
D63*
X160088750Y-79990000D03*
D64*
X130878750Y-108247500D03*
D63*
X160088750Y-81260000D03*
X160088750Y-101262500D03*
D64*
X145325000Y-102373750D03*
X145483750Y-116661250D03*
D63*
X159295000Y-81895000D03*
D64*
X149611250Y-116661250D03*
X147230000Y-91578750D03*
X127703750Y-107295000D03*
X146595000Y-99833750D03*
X145325000Y-101103750D03*
X175011250Y-97135000D03*
X148500000Y-78561250D03*
X151675000Y-110152500D03*
D63*
X158501250Y-103802500D03*
D64*
X175011250Y-89197500D03*
X148023750Y-92372500D03*
X161676250Y-75068750D03*
X149770000Y-82212500D03*
%TO.N,VS*%
X141038750Y-102373750D03*
D63*
X151833750Y-106977500D03*
D64*
%TO.N,/Gate Driver/GHB*%
X158818750Y-97770000D03*
X161517500Y-98087500D03*
D63*
%TO.N,/Communications/VBUS*%
X126433750Y-94100000D03*
X126433750Y-98881250D03*
%TO.N,+3V3*%
X140562500Y-76497500D03*
X142150000Y-94753750D03*
X155167500Y-92372500D03*
X128656250Y-88086250D03*
D64*
X127703750Y-101421250D03*
D63*
X147706250Y-80035200D03*
D64*
X125640000Y-102691250D03*
X127703750Y-98881250D03*
X150563752Y-91102500D03*
D63*
X153262500Y-79355000D03*
X144848750Y-76497500D03*
X155167500Y-102215000D03*
D64*
%TO.N,/Communications/CAN_P*%
X127420350Y-112090900D03*
X138523400Y-118040120D03*
X156523400Y-118053514D03*
%TO.N,/Communications/CAN_N*%
X126717150Y-112090900D03*
X157226600Y-118053514D03*
X139226600Y-118040120D03*
D63*
%TO.N,+5V*%
X127703750Y-88721250D03*
X141197500Y-72211250D03*
D64*
%TO.N,GNDA*%
X155643750Y-94912500D03*
X157571250Y-86027502D03*
X157571250Y-96028752D03*
X154850000Y-83958750D03*
X156278750Y-101421250D03*
X155643750Y-104913750D03*
X153546600Y-74910000D03*
X156278750Y-91420000D03*
X155643750Y-85070000D03*
X155008750Y-103802500D03*
X157548750Y-105707500D03*
X156120000Y-75862500D03*
X154850000Y-93801250D03*
X156278750Y-81418750D03*
D63*
%TO.N,/Gate Driver/SHA*%
X165486250Y-101580000D03*
X164375000Y-101580000D03*
X165486250Y-103802500D03*
X164375000Y-103802500D03*
X164375000Y-102691250D03*
D64*
X156278750Y-104437500D03*
D63*
X165486250Y-102691250D03*
D64*
%TO.N,/Inverter/PV_SENSE*%
X138527750Y-86284441D03*
X154850000Y-73163750D03*
%TO.N,/Inverter/ISENSE_A*%
X136946429Y-89522273D03*
X152627500Y-102215000D03*
%TO.N,/Inverter/ISENSE_C*%
X137519750Y-88217250D03*
X152627500Y-81577500D03*
%TO.N,/Inverter/ISENSE_B*%
X152627498Y-90467500D03*
X135982566Y-88745066D03*
%TO.N,/Encoders/EXT_ENCDI*%
X146436250Y-77174510D03*
X146436250Y-78878750D03*
%TO.N,/Communications/USB_N*%
X142943750Y-84357853D03*
X133736250Y-96148400D03*
%TO.N,/MCU/SWDIO*%
X128815000Y-85221575D03*
X142626250Y-82502250D03*
%TO.N,/MCU/SWCLK*%
X143499375Y-81201464D03*
X128338750Y-86181250D03*
%TO.N,/Gate Driver/GLB*%
X158818750Y-96023750D03*
X157390000Y-98010100D03*
%TO.N,/Gate Driver/SHB*%
X156278750Y-94436250D03*
D63*
X165486250Y-92690000D03*
X165486250Y-91578750D03*
X165486250Y-93801250D03*
X164375000Y-91578750D03*
X164375000Y-92690000D03*
X164375000Y-93801250D03*
%TO.N,/Gate Driver/SHC*%
X165486250Y-83800000D03*
X164375000Y-82688750D03*
X165486250Y-82688750D03*
D64*
X156278750Y-84435000D03*
D63*
X164375000Y-81577500D03*
X164375000Y-83800000D03*
X165486250Y-81577500D03*
D64*
%TO.N,/Gate Driver/FAULT*%
X142522750Y-89515000D03*
X148459537Y-96040553D03*
%TO.N,/Gate Driver/EN_GATE*%
X143737500Y-87451250D03*
X147206210Y-95350222D03*
%TO.N,/Gate Driver/INL_B*%
X145161939Y-90837731D03*
X146753750Y-87927500D03*
%TO.N,/Gate Driver/INL_C*%
X143578750Y-89673750D03*
X144390020Y-87508080D03*
%TO.N,/Communications/USB_P*%
X133736250Y-96851600D03*
X142943750Y-83607850D03*
%TO.N,/Communications/CAN_TX*%
X137005184Y-84736329D03*
X128473684Y-103086650D03*
%TO.N,/Communications/CAN_RX*%
X137509184Y-85218184D03*
X125726550Y-103632018D03*
%TO.N,/Inverter/OUT_B*%
X156913750Y-95071250D03*
%TO.N,/Inverter/OUT_C*%
X156913750Y-85070000D03*
%TO.N,/Encoders/SCK*%
X138443191Y-81998191D03*
X140648238Y-92097614D03*
%TO.N,/Encoders/CS0*%
X141197500Y-89673750D03*
%TO.N,/Encoders/CS1*%
X142467500Y-78271500D03*
%TO.N,/Encoders/MISO*%
X140022750Y-81419750D03*
X140022750Y-89197500D03*
%TO.N,/Encoders/MOSI*%
X139518750Y-80942500D03*
X139518750Y-89673750D03*
%TO.N,/Inverter/OUT_A*%
X156913750Y-105072500D03*
%TD*%
%TO.N,GND*%
D65*
X149138750Y-96910000D02*
X149138750Y-98560000D01*
D66*
X148658750Y-108086250D02*
X148658750Y-108723750D01*
D65*
X145138750Y-98060000D02*
X147388750Y-100310000D01*
D66*
X139650000Y-107453750D02*
X139650000Y-108207500D01*
X130085000Y-88947500D02*
X129517500Y-88947500D01*
X136593750Y-107538750D02*
X137620000Y-107538750D01*
X141265000Y-93007500D02*
X141265000Y-93960000D01*
X130886250Y-107362500D02*
X130886250Y-108240000D01*
X138816250Y-77204700D02*
X139379050Y-77767500D01*
D67*
X125225000Y-93300000D02*
X125225000Y-92780000D01*
D66*
X173985000Y-89197500D02*
X175011250Y-89197500D01*
X151675000Y-110226250D02*
X151675000Y-110152500D01*
X148908750Y-80942500D02*
X149770000Y-80942500D01*
X124632500Y-107796250D02*
X124632500Y-107032500D01*
X130402500Y-110177500D02*
X131171250Y-110177500D01*
D65*
X145138750Y-96910000D02*
X145138750Y-98060000D01*
X150788750Y-99060000D02*
X148638750Y-99060000D01*
D66*
X151040000Y-78047500D02*
X151040000Y-78720000D01*
X173985000Y-97135000D02*
X175011250Y-97135000D01*
X132455000Y-81747500D02*
X132466250Y-81736250D01*
D65*
X145138750Y-102560000D02*
X147388750Y-100310000D01*
D66*
X158818750Y-116668750D02*
X158750000Y-116600000D01*
D65*
X150788750Y-98560000D02*
X149138750Y-98560000D01*
D66*
X174679879Y-109200000D02*
X175001795Y-108878084D01*
X130886250Y-108240000D02*
X130878750Y-108247500D01*
D68*
X146000000Y-74088750D02*
X146027500Y-74116250D01*
D66*
X158818750Y-117931250D02*
X158818750Y-116668750D01*
D65*
X150788750Y-102560000D02*
X149638750Y-102560000D01*
D66*
X123655000Y-104833750D02*
X123735000Y-104913750D01*
X146753750Y-107681250D02*
X146753750Y-108406250D01*
D65*
X145138750Y-103710000D02*
X145138750Y-102560000D01*
X148138750Y-96910000D02*
X148138750Y-99560000D01*
X148638750Y-99060000D02*
X147388750Y-100310000D01*
D66*
X127391250Y-105082500D02*
X127581250Y-104892500D01*
X128815000Y-82934050D02*
X128815000Y-83507893D01*
X160816250Y-75068750D02*
X161676250Y-75068750D01*
X126173116Y-87870634D02*
X125798750Y-88245000D01*
X127518750Y-96500000D02*
X127227500Y-96500000D01*
X149611250Y-116587500D02*
X149611250Y-116661250D01*
D65*
X148138750Y-99560000D02*
X147388750Y-100310000D01*
D66*
X173985000Y-107136250D02*
X175011250Y-107136250D01*
X133895000Y-104528750D02*
X133895000Y-105160100D01*
D67*
X125225000Y-100220000D02*
X124625000Y-100820000D01*
X125225000Y-92780000D02*
X124625000Y-92180000D01*
D65*
X148023750Y-93045000D02*
X148023750Y-92372500D01*
D66*
X160471250Y-73798750D02*
X161200000Y-73798750D01*
X136185000Y-92690000D02*
X136518750Y-92356250D01*
X136518750Y-92356250D02*
X136518750Y-90903750D01*
D65*
X149138750Y-95960000D02*
X149138750Y-96910000D01*
D66*
X130152500Y-84230000D02*
X129870000Y-83947500D01*
D68*
X146027500Y-74116250D02*
X146027500Y-74977500D01*
D66*
X128815000Y-83507893D02*
X129254607Y-83947500D01*
X139650000Y-108207500D02*
X139610000Y-108247500D01*
X127581250Y-104526600D02*
X127703750Y-104404100D01*
X136843750Y-77767500D02*
X136518750Y-78092500D01*
X137620000Y-107538750D02*
X137705000Y-107453750D01*
X136213750Y-99040000D02*
X137070000Y-99040000D01*
X136518750Y-78092500D02*
X136518750Y-79553750D01*
X131287500Y-80148750D02*
X131287500Y-81465000D01*
X136843750Y-77767500D02*
X137321271Y-77767500D01*
X137321271Y-77767500D02*
X137332321Y-77778550D01*
X147547500Y-116587500D02*
X147547500Y-116661250D01*
X139133750Y-73403750D02*
X139133750Y-74275000D01*
X136185000Y-92690000D02*
X135482500Y-92690000D01*
X148500000Y-78561250D02*
X148500000Y-78047500D01*
X140721250Y-116628750D02*
X140750000Y-116600000D01*
X134090000Y-86975000D02*
X134093750Y-86978750D01*
X128041250Y-109178750D02*
X128041250Y-108426250D01*
X129517500Y-88947500D02*
X129450000Y-88880000D01*
D65*
X150246250Y-92372500D02*
X150246250Y-93045000D01*
D68*
X146000000Y-72046250D02*
X146000000Y-74088750D01*
D66*
X129254607Y-83947500D02*
X129870000Y-83947500D01*
D65*
X146595000Y-92213750D02*
X147230000Y-91578750D01*
D67*
X125225000Y-99700000D02*
X125225000Y-100220000D01*
D66*
X127581250Y-104892500D02*
X127581250Y-104526600D01*
X131672500Y-105575000D02*
X131672500Y-106660000D01*
X136276250Y-73403750D02*
X136276250Y-74275000D01*
X128041250Y-108426250D02*
X127703750Y-108088750D01*
X127391250Y-106278750D02*
X127391250Y-105082500D01*
D65*
X147138750Y-100560000D02*
X147388750Y-100310000D01*
D66*
X139379050Y-77767500D02*
X139413750Y-77767500D01*
D65*
X150138750Y-103710000D02*
X149638750Y-103710000D01*
D66*
X145483750Y-110226250D02*
X145483750Y-110152500D01*
X173985000Y-109200000D02*
X174679879Y-109200000D01*
D65*
X149638750Y-102560000D02*
X147388750Y-100310000D01*
D66*
X147547500Y-110226250D02*
X147547500Y-110152500D01*
D65*
X150788750Y-103060000D02*
X150788750Y-102560000D01*
D66*
X132783750Y-86975000D02*
X134090000Y-86975000D01*
X130152500Y-87768750D02*
X129450000Y-87768750D01*
X149611250Y-110226250D02*
X149611250Y-110152500D01*
X130152500Y-85546250D02*
X130152500Y-84230000D01*
D68*
X146027500Y-74977500D02*
X146067896Y-75017896D01*
D66*
X145483750Y-116587500D02*
X145483750Y-116661250D01*
D65*
X149138750Y-98560000D02*
X147388750Y-100310000D01*
D66*
X131570000Y-81747500D02*
X132455000Y-81747500D01*
D65*
X149638750Y-103710000D02*
X149638750Y-102560000D01*
D66*
X173985000Y-87140000D02*
X175005000Y-87140000D01*
X148908750Y-82212500D02*
X149770000Y-82212500D01*
X131287500Y-81465000D02*
X131570000Y-81747500D01*
X141265000Y-93960000D02*
X141265000Y-94527500D01*
X140721250Y-117931250D02*
X140721250Y-116628750D01*
X131355000Y-88947500D02*
X131922500Y-88947500D01*
D65*
X146595000Y-92621250D02*
X146595000Y-92213750D01*
D66*
X173985000Y-99198750D02*
X175011250Y-99198750D01*
D65*
X143988750Y-100560000D02*
X147138750Y-100560000D01*
D66*
X131171250Y-110177500D02*
X131196250Y-110152500D01*
X151675000Y-116587500D02*
X151675000Y-116661250D01*
X132535000Y-101421250D02*
X133577500Y-101421250D01*
X123655000Y-104077500D02*
X123655000Y-104833750D01*
X149770000Y-78047500D02*
X149770000Y-78720000D01*
X141265000Y-94527500D02*
X141197500Y-94595000D01*
X126173116Y-87174669D02*
X126173116Y-87870634D01*
X150722500Y-108086250D02*
X150722500Y-108723750D01*
X141038750Y-103570000D02*
X141038750Y-104437500D01*
X131922500Y-88947500D02*
X131990000Y-88880000D01*
X124632500Y-107032500D02*
X124687500Y-106977500D01*
X175005000Y-87140000D02*
X175011250Y-87133750D01*
%TO.N,VS*%
D67*
X150722500Y-106011250D02*
X148658750Y-106011250D01*
X141038750Y-101495000D02*
X141038750Y-102373750D01*
X162470000Y-79672500D02*
X170090000Y-79672500D01*
D65*
X147388750Y-103710000D02*
X147638750Y-103710000D01*
D66*
X141906250Y-101495000D02*
X141038750Y-101495000D01*
D67*
X147388750Y-104913750D02*
X147388750Y-103710000D01*
X170966250Y-80548750D02*
X170966250Y-83165000D01*
X146808750Y-106011250D02*
X146753750Y-105956250D01*
X155000000Y-110500000D02*
X155000000Y-110143750D01*
D65*
X147138750Y-103710000D02*
X147388750Y-103710000D01*
D67*
X160816250Y-76656250D02*
X160816250Y-78018750D01*
X146753750Y-105956250D02*
X146753750Y-105548750D01*
D66*
X142971250Y-102560000D02*
X141906250Y-101495000D01*
D67*
X150867500Y-106011250D02*
X150722500Y-106011250D01*
X170090000Y-79672500D02*
X170966250Y-80548750D01*
X155000000Y-110143750D02*
X150867500Y-106011250D01*
X160816250Y-78018750D02*
X162470000Y-79672500D01*
D66*
X143988750Y-102560000D02*
X142971250Y-102560000D01*
D65*
X141141250Y-101597500D02*
X141038750Y-101495000D01*
D67*
X148658750Y-106011250D02*
X146808750Y-106011250D01*
X145007500Y-107451250D02*
X145028750Y-107451250D01*
X146753750Y-105548750D02*
X147388750Y-104913750D01*
X145028750Y-107681250D02*
X146753750Y-105956250D01*
%TO.N,/Gate Driver/GHB*%
D65*
X150788750Y-101060000D02*
X151481182Y-101060000D01*
X158501250Y-97770000D02*
X158818750Y-97770000D01*
X155400740Y-97135000D02*
X157866250Y-97135000D01*
X161557500Y-98087500D02*
X162827500Y-96817500D01*
X153625450Y-98910290D02*
X155400740Y-97135000D01*
X157866250Y-97135000D02*
X158501250Y-97770000D01*
X153625450Y-98915732D02*
X153625450Y-98910290D01*
X161517500Y-98087500D02*
X161557500Y-98087500D01*
X151481182Y-101060000D02*
X153625450Y-98915732D01*
%TO.N,Net-(Q3-G)*%
X164652500Y-96817500D02*
X165140000Y-96817500D01*
X166886250Y-95071250D02*
X167016250Y-95071250D01*
X165140000Y-96817500D02*
X166886250Y-95071250D01*
%TO.N,Net-(J7-D--PadA7)*%
X125225000Y-95750000D02*
X126433750Y-95750000D01*
X125225000Y-96750000D02*
X126183750Y-96750000D01*
X127318750Y-95750000D02*
X127518750Y-95550000D01*
X126433750Y-96500000D02*
X126433750Y-95750000D01*
X126183750Y-96750000D02*
X126433750Y-96500000D01*
X126433750Y-95750000D02*
X127318750Y-95750000D01*
%TO.N,Net-(J7-D+-PadA6)*%
X124302500Y-96250000D02*
X125225000Y-96250000D01*
X125225000Y-97250000D02*
X127318750Y-97250000D01*
X127318750Y-97250000D02*
X127518750Y-97450000D01*
X124052500Y-96976250D02*
X124052500Y-96500000D01*
X124052500Y-96500000D02*
X124302500Y-96250000D01*
X124326250Y-97250000D02*
X124052500Y-96976250D01*
X125225000Y-97250000D02*
X124326250Y-97250000D01*
%TO.N,Net-(R26-Pad2)*%
X129762500Y-97481250D02*
X129793750Y-97450000D01*
X129762500Y-98881250D02*
X129762500Y-97481250D01*
X129793750Y-97450000D02*
X131390000Y-97450000D01*
X131390000Y-97450000D02*
X131392500Y-97452500D01*
%TO.N,/Communications/VBUS*%
D67*
X125225000Y-98900000D02*
X126415000Y-98900000D01*
D66*
X128656250Y-94118750D02*
X128180000Y-93642500D01*
X128656250Y-96182500D02*
X128656250Y-94118750D01*
X128180000Y-93642500D02*
X127323750Y-93642500D01*
D67*
X126866250Y-94100000D02*
X127323750Y-93642500D01*
X126433750Y-94100000D02*
X126866250Y-94100000D01*
X126415000Y-98900000D02*
X126433750Y-98881250D01*
X125225000Y-94100000D02*
X126433750Y-94100000D01*
D66*
X128973750Y-96500000D02*
X128656250Y-96182500D01*
X129793750Y-96500000D02*
X128973750Y-96500000D01*
%TO.N,Net-(R27-Pad1)*%
D65*
X131390000Y-95550000D02*
X131392500Y-95547500D01*
X129793750Y-95550000D02*
X131390000Y-95550000D01*
%TO.N,+3V3*%
D66*
X124880000Y-109178750D02*
X124632500Y-108931250D01*
D67*
X131355000Y-100151250D02*
X133260000Y-100151250D01*
X128656250Y-87610000D02*
X128656250Y-87292500D01*
D66*
X157571250Y-80302500D02*
X157571250Y-78810000D01*
X153327500Y-76812500D02*
X153262500Y-76747500D01*
D67*
X130810000Y-100696250D02*
X131355000Y-100151250D01*
D66*
X143518750Y-90903750D02*
X143518750Y-93385000D01*
X151357500Y-95706250D02*
X152151250Y-94912500D01*
D67*
X152582300Y-80035200D02*
X153262500Y-79355000D01*
X130722500Y-103300000D02*
X130722500Y-101508750D01*
X137320000Y-95480000D02*
X137387500Y-95547500D01*
X123377500Y-102648750D02*
X124846250Y-102648750D01*
X130810000Y-101421250D02*
X128815000Y-101421250D01*
X130810000Y-101421250D02*
X130810000Y-100696250D01*
X137320000Y-92690000D02*
X137320000Y-95480000D01*
X153262500Y-77926250D02*
X153262500Y-79355000D01*
X130722500Y-101508750D02*
X130810000Y-101421250D01*
X142400000Y-94503750D02*
X142150000Y-94753750D01*
X135482500Y-97928750D02*
X135482500Y-95547500D01*
X123576250Y-108406250D02*
X123576250Y-106818750D01*
X128656250Y-87292500D02*
X129291250Y-86657500D01*
D65*
X149638750Y-96910000D02*
X149638750Y-96405000D01*
D67*
X138657500Y-76497500D02*
X142785000Y-76497500D01*
D66*
X157571250Y-91873750D02*
X157231250Y-92213750D01*
X157231250Y-102215000D02*
X155167500Y-102215000D01*
D67*
X128567500Y-98881250D02*
X127703750Y-98881250D01*
X130778200Y-92511950D02*
X129845000Y-91578750D01*
D66*
X156921250Y-80302500D02*
X157571250Y-80302500D01*
X128656250Y-90150000D02*
X128656250Y-90308750D01*
X143518750Y-93385000D02*
X142943750Y-93960000D01*
D67*
X135482500Y-94277500D02*
X133716950Y-92511950D01*
D66*
X136018750Y-79553750D02*
X136018750Y-78077500D01*
D67*
X125597500Y-102648750D02*
X125640000Y-102691250D01*
X135708750Y-77065000D02*
X136276250Y-76497500D01*
D66*
X150337500Y-95706250D02*
X151357500Y-95706250D01*
X154797500Y-76812500D02*
X153327500Y-76812500D01*
D67*
X142400000Y-93960000D02*
X142400000Y-94503750D01*
X129845000Y-91578750D02*
X129291250Y-91578750D01*
D66*
X157571250Y-90303750D02*
X157571250Y-91873750D01*
X137018750Y-92388750D02*
X137018750Y-90903750D01*
D67*
X142785000Y-76497500D02*
X144690000Y-76497500D01*
D66*
X137320000Y-92690000D02*
X137018750Y-92388750D01*
X157231250Y-92213750D02*
X157072500Y-92372500D01*
X157571250Y-100305000D02*
X157571250Y-98812500D01*
D67*
X157481250Y-78720000D02*
X157481250Y-78176250D01*
X147706250Y-80035200D02*
X152582300Y-80035200D01*
X124632500Y-108931250D02*
X124101250Y-108931250D01*
D66*
X147237500Y-81478750D02*
X147773750Y-80942500D01*
D67*
X124101250Y-108931250D02*
X123576250Y-108406250D01*
X135482500Y-95547500D02*
X137387500Y-95547500D01*
D66*
X157571250Y-100305000D02*
X157571250Y-101875000D01*
D67*
X128656250Y-90943750D02*
X128656250Y-90308750D01*
X135708750Y-77767500D02*
X135708750Y-77065000D01*
X142782500Y-76495000D02*
X142785000Y-76497500D01*
D66*
X136018750Y-78077500D02*
X135708750Y-77767500D01*
D67*
X124846250Y-105548750D02*
X124846250Y-102648750D01*
X128656250Y-90150000D02*
X128656250Y-87610000D01*
D66*
X157571250Y-98812500D02*
X157481250Y-98722500D01*
D67*
X157231250Y-77926250D02*
X153262500Y-77926250D01*
D66*
X157571250Y-90303750D02*
X157571250Y-88811250D01*
X152151250Y-94912500D02*
X152151250Y-92690000D01*
X156921250Y-100305000D02*
X157571250Y-100305000D01*
D67*
X129291250Y-91578750D02*
X128656250Y-90943750D01*
X135482500Y-95547500D02*
X135482500Y-94277500D01*
D66*
X157072500Y-92372500D02*
X155167500Y-92372500D01*
X156921250Y-90303750D02*
X157571250Y-90303750D01*
D67*
X123576250Y-106818750D02*
X124846250Y-105548750D01*
X142782500Y-74738750D02*
X142782500Y-76495000D01*
X133716950Y-92511950D02*
X130778200Y-92511950D01*
X133260000Y-100151250D02*
X135482500Y-97928750D01*
X128815000Y-101421250D02*
X127703750Y-101421250D01*
D66*
X145443750Y-81478750D02*
X147237500Y-81478750D01*
X157571250Y-101875000D02*
X157231250Y-102215000D01*
D67*
X142150000Y-94753750D02*
X141356250Y-95547500D01*
D66*
X126091250Y-109178750D02*
X124880000Y-109178750D01*
X142943750Y-93960000D02*
X142400000Y-93960000D01*
X152151250Y-92690000D02*
X150563752Y-91102500D01*
X157571250Y-78810000D02*
X157481250Y-78720000D01*
D67*
X147706250Y-80875000D02*
X147773750Y-80942500D01*
X141356250Y-95547500D02*
X137387500Y-95547500D01*
X144690000Y-76497500D02*
X144848750Y-76497500D01*
X147706250Y-80035200D02*
X147706250Y-80875000D01*
X129291250Y-86657500D02*
X130122500Y-86657500D01*
D65*
X149638750Y-96405000D02*
X150337500Y-95706250D01*
D67*
X136276250Y-76497500D02*
X138657500Y-76497500D01*
X124846250Y-102648750D02*
X125597500Y-102648750D01*
X157481250Y-78176250D02*
X157231250Y-77926250D01*
X153262500Y-76747500D02*
X153262500Y-77926250D01*
D66*
X157571250Y-88811250D02*
X157481250Y-88721250D01*
%TO.N,/Communications/CAN_P*%
D65*
X156671799Y-117905115D02*
X156671799Y-117521799D01*
X156671799Y-117521799D02*
X156250000Y-117100000D01*
X127391250Y-109178750D02*
X127391250Y-110155000D01*
X138523400Y-118040120D02*
X138671799Y-117891721D01*
X138671799Y-117891721D02*
X138671799Y-117521799D01*
X128693750Y-110745000D02*
X129291250Y-110147500D01*
X127981250Y-111530000D02*
X127420350Y-112090900D01*
X127981250Y-110745000D02*
X127981250Y-111530000D01*
X138671799Y-117521799D02*
X138250000Y-117100000D01*
X127981250Y-110745000D02*
X128693750Y-110745000D01*
X156523400Y-118053514D02*
X156671799Y-117905115D01*
X127391250Y-110155000D02*
X127981250Y-110745000D01*
%TO.N,/Communications/CAN_N*%
X126156250Y-111530000D02*
X126717150Y-112090900D01*
X126156250Y-110745000D02*
X125443750Y-110745000D01*
X139078201Y-117521799D02*
X139500000Y-117100000D01*
X126741250Y-109178750D02*
X126741250Y-110160000D01*
X157226600Y-118053514D02*
X157078201Y-117905115D01*
X125443750Y-110745000D02*
X124846250Y-110147500D01*
X139226600Y-118040120D02*
X139078201Y-117891721D01*
X126741250Y-110160000D02*
X126156250Y-110745000D01*
X157078201Y-117521799D02*
X157500000Y-117100000D01*
X157078201Y-117905115D02*
X157078201Y-117521799D01*
X139078201Y-117891721D02*
X139078201Y-117521799D01*
X126156250Y-110745000D02*
X126156250Y-111530000D01*
%TO.N,+5V*%
D67*
X134462500Y-107362500D02*
X134530000Y-107295000D01*
X139406250Y-105463750D02*
X139650000Y-105707500D01*
X126433750Y-104880000D02*
X126446250Y-104892500D01*
X141197500Y-72211250D02*
X142710000Y-72211250D01*
X129291250Y-102850000D02*
X128820700Y-102379450D01*
X129767500Y-93642500D02*
X127703750Y-91578750D01*
X136681250Y-105376250D02*
X136593750Y-105463750D01*
X127703750Y-88880000D02*
X127703750Y-88721250D01*
X132611250Y-107362500D02*
X132611250Y-105586250D01*
X136520000Y-105390000D02*
X136593750Y-105463750D01*
D66*
X126741250Y-105187500D02*
X126446250Y-104892500D01*
D67*
X134530000Y-107295000D02*
X134530000Y-108406250D01*
X129291250Y-108088750D02*
X129291250Y-102850000D01*
X134530000Y-97611250D02*
X134530000Y-94753750D01*
X128820700Y-102379450D02*
X126439450Y-102379450D01*
X126433750Y-104278750D02*
X126433750Y-104880000D01*
X134530000Y-106025000D02*
X134530000Y-107295000D01*
X127703750Y-99833750D02*
X130436119Y-99833750D01*
X126433750Y-102373750D02*
X126433750Y-101103750D01*
X136593750Y-105463750D02*
X135091250Y-105463750D01*
X130243750Y-109041250D02*
X129291250Y-108088750D01*
X130623750Y-93642500D02*
X129767500Y-93642500D01*
X135091250Y-105463750D02*
X134530000Y-106025000D01*
X127703750Y-91578750D02*
X127703750Y-88880000D01*
X136593750Y-105463750D02*
X139406250Y-105463750D01*
X132611250Y-105586250D02*
X132622500Y-105575000D01*
X132611250Y-107362500D02*
X134462500Y-107362500D01*
X130722500Y-104911250D02*
X131196250Y-104437500D01*
X132147499Y-104437500D02*
X132622500Y-104912501D01*
X126433750Y-101103750D02*
X127703750Y-99833750D01*
X134530000Y-108406250D02*
X133895000Y-109041250D01*
X131196250Y-104437500D02*
X132147499Y-104437500D01*
X133895000Y-109041250D02*
X130243750Y-109041250D01*
X126433750Y-104278750D02*
X126433750Y-102373750D01*
X133418750Y-93642500D02*
X130623750Y-93642500D01*
D66*
X126741250Y-106278750D02*
X126741250Y-105187500D01*
D67*
X130436119Y-99833750D02*
X131071119Y-99198750D01*
X136363750Y-102373750D02*
X136363750Y-105376250D01*
X131071119Y-99198750D02*
X132942500Y-99198750D01*
X142710000Y-72211250D02*
X142782500Y-72138750D01*
X126439450Y-102379450D02*
X126433750Y-102373750D01*
X130722500Y-105575000D02*
X130722500Y-104911250D01*
X134530000Y-94753750D02*
X133418750Y-93642500D01*
X132942500Y-99198750D02*
X134530000Y-97611250D01*
X132622500Y-104912501D02*
X132622500Y-105575000D01*
%TO.N,GNDA*%
D66*
X157072500Y-75862500D02*
X156120000Y-75862500D01*
X156271250Y-80302500D02*
X156271250Y-78795000D01*
X156271250Y-101413750D02*
X156278750Y-101421250D01*
X156271250Y-80302500D02*
X156271250Y-81411250D01*
X156271250Y-100305000D02*
X156271250Y-98797500D01*
X157571250Y-86027500D02*
X157571250Y-86027502D01*
X154215000Y-83891250D02*
X154782500Y-83891250D01*
X155621250Y-96028750D02*
X155621250Y-94935000D01*
X156271250Y-98797500D02*
X156346250Y-98722500D01*
X155621250Y-94935000D02*
X155643750Y-94912500D01*
X156271250Y-78795000D02*
X156346250Y-78720000D01*
X156271250Y-90303750D02*
X156271250Y-88796250D01*
X155621250Y-85092500D02*
X155643750Y-85070000D01*
X153262500Y-75612500D02*
X153262500Y-75194100D01*
X157571250Y-106030000D02*
X157571250Y-105730000D01*
X155621250Y-106030000D02*
X155621250Y-104936250D01*
X157571250Y-96028750D02*
X157571250Y-96028752D01*
X153262500Y-75194100D02*
X153546600Y-74910000D01*
X156271250Y-91412500D02*
X156278750Y-91420000D01*
X154215000Y-103893750D02*
X154917500Y-103893750D01*
X154917500Y-103893750D02*
X155008750Y-103802500D01*
X154758750Y-93892500D02*
X154850000Y-93801250D01*
X155621250Y-86027500D02*
X155621250Y-85092500D01*
X156271250Y-90303750D02*
X156271250Y-91412500D01*
X157571250Y-105730000D02*
X157548750Y-105707500D01*
X155621250Y-104936250D02*
X155643750Y-104913750D01*
X156271250Y-81411250D02*
X156278750Y-81418750D01*
X156271250Y-88796250D02*
X156346250Y-88721250D01*
X154782500Y-83891250D02*
X154850000Y-83958750D01*
X154215000Y-93892500D02*
X154758750Y-93892500D01*
X156271250Y-100305000D02*
X156271250Y-101413750D01*
%TO.N,Net-(J11-Pin_4)*%
D68*
X147250000Y-74028750D02*
X147162500Y-74116250D01*
X147250000Y-72046250D02*
X147250000Y-74028750D01*
X146418904Y-75721096D02*
X147162500Y-74977500D01*
X145183596Y-75721096D02*
X146418904Y-75721096D01*
X144531250Y-74031100D02*
X144531250Y-75068750D01*
X143938900Y-73438750D02*
X144531250Y-74031100D01*
X147162500Y-74977500D02*
X147162500Y-74116250D01*
X142782500Y-73438750D02*
X143938900Y-73438750D01*
X144531250Y-75068750D02*
X145183596Y-75721096D01*
%TO.N,/Gate Driver/SHA*%
D65*
X154559144Y-107612500D02*
X161358750Y-107612500D01*
X161358750Y-107612500D02*
X161676250Y-107295000D01*
X156278750Y-104437500D02*
X156278750Y-106022500D01*
X161676250Y-107295000D02*
X161676250Y-105037500D01*
X156278750Y-106022500D02*
X156271250Y-106030000D01*
X148638750Y-104417500D02*
X149173100Y-104951850D01*
X161676250Y-105037500D02*
X163546250Y-103167500D01*
X151898494Y-104951850D02*
X154559144Y-107612500D01*
X149173100Y-104951850D02*
X151898494Y-104951850D01*
X148638750Y-103710000D02*
X148638750Y-104417500D01*
%TO.N,Net-(Q1-G)*%
X165140000Y-106818750D02*
X166886250Y-105072500D01*
X164652500Y-106818750D02*
X165140000Y-106818750D01*
X166886250Y-105072500D02*
X167016250Y-105072500D01*
%TO.N,Net-(U2-CPL)*%
X143578750Y-104596250D02*
X145252499Y-104596250D01*
X145638750Y-103710000D02*
X145638750Y-104123750D01*
X143261250Y-104913750D02*
X143578750Y-104596250D01*
X145638750Y-104209999D02*
X145638750Y-103810000D01*
X143261250Y-105726250D02*
X143261250Y-104913750D01*
X145252499Y-104596250D02*
X145638750Y-104209999D01*
%TO.N,Net-(U2-CPH)*%
X143261250Y-107681250D02*
X144213750Y-106728750D01*
X144531250Y-105072500D02*
X145483750Y-105072500D01*
X146138750Y-104417500D02*
X146138750Y-103710000D01*
X145483750Y-105072500D02*
X146138750Y-104417500D01*
X144213750Y-105390000D02*
X144531250Y-105072500D01*
X144213750Y-106728750D02*
X144213750Y-105390000D01*
%TO.N,Net-(U5-+)*%
X158991250Y-76656250D02*
X158991250Y-75068750D01*
X158991250Y-75068750D02*
X158991250Y-74143750D01*
X158835000Y-76812500D02*
X158991250Y-76656250D01*
X158991250Y-74143750D02*
X159336250Y-73798750D01*
X157072500Y-76812500D02*
X158835000Y-76812500D01*
%TO.N,/Inverter/PV_SENSE*%
X154850000Y-73163750D02*
X154850000Y-74860000D01*
X157072500Y-74912500D02*
X154797500Y-74912500D01*
X138518750Y-86293441D02*
X138518750Y-90903750D01*
X154850000Y-74860000D02*
X154797500Y-74912500D01*
X138527750Y-86284441D02*
X138518750Y-86293441D01*
%TO.N,/MCU/LED_G*%
X135006250Y-75386250D02*
X135323750Y-75068750D01*
X134093750Y-82478750D02*
X135216250Y-82478750D01*
X135323750Y-75068750D02*
X137387500Y-75068750D01*
X135641250Y-82053750D02*
X135641250Y-80744062D01*
X137387500Y-75068750D02*
X137705000Y-74751250D01*
X135006250Y-80109062D02*
X135006250Y-75386250D01*
X135641250Y-80744062D02*
X135006250Y-80109062D01*
X137705000Y-74751250D02*
X137705000Y-73126250D01*
X135216250Y-82478750D02*
X135641250Y-82053750D01*
%TO.N,Net-(D3-A)*%
X137705000Y-71931250D02*
X138856250Y-71931250D01*
X138856250Y-71931250D02*
X139133750Y-71653750D01*
%TO.N,Net-(C49-Pad2)*%
X128815000Y-112692500D02*
X129291250Y-112216250D01*
X124846250Y-112375000D02*
X125163750Y-112692500D01*
X129291250Y-111342500D02*
X130372500Y-111342500D01*
X124846250Y-111342500D02*
X124846250Y-112375000D01*
X125163750Y-112692500D02*
X128815000Y-112692500D01*
X130372500Y-111342500D02*
X130402500Y-111312500D01*
X129291250Y-112216250D02*
X129291250Y-111342500D01*
%TO.N,+3V3A*%
D66*
X133073750Y-87478750D02*
X134093750Y-87478750D01*
X132625000Y-89673750D02*
X132625000Y-87927500D01*
X132216250Y-90082500D02*
X132625000Y-89673750D01*
X131355000Y-90082500D02*
X132216250Y-90082500D01*
X131355000Y-90082500D02*
X131355000Y-91338750D01*
X131355000Y-91338750D02*
X131595000Y-91578750D01*
X130085000Y-90082500D02*
X131355000Y-90082500D01*
X132625000Y-87927500D02*
X133073750Y-87478750D01*
%TO.N,Net-(D1-A)*%
D65*
X122182500Y-103800000D02*
X121905000Y-104077500D01*
X122182500Y-102648750D02*
X122182500Y-103800000D01*
%TO.N,/Inverter/ISENSE_A*%
X135021429Y-86478750D02*
X134093750Y-86478750D01*
X136946429Y-88403750D02*
X135021429Y-86478750D01*
X136946429Y-89522273D02*
X136946429Y-88403750D01*
X154215000Y-101542500D02*
X154215000Y-102758750D01*
X152665000Y-102177500D02*
X152627500Y-102215000D01*
X154215000Y-102177500D02*
X152665000Y-102177500D01*
%TO.N,Net-(U1-VCAP_1)*%
X142400000Y-93007500D02*
X143018750Y-92388750D01*
X143018750Y-92388750D02*
X143018750Y-90903750D01*
%TO.N,/Encoders/EXT_ENCDA*%
X149852550Y-79431200D02*
X150405000Y-78878750D01*
X151040000Y-76852500D02*
X151040000Y-75348750D01*
X143018750Y-79553750D02*
X143018750Y-78632500D01*
X143407500Y-78243750D02*
X146518800Y-78243750D01*
X147706250Y-79431200D02*
X149852550Y-79431200D01*
X150405000Y-78878750D02*
X150405000Y-77487500D01*
X146518800Y-78243750D02*
X147706250Y-79431200D01*
X143018750Y-78632500D02*
X143407500Y-78243750D01*
X150405000Y-77487500D02*
X151040000Y-76852500D01*
%TO.N,Net-(J11-Pin_1)*%
X151040000Y-74153750D02*
X151040000Y-72086250D01*
X151040000Y-72086250D02*
X151000000Y-72046250D01*
%TO.N,Net-(J11-Pin_2)*%
X149770000Y-72066250D02*
X149750000Y-72046250D01*
X149770000Y-74153750D02*
X149770000Y-72066250D01*
%TO.N,Net-(J11-Pin_3)*%
X148500000Y-74153750D02*
X148500000Y-72046250D01*
%TO.N,/Gate Driver/GHC*%
X151478288Y-100560000D02*
X153269850Y-98768438D01*
X151872500Y-89793750D02*
X153660550Y-88005700D01*
X150788750Y-100560000D02*
X151478288Y-100560000D01*
X157390000Y-88005700D02*
X157891162Y-88005700D01*
X153660550Y-88005700D02*
X157390000Y-88005700D01*
X161638050Y-88005700D02*
X162827500Y-86816250D01*
X153269850Y-98768438D02*
X153269850Y-92176167D01*
X157891162Y-88005700D02*
X161638050Y-88005700D01*
X153269850Y-92176167D02*
X151872500Y-90778818D01*
X151872500Y-90778818D02*
X151872500Y-89793750D01*
%TO.N,Net-(Q5-G)*%
X165475000Y-85993750D02*
X166092500Y-85993750D01*
X166092500Y-85993750D02*
X167016250Y-85070000D01*
X164652500Y-86816250D02*
X165475000Y-85993750D01*
%TO.N,/Encoders/EXT_ENCDB*%
X141153750Y-77767500D02*
X146556900Y-77767500D01*
X147865000Y-79075600D02*
X148756242Y-79075600D01*
X140518750Y-79553750D02*
X140518750Y-78402500D01*
X149135000Y-77487500D02*
X149770000Y-76852500D01*
X140518750Y-78402500D02*
X141153750Y-77767500D01*
X146556900Y-77767500D02*
X147865000Y-79075600D01*
X149770000Y-76852500D02*
X149770000Y-75348750D01*
X149135000Y-78696842D02*
X149135000Y-77487500D01*
X148756242Y-79075600D02*
X149135000Y-78696842D01*
%TO.N,/Inverter/ISENSE_C*%
X154215000Y-81540000D02*
X154215000Y-82756250D01*
X137519750Y-88217250D02*
X137518750Y-88218250D01*
X154215000Y-81540000D02*
X152665000Y-81540000D01*
X152665000Y-81540000D02*
X152627500Y-81577500D01*
X137518750Y-88218250D02*
X137518750Y-90903750D01*
%TO.N,/Inverter/ISENSE_B*%
X154215000Y-91541250D02*
X153701248Y-91541250D01*
X153701248Y-91541250D02*
X152627498Y-90467500D01*
X136018750Y-88781250D02*
X136018750Y-90903750D01*
X135982566Y-88745066D02*
X136018750Y-88781250D01*
X154215000Y-91541250D02*
X154215000Y-92757500D01*
%TO.N,/Gate Driver/GLC*%
X158342500Y-86816250D02*
X158858750Y-86816250D01*
X151159650Y-91073170D02*
X151159650Y-89395350D01*
X152557650Y-98474850D02*
X152557650Y-92471170D01*
X152557650Y-92471170D02*
X151159650Y-91073170D01*
X157866250Y-87292500D02*
X158342500Y-86816250D01*
X153262500Y-87292500D02*
X157866250Y-87292500D01*
X151159650Y-89395350D02*
X153262500Y-87292500D01*
X150788750Y-99560000D02*
X151472500Y-99560000D01*
X151472500Y-99560000D02*
X152557650Y-98474850D01*
%TO.N,Net-(Q6-G)*%
X159555000Y-85687500D02*
X160683750Y-86816250D01*
X159555000Y-85070000D02*
X159555000Y-85687500D01*
%TO.N,Net-(U3-BP)*%
X132648750Y-103326250D02*
X132622500Y-103300000D01*
X132622500Y-103300000D02*
X133801250Y-103300000D01*
X133801250Y-103300000D02*
X133895000Y-103393750D01*
%TO.N,/MCU/NRST*%
X132148750Y-86657500D02*
X132466250Y-86340000D01*
X131287500Y-86687500D02*
X131317500Y-86657500D01*
X131287500Y-87768750D02*
X131287500Y-86687500D01*
X132466250Y-84911250D02*
X132898750Y-84478750D01*
X131317500Y-86657500D02*
X132148750Y-86657500D01*
X132898750Y-84478750D02*
X134093750Y-84478750D01*
X132466250Y-86340000D02*
X132466250Y-84911250D01*
%TO.N,/MCU/LED_R*%
X134530000Y-80307500D02*
X135165000Y-80942500D01*
X134922500Y-81978750D02*
X134093750Y-81978750D01*
X134530000Y-74910000D02*
X134530000Y-80307500D01*
X134847500Y-74592500D02*
X134530000Y-74910000D01*
X135165000Y-81736250D02*
X134922500Y-81978750D01*
X135165000Y-80942500D02*
X135165000Y-81736250D01*
X134847500Y-73126250D02*
X134847500Y-74592500D01*
%TO.N,Net-(D2-A)*%
X135998750Y-71931250D02*
X136276250Y-71653750D01*
X134847500Y-71931250D02*
X135998750Y-71931250D01*
%TO.N,Net-(R24-Pad1)*%
X154215000Y-80345000D02*
X155578750Y-80345000D01*
X155578750Y-80345000D02*
X155621250Y-80302500D01*
%TO.N,Net-(R20-Pad1)*%
X155578750Y-90346250D02*
X155621250Y-90303750D01*
X154215000Y-90346250D02*
X155578750Y-90346250D01*
%TO.N,Net-(R14-Pad1)*%
X154215000Y-100347500D02*
X155578750Y-100347500D01*
X155578750Y-100347500D02*
X155621250Y-100305000D01*
%TO.N,/MCU/BOOT0*%
X138018750Y-79553750D02*
X138018750Y-77967500D01*
X138018750Y-77967500D02*
X138218750Y-77767500D01*
%TO.N,/Encoders/EXT_ENCDI*%
X148500000Y-76852500D02*
X148500000Y-75348750D01*
X146720691Y-76852500D02*
X148500000Y-76852500D01*
X146436250Y-78978767D02*
X143709553Y-81705464D01*
X142708858Y-81705464D02*
X142018750Y-82395572D01*
X142018750Y-82395572D02*
X142018750Y-90903750D01*
X143709553Y-81705464D02*
X142708858Y-81705464D01*
X146436250Y-77174510D02*
X146436250Y-77136941D01*
X146436250Y-77136941D02*
X146720691Y-76852500D01*
X146436250Y-78878750D02*
X146436250Y-78978767D01*
%TO.N,/MCU/OSC_IN*%
X130152500Y-81465000D02*
X129870000Y-81747500D01*
X133097500Y-83478750D02*
X132466250Y-82847500D01*
X132466250Y-82847500D02*
X130970000Y-82847500D01*
X134093750Y-83478750D02*
X133097500Y-83478750D01*
X130970000Y-82847500D02*
X129870000Y-81747500D01*
X130152500Y-80148750D02*
X130152500Y-81465000D01*
%TO.N,/Communications/USB_N*%
X132587500Y-95706250D02*
X133178049Y-96296799D01*
X133587851Y-96296799D02*
X133736250Y-96148400D01*
X144234449Y-83431950D02*
X144075418Y-83431950D01*
X145443750Y-83478750D02*
X144281249Y-83478750D01*
X144281249Y-83478750D02*
X144234449Y-83431950D01*
X133178049Y-96296799D02*
X133587851Y-96296799D01*
X144075418Y-83431950D02*
X143149515Y-84357853D01*
X143149515Y-84357853D02*
X142943750Y-84357853D01*
%TO.N,/MCU/OSC_OUT*%
X131287500Y-84230000D02*
X131570000Y-83947500D01*
X131601250Y-83978750D02*
X131570000Y-83947500D01*
X131287500Y-85546250D02*
X131287500Y-84230000D01*
X134093750Y-83978750D02*
X131601250Y-83978750D01*
%TO.N,Net-(U2-FB)*%
X141475000Y-105707500D02*
X141475000Y-107453750D01*
X144638750Y-103710000D02*
X143671250Y-103710000D01*
X141475000Y-105707500D02*
X141515000Y-105707500D01*
X143472500Y-103710000D02*
X141475000Y-105707500D01*
X143671250Y-103710000D02*
X143472500Y-103710000D01*
%TO.N,Net-(U2-VCP)*%
X145007500Y-105726250D02*
X145441328Y-105726250D01*
X145441328Y-105726250D02*
X146638750Y-104528828D01*
X146638750Y-104528828D02*
X146638750Y-103710000D01*
%TO.N,Net-(D4-K)*%
D67*
X139513750Y-99833750D02*
X139513750Y-102223750D01*
D65*
X142765000Y-101560000D02*
X141038750Y-99833750D01*
D67*
X141038750Y-99743750D02*
X139603750Y-99743750D01*
X139513750Y-102223750D02*
X139363750Y-102373750D01*
X139603750Y-99743750D02*
X139513750Y-99833750D01*
D65*
X143988750Y-101560000D02*
X142765000Y-101560000D01*
X141038750Y-99833750D02*
X141038750Y-99743750D01*
D67*
X139513750Y-99040000D02*
X139513750Y-99833750D01*
%TO.N,/Gate Driver/GHA*%
D65*
X154412850Y-107969100D02*
X161677150Y-107969100D01*
X148760750Y-105307450D02*
X151751200Y-105307450D01*
X148138750Y-103710000D02*
X148138750Y-104685450D01*
X151751200Y-105307450D02*
X154412850Y-107969100D01*
X148138750Y-104685450D02*
X148760750Y-105307450D01*
X161677150Y-107969100D02*
X162827500Y-106818750D01*
%TO.N,/MCU/SWDIO*%
X127839419Y-84908899D02*
X127229662Y-84908899D01*
X142668890Y-82502250D02*
X142692390Y-82478750D01*
X142692390Y-82478750D02*
X145443750Y-82478750D01*
X142626250Y-82502250D02*
X142668890Y-82502250D01*
X128152095Y-85221575D02*
X127839419Y-84908899D01*
X128815000Y-85221575D02*
X128152095Y-85221575D01*
%TO.N,/MCU/SWCLK*%
X143499375Y-81201464D02*
X143499375Y-79573125D01*
X128338750Y-86181250D02*
X126840855Y-86181250D01*
X143499375Y-79573125D02*
X143518750Y-79553750D01*
X126840855Y-86181250D02*
X126701389Y-86041784D01*
%TO.N,/Gate Driver/GLA*%
X149525001Y-104596250D02*
X149138750Y-104209999D01*
X158541250Y-107136250D02*
X154691250Y-107136250D01*
X158858750Y-106818750D02*
X158541250Y-107136250D01*
X154691250Y-107136250D02*
X152151250Y-104596250D01*
X152151250Y-104596250D02*
X149525001Y-104596250D01*
X149138750Y-103710000D02*
X149138750Y-103973884D01*
X149138750Y-104209999D02*
X149138750Y-103810000D01*
%TO.N,/Gate Driver/GLB*%
X157369455Y-98030645D02*
X157390000Y-98010100D01*
X155568499Y-98030645D02*
X157369455Y-98030645D01*
X151539144Y-102060000D02*
X155568499Y-98030645D01*
X158858750Y-96063750D02*
X158818750Y-96023750D01*
X158858750Y-96817500D02*
X158858750Y-96063750D01*
X150788750Y-102060000D02*
X151539144Y-102060000D01*
%TO.N,/Gate Driver/SHB*%
X156278750Y-96021250D02*
X156271250Y-96028750D01*
X155592386Y-97503864D02*
X157600114Y-97503864D01*
X151536250Y-101560000D02*
X155592386Y-97503864D01*
X161676250Y-97214572D02*
X161676250Y-95010000D01*
X158371250Y-98275000D02*
X160615822Y-98275000D01*
X161676250Y-95010000D02*
X163520000Y-93166250D01*
X156278750Y-94436250D02*
X156278750Y-96021250D01*
X150788750Y-101560000D02*
X151536250Y-101560000D01*
X157600114Y-97503864D02*
X158371250Y-98275000D01*
X160615822Y-98275000D02*
X161676250Y-97214572D01*
%TO.N,/Gate Driver/SHC*%
X152913250Y-92323876D02*
X151516250Y-90926876D01*
X151516250Y-89543058D02*
X153410208Y-87649100D01*
X150788750Y-100060000D02*
X151475394Y-100060000D01*
X156278750Y-86020000D02*
X156271250Y-86027500D01*
X151516250Y-90926876D02*
X151516250Y-89543058D01*
X156278750Y-84435000D02*
X156278750Y-86020000D01*
X161319650Y-87649100D02*
X161676250Y-87292500D01*
X151475394Y-100060000D02*
X152913250Y-98622144D01*
X153410208Y-87649100D02*
X161319650Y-87649100D01*
X161676250Y-84993750D02*
X163505000Y-83165000D01*
X161676250Y-87292500D02*
X161676250Y-84993750D01*
X152913250Y-98622144D02*
X152913250Y-92323876D01*
%TO.N,/Gate Driver/FAULT*%
X142518750Y-89622500D02*
X142518750Y-90903750D01*
X142522750Y-89618500D02*
X142518750Y-89622500D01*
X148638750Y-96421935D02*
X148638750Y-96910000D01*
X148638750Y-96219766D02*
X148638750Y-96810000D01*
X148459537Y-96040553D02*
X148638750Y-96219766D01*
X142522750Y-89515000D02*
X142522750Y-89618500D01*
%TO.N,/Gate Driver/IDRIVE*%
X150246250Y-94240000D02*
X151357500Y-94240000D01*
X150246250Y-94240000D02*
X149573750Y-94912500D01*
X147638750Y-96144538D02*
X147638750Y-96910000D01*
X149573750Y-94912500D02*
X148870788Y-94912500D01*
X148870788Y-94912500D02*
X147638750Y-96144538D01*
%TO.N,/Gate Driver/VDS*%
X148023750Y-94240000D02*
X149135000Y-94240000D01*
X147138750Y-96141644D02*
X147138750Y-96910000D01*
X148023750Y-95256644D02*
X147138750Y-96141644D01*
X148023750Y-94240000D02*
X148023750Y-95256644D01*
%TO.N,/Gate Driver/EN_GATE*%
X144281250Y-85478750D02*
X145443750Y-85478750D01*
X143737500Y-87451250D02*
X143737500Y-86022500D01*
X143737500Y-86022500D02*
X144281250Y-85478750D01*
X146138750Y-96910000D02*
X146138750Y-96417682D01*
X146138750Y-96417682D02*
X147206210Y-95350222D01*
%TO.N,DVDD*%
X144638750Y-96810000D02*
X144638750Y-96392500D01*
X151357500Y-92470986D02*
X151357500Y-93045000D01*
X149135000Y-91737500D02*
X150624014Y-91737500D01*
X144638750Y-96392500D02*
X146595000Y-94436250D01*
X150624014Y-91737500D02*
X151357500Y-92470986D01*
X144638750Y-96910000D02*
X144638750Y-96551250D01*
X147388750Y-93552500D02*
X147388750Y-92213750D01*
X149135000Y-93045000D02*
X149135000Y-91737500D01*
X146595000Y-94346250D02*
X147388750Y-93552500D01*
X147388750Y-92213750D02*
X147865000Y-91737500D01*
X147865000Y-91737500D02*
X149135000Y-91737500D01*
X146595000Y-94436250D02*
X146595000Y-94346250D01*
%TO.N,/Gate Driver/INH_A*%
X145801250Y-94595000D02*
X145801250Y-92055000D01*
X145801250Y-92055000D02*
X147268100Y-90588150D01*
X147268100Y-90588150D02*
X147268100Y-85584350D01*
X147268100Y-85584350D02*
X146662500Y-84978750D01*
X143896250Y-97552500D02*
X143896250Y-96500000D01*
X143896250Y-96500000D02*
X145801250Y-94595000D01*
X146662500Y-84978750D02*
X145443750Y-84978750D01*
X143888750Y-97560000D02*
X143896250Y-97552500D01*
%TO.N,/Gate Driver/INL_A*%
X143888750Y-98060000D02*
X143395328Y-98060000D01*
X146911500Y-89037750D02*
X146352500Y-88478750D01*
X146352500Y-88478750D02*
X145443750Y-88478750D01*
X143193150Y-97857822D02*
X143193150Y-96700206D01*
X145445650Y-94447706D02*
X145445650Y-91907706D01*
X145445650Y-91907706D02*
X146911500Y-90441856D01*
X146911500Y-90441856D02*
X146911500Y-89037750D01*
X143395328Y-98060000D02*
X143193150Y-97857822D01*
X143193150Y-96700206D02*
X143261250Y-96632106D01*
X143261250Y-96632106D02*
X145445650Y-94447706D01*
X143988750Y-98060000D02*
X143551250Y-98060000D01*
%TO.N,/Gate Driver/INH_B*%
X142835550Y-96554912D02*
X145090050Y-94300412D01*
X143017906Y-85789594D02*
X144328750Y-84478750D01*
X143389606Y-98560000D02*
X142835550Y-98005944D01*
X142835550Y-98005944D02*
X142835550Y-96554912D01*
X145865000Y-90643768D02*
X143017906Y-87796674D01*
X143017906Y-87796674D02*
X143017906Y-85789594D01*
X144328750Y-84478750D02*
X145443750Y-84478750D01*
X143988750Y-98560000D02*
X143389606Y-98560000D01*
X145090050Y-94300412D02*
X145090050Y-91760412D01*
X145090050Y-91760412D02*
X145865000Y-90985462D01*
X145865000Y-90985462D02*
X145865000Y-90643768D01*
%TO.N,/Gate Driver/INL_B*%
X144734450Y-91265220D02*
X145161939Y-90837731D01*
X145443750Y-87978750D02*
X146702500Y-87978750D01*
X144734450Y-91611704D02*
X144734450Y-91265220D01*
X144733450Y-91612703D02*
X144734450Y-91611704D01*
X143988750Y-99060000D02*
X143385298Y-99060000D01*
X144733450Y-94152704D02*
X144733450Y-91612703D01*
X142479950Y-98154652D02*
X142479950Y-96406203D01*
X146702500Y-87978750D02*
X146753750Y-87927500D01*
X143385298Y-99060000D02*
X142479950Y-98154652D01*
X142479950Y-96406203D02*
X144733450Y-94152704D01*
%TO.N,/Gate Driver/INH_C*%
X143380990Y-99560000D02*
X142124350Y-98303360D01*
X142659650Y-87941312D02*
X142659650Y-85644956D01*
X144325856Y-83978750D02*
X145443750Y-83978750D01*
X144377850Y-91463994D02*
X144377850Y-91117512D01*
X144376850Y-91464995D02*
X144377850Y-91463994D01*
X144378850Y-89660512D02*
X142659650Y-87941312D01*
X142124350Y-98303360D02*
X142124350Y-96257495D01*
X143988750Y-99560000D02*
X143380990Y-99560000D01*
X142659650Y-85644956D02*
X144325856Y-83978750D01*
X144376850Y-94004996D02*
X144376850Y-91464995D01*
X142124350Y-96257495D02*
X144376850Y-94004996D01*
X144378850Y-91116511D02*
X144378850Y-89660512D01*
X144377850Y-91117512D02*
X144378850Y-91116511D01*
%TO.N,/Gate Driver/INL_C*%
X144020250Y-91317286D02*
X144021250Y-91316287D01*
X144419350Y-87478750D02*
X144390020Y-87508080D01*
X143376682Y-100060000D02*
X141768750Y-98452068D01*
X145443750Y-87478750D02*
X144419350Y-87478750D01*
X144022250Y-90968803D02*
X144022250Y-90117250D01*
X144021250Y-90969803D02*
X144022250Y-90968803D01*
X144021250Y-91316287D02*
X144021250Y-90969803D01*
X144022250Y-90117250D02*
X143578750Y-89673750D01*
X143988750Y-100060000D02*
X143376682Y-100060000D01*
X144020250Y-93857288D02*
X144020250Y-91317286D01*
X141768750Y-96108786D02*
X144020250Y-93857288D01*
X141768750Y-98452068D02*
X141768750Y-96108786D01*
%TO.N,Net-(U2-CB)*%
X141832500Y-99992500D02*
X142900000Y-101060000D01*
X141038750Y-98018750D02*
X141038750Y-98246250D01*
X142900000Y-101060000D02*
X143988750Y-101060000D01*
X141832500Y-99040000D02*
X141832500Y-99992500D01*
X141038750Y-98246250D02*
X141832500Y-99040000D01*
D66*
X141287500Y-98018750D02*
X141038750Y-98018750D01*
%TO.N,Net-(U1-VCAP_2)*%
D65*
X147540000Y-81978750D02*
X147773750Y-82212500D01*
X145443750Y-81978750D02*
X147540000Y-81978750D01*
%TO.N,Net-(Q4-G)*%
X159570000Y-95822500D02*
X160565000Y-96817500D01*
X159570000Y-95071250D02*
X159570000Y-95822500D01*
X159591250Y-95092500D02*
X159570000Y-95071250D01*
X160565000Y-96817500D02*
X160683750Y-96817500D01*
%TO.N,/Communications/USB_P*%
X132587500Y-97293750D02*
X133178049Y-96703201D01*
X133178049Y-96703201D02*
X133587851Y-96703201D01*
X145443750Y-82978750D02*
X143572850Y-82978750D01*
X133587851Y-96703201D02*
X133736250Y-96851600D01*
X143572850Y-82978750D02*
X142943750Y-83607850D01*
%TO.N,Net-(Q2-G)*%
X159596250Y-105691250D02*
X160683750Y-106778750D01*
X160683750Y-106778750D02*
X160683750Y-106818750D01*
X159596250Y-105072500D02*
X159596250Y-105691250D01*
%TO.N,/Communications/CAN_TX*%
X128041250Y-105500229D02*
X128468979Y-105072500D01*
X137005184Y-84736329D02*
X137018750Y-84722764D01*
X128468979Y-103091355D02*
X128468979Y-105072500D01*
X128041250Y-106278750D02*
X128041250Y-105500229D01*
X137018750Y-84722764D02*
X137018750Y-79553750D01*
X128473684Y-103086650D02*
X128468979Y-103091355D01*
%TO.N,/Communications/CAN_RX*%
X125726550Y-105231250D02*
X126091250Y-105595950D01*
X137518750Y-79553750D02*
X137518750Y-85208618D01*
X137518750Y-85208618D02*
X137509184Y-85218184D01*
X126091250Y-105595950D02*
X126091250Y-106278750D01*
X125726550Y-103632018D02*
X125726550Y-105231250D01*
%TO.N,/Inverter/OUT_B*%
X156913750Y-95071250D02*
X156913750Y-96021250D01*
X156913750Y-96021250D02*
X156921250Y-96028750D01*
%TO.N,/Inverter/OUT_C*%
X156921250Y-85077500D02*
X156913750Y-85070000D01*
X156921250Y-86027500D02*
X156921250Y-85077500D01*
%TO.N,/Encoders/SCK*%
X138018750Y-89356250D02*
X138018750Y-90903750D01*
X138018750Y-91755481D02*
X138461778Y-92198509D01*
X138023750Y-89351250D02*
X138023750Y-82417632D01*
X140547343Y-92198509D02*
X140648238Y-92097614D01*
X138023750Y-82417632D02*
X138443191Y-81998191D01*
X138461778Y-92198509D02*
X140547343Y-92198509D01*
X138018750Y-89356250D02*
X138023750Y-89351250D01*
X138018750Y-90903750D02*
X138018750Y-91755481D01*
%TO.N,/Encoders/CS0*%
X141197500Y-82276583D02*
X141197500Y-89673750D01*
X142518750Y-79553750D02*
X142518750Y-80955333D01*
X142518750Y-80955333D02*
X141197500Y-82276583D01*
%TO.N,/Encoders/CS1*%
X142467500Y-78271500D02*
X142432133Y-78306867D01*
X142432133Y-78306867D02*
X142404658Y-78306867D01*
X142018750Y-78692775D02*
X142018750Y-79553750D01*
X142404658Y-78306867D02*
X142018750Y-78692775D01*
%TO.N,/Encoders/MISO*%
X140022750Y-81419750D02*
X140022750Y-89197500D01*
X140018750Y-88829692D02*
X140022750Y-88833692D01*
X140018750Y-80466250D02*
X140018750Y-79553750D01*
X140022750Y-88833692D02*
X140022750Y-89197500D01*
X140018750Y-80466250D02*
X140022750Y-80470250D01*
X140022750Y-80470250D02*
X140022750Y-81419750D01*
%TO.N,/Encoders/MOSI*%
X139518750Y-79553750D02*
X139518750Y-89673750D01*
%TO.N,/Inverter/OUT_A*%
X156913750Y-106022500D02*
X156921250Y-106030000D01*
X156913750Y-105072500D02*
X156913750Y-106022500D01*
%TD*%
%TA.AperFunction,Conductor*%
%TO.N,/Gate Driver/SHC*%
G36*
X167417848Y-80947657D02*
G01*
X167433572Y-80951871D01*
X167501442Y-80991055D01*
X167540626Y-81058920D01*
X167544839Y-81074640D01*
X167550000Y-81113832D01*
X167550000Y-84263667D01*
X167544839Y-84302859D01*
X167540626Y-84318579D01*
X167501438Y-84386448D01*
X167433579Y-84425626D01*
X167417859Y-84429839D01*
X167378667Y-84435000D01*
X161371333Y-84435000D01*
X161332143Y-84429840D01*
X161316422Y-84425627D01*
X161248552Y-84386439D01*
X161209371Y-84318572D01*
X161205157Y-84302848D01*
X161200000Y-84263667D01*
X161200000Y-81113832D01*
X161205157Y-81074652D01*
X161209371Y-81058925D01*
X161248555Y-80991057D01*
X161316422Y-80951872D01*
X161317380Y-80951615D01*
X161332152Y-80947658D01*
X161371333Y-80942500D01*
X167378667Y-80942500D01*
X167417848Y-80947657D01*
G37*
%TD.AperFunction*%
%TD*%
%TA.AperFunction,Conductor*%
%TO.N,/Gate Driver/SHB*%
G36*
X167449510Y-90948907D02*
G01*
X167465234Y-90953121D01*
X167533104Y-90992305D01*
X167572288Y-91060170D01*
X167576501Y-91075890D01*
X167581662Y-91115082D01*
X167581662Y-94264917D01*
X167576501Y-94304109D01*
X167572288Y-94319829D01*
X167533100Y-94387698D01*
X167465241Y-94426876D01*
X167449521Y-94431089D01*
X167410329Y-94436250D01*
X161402995Y-94436250D01*
X161363805Y-94431090D01*
X161348084Y-94426877D01*
X161280214Y-94387689D01*
X161241033Y-94319822D01*
X161236819Y-94304098D01*
X161231662Y-94264917D01*
X161231662Y-91115082D01*
X161236819Y-91075902D01*
X161241033Y-91060175D01*
X161280217Y-90992307D01*
X161348084Y-90953122D01*
X161349042Y-90952865D01*
X161363814Y-90948908D01*
X161402995Y-90943750D01*
X167410329Y-90943750D01*
X167449510Y-90948907D01*
G37*
%TD.AperFunction*%
%TD*%
%TA.AperFunction,Conductor*%
%TO.N,/Gate Driver/SHA*%
G36*
X167492076Y-100950157D02*
G01*
X167507800Y-100954371D01*
X167575670Y-100993555D01*
X167614854Y-101061420D01*
X167619067Y-101077140D01*
X167624228Y-101116332D01*
X167624228Y-104266167D01*
X167619067Y-104305359D01*
X167614854Y-104321079D01*
X167575666Y-104388948D01*
X167507807Y-104428126D01*
X167492087Y-104432339D01*
X167452895Y-104437500D01*
X161445561Y-104437500D01*
X161406371Y-104432340D01*
X161390650Y-104428127D01*
X161322780Y-104388939D01*
X161283599Y-104321072D01*
X161279385Y-104305348D01*
X161274228Y-104266167D01*
X161274228Y-101116332D01*
X161279385Y-101077152D01*
X161283599Y-101061425D01*
X161322783Y-100993557D01*
X161390650Y-100954372D01*
X161391608Y-100954115D01*
X161406380Y-100950158D01*
X161445561Y-100945000D01*
X167452895Y-100945000D01*
X167492076Y-100950157D01*
G37*
%TD.AperFunction*%
%TD*%
%TA.AperFunction,Conductor*%
%TO.N,GND*%
G36*
X160432848Y-79332657D02*
G01*
X160448572Y-79336871D01*
X160516442Y-79376055D01*
X160555626Y-79443920D01*
X160559839Y-79459640D01*
X160565000Y-79498832D01*
X160565000Y-84263667D01*
X160559839Y-84302859D01*
X160555626Y-84318579D01*
X160516438Y-84386448D01*
X160448579Y-84425626D01*
X160432859Y-84429839D01*
X160393667Y-84435000D01*
X158196333Y-84435000D01*
X158157143Y-84429840D01*
X158141422Y-84425627D01*
X158073552Y-84386439D01*
X158034371Y-84318572D01*
X158030157Y-84302848D01*
X158025000Y-84263667D01*
X158025000Y-79498832D01*
X158030157Y-79459652D01*
X158034371Y-79443925D01*
X158073555Y-79376057D01*
X158141422Y-79336872D01*
X158142380Y-79336615D01*
X158157152Y-79332658D01*
X158196333Y-79327500D01*
X160393667Y-79327500D01*
X160432848Y-79332657D01*
G37*
%TD.AperFunction*%
%TD*%
%TA.AperFunction,Conductor*%
%TO.N,GND*%
G36*
X160432848Y-89333907D02*
G01*
X160448572Y-89338121D01*
X160516442Y-89377305D01*
X160555626Y-89445170D01*
X160559839Y-89460890D01*
X160565000Y-89500082D01*
X160565000Y-94264917D01*
X160559839Y-94304109D01*
X160555626Y-94319829D01*
X160516438Y-94387698D01*
X160448579Y-94426876D01*
X160432859Y-94431089D01*
X160393667Y-94436250D01*
X158196333Y-94436250D01*
X158157143Y-94431090D01*
X158141422Y-94426877D01*
X158073552Y-94387689D01*
X158034371Y-94319822D01*
X158030157Y-94304098D01*
X158025000Y-94264917D01*
X158025000Y-89500082D01*
X158030157Y-89460902D01*
X158034371Y-89445175D01*
X158073555Y-89377307D01*
X158141422Y-89338122D01*
X158142380Y-89337865D01*
X158157152Y-89333908D01*
X158196333Y-89328750D01*
X160393667Y-89328750D01*
X160432848Y-89333907D01*
G37*
%TD.AperFunction*%
%TD*%
%TA.AperFunction,Conductor*%
%TO.N,VS*%
G36*
X173294300Y-80742784D02*
G01*
X173349716Y-80798200D01*
X173370000Y-80873900D01*
X173370000Y-85979576D01*
X173349716Y-86055276D01*
X173295672Y-86109891D01*
X173241681Y-86141822D01*
X173241677Y-86141825D01*
X173124325Y-86259177D01*
X173124319Y-86259185D01*
X173039836Y-86402037D01*
X172993530Y-86561422D01*
X172990600Y-86598648D01*
X172990600Y-87681351D01*
X172993530Y-87718577D01*
X172993531Y-87718579D01*
X173039835Y-87877960D01*
X173124322Y-88020819D01*
X173124325Y-88020822D01*
X173165197Y-88061694D01*
X173204382Y-88129565D01*
X173204382Y-88207935D01*
X173165197Y-88275806D01*
X173124325Y-88316677D01*
X173124319Y-88316685D01*
X173039836Y-88459537D01*
X173039835Y-88459539D01*
X173039835Y-88459540D01*
X173032738Y-88483966D01*
X172993530Y-88618922D01*
X172990600Y-88656148D01*
X172990600Y-89738851D01*
X172993530Y-89776077D01*
X172993531Y-89776079D01*
X173039835Y-89935460D01*
X173124322Y-90078319D01*
X173241681Y-90195678D01*
X173295670Y-90227607D01*
X173350502Y-90283599D01*
X173370000Y-90357922D01*
X173370000Y-95974576D01*
X173349716Y-96050276D01*
X173295672Y-96104891D01*
X173241681Y-96136822D01*
X173241677Y-96136825D01*
X173124325Y-96254177D01*
X173124319Y-96254185D01*
X173039836Y-96397037D01*
X172993530Y-96556422D01*
X172990600Y-96593648D01*
X172990600Y-97676351D01*
X172993530Y-97713577D01*
X173016683Y-97793269D01*
X173039835Y-97872960D01*
X173124322Y-98015819D01*
X173124325Y-98015822D01*
X173168322Y-98059819D01*
X173207507Y-98127690D01*
X173207507Y-98206060D01*
X173168322Y-98273931D01*
X173124325Y-98317927D01*
X173124319Y-98317935D01*
X173039836Y-98460787D01*
X172993530Y-98620172D01*
X172990600Y-98657398D01*
X172990600Y-99740101D01*
X172993530Y-99777327D01*
X173011448Y-99839000D01*
X173034385Y-99917952D01*
X173039836Y-99936712D01*
X173116917Y-100067048D01*
X173124322Y-100079569D01*
X173241681Y-100196928D01*
X173295670Y-100228857D01*
X173350502Y-100284849D01*
X173370000Y-100359172D01*
X173370000Y-105975826D01*
X173349716Y-106051526D01*
X173295672Y-106106141D01*
X173241681Y-106138072D01*
X173241677Y-106138075D01*
X173124325Y-106255427D01*
X173124319Y-106255435D01*
X173039836Y-106398287D01*
X172993530Y-106557672D01*
X172990600Y-106594898D01*
X172990600Y-107677601D01*
X172993530Y-107714827D01*
X173039836Y-107874212D01*
X173072038Y-107928662D01*
X173124322Y-108017069D01*
X173124325Y-108017072D01*
X173168322Y-108061069D01*
X173207507Y-108128940D01*
X173207507Y-108207310D01*
X173168322Y-108275181D01*
X173124325Y-108319177D01*
X173124319Y-108319185D01*
X173039836Y-108462037D01*
X172993530Y-108621422D01*
X172990600Y-108658648D01*
X172990600Y-109741351D01*
X172993530Y-109778577D01*
X173016683Y-109858269D01*
X173039835Y-109937960D01*
X173124322Y-110080819D01*
X173241681Y-110198178D01*
X173295670Y-110230107D01*
X173350502Y-110286099D01*
X173370000Y-110360422D01*
X173370000Y-112863956D01*
X173349716Y-112939656D01*
X173344088Y-112948660D01*
X172893555Y-113616122D01*
X172890391Y-113620630D01*
X172254899Y-114491995D01*
X172251574Y-114496385D01*
X171584790Y-115344087D01*
X171581307Y-115348352D01*
X171478061Y-115470217D01*
X171413651Y-115514864D01*
X171362545Y-115523750D01*
X168698999Y-115523750D01*
X168623299Y-115503466D01*
X168571251Y-115453606D01*
X168519567Y-115372350D01*
X168489444Y-115324991D01*
X168399916Y-115199059D01*
X168304023Y-115077902D01*
X168202021Y-114961842D01*
X168094180Y-114851187D01*
X168094178Y-114851185D01*
X167980791Y-114746236D01*
X167862131Y-114647244D01*
X167738553Y-114554511D01*
X167645640Y-114491995D01*
X167610356Y-114468254D01*
X167477889Y-114388711D01*
X167440394Y-114368747D01*
X167341516Y-114316100D01*
X167341493Y-114316088D01*
X167201566Y-114250595D01*
X167058450Y-114192391D01*
X167058444Y-114192389D01*
X167058432Y-114192384D01*
X166912496Y-114141620D01*
X166912494Y-114141619D01*
X166912490Y-114141618D01*
X166764151Y-114098439D01*
X166764147Y-114098438D01*
X166764140Y-114098436D01*
X166714509Y-114086723D01*
X166613753Y-114062944D01*
X166613745Y-114062943D01*
X166461749Y-114035244D01*
X166340213Y-114019510D01*
X166308514Y-114015406D01*
X166308508Y-114015405D01*
X166308504Y-114015405D01*
X166308497Y-114015404D01*
X166154484Y-114003482D01*
X166154451Y-114003480D01*
X166000000Y-113999503D01*
X165845548Y-114003480D01*
X165845515Y-114003482D01*
X165691502Y-114015404D01*
X165691495Y-114015405D01*
X165691489Y-114015405D01*
X165691486Y-114015406D01*
X165673716Y-114017706D01*
X165538250Y-114035244D01*
X165386254Y-114062943D01*
X165386246Y-114062944D01*
X165256492Y-114093566D01*
X165235860Y-114098436D01*
X165235856Y-114098436D01*
X165235848Y-114098439D01*
X165087509Y-114141618D01*
X165029099Y-114161936D01*
X164941568Y-114192384D01*
X164941561Y-114192386D01*
X164941549Y-114192391D01*
X164798433Y-114250595D01*
X164658506Y-114316088D01*
X164658483Y-114316100D01*
X164522110Y-114388711D01*
X164522105Y-114388714D01*
X164389661Y-114468243D01*
X164389637Y-114468258D01*
X164261446Y-114554511D01*
X164137868Y-114647244D01*
X164019208Y-114746236D01*
X163905821Y-114851185D01*
X163905801Y-114851205D01*
X163797980Y-114961840D01*
X163797975Y-114961846D01*
X163695969Y-115077911D01*
X163600081Y-115199062D01*
X163510566Y-115324976D01*
X163510564Y-115324978D01*
X163428749Y-115453606D01*
X163371006Y-115506593D01*
X163301001Y-115523750D01*
X134127650Y-115523750D01*
X134051950Y-115503466D01*
X133996534Y-115448050D01*
X133976250Y-115372350D01*
X133976250Y-109874983D01*
X133996534Y-109799283D01*
X134051950Y-109743867D01*
X134098119Y-109726491D01*
X134102595Y-109725601D01*
X134157782Y-109702741D01*
X134167357Y-109698775D01*
X134167358Y-109698774D01*
X134232117Y-109671951D01*
X134348683Y-109594064D01*
X134447814Y-109494933D01*
X134447815Y-109494931D01*
X134456437Y-109486309D01*
X134456443Y-109486302D01*
X134975052Y-108967693D01*
X134975059Y-108967687D01*
X134983681Y-108959065D01*
X134983683Y-108959064D01*
X135082814Y-108859933D01*
X135160701Y-108743367D01*
X135192644Y-108666249D01*
X135214351Y-108613845D01*
X135214352Y-108613842D01*
X135216294Y-108607442D01*
X135257683Y-108540892D01*
X135326801Y-108503953D01*
X135361172Y-108500000D01*
X135889606Y-108500000D01*
X135931844Y-108506011D01*
X135965899Y-108515904D01*
X136015171Y-108530219D01*
X136048692Y-108532857D01*
X136052398Y-108533149D01*
X136052406Y-108533149D01*
X136052412Y-108533150D01*
X136052413Y-108533150D01*
X137135087Y-108533150D01*
X137135088Y-108533150D01*
X137172329Y-108530219D01*
X137228238Y-108513976D01*
X137255656Y-108506011D01*
X137297894Y-108500000D01*
X138907743Y-108500000D01*
X138983443Y-108520284D01*
X139033627Y-108567286D01*
X139069800Y-108621422D01*
X139099753Y-108666249D01*
X139191251Y-108757747D01*
X139291897Y-108824997D01*
X139298841Y-108829637D01*
X139418387Y-108879154D01*
X139418389Y-108879155D01*
X139545301Y-108904400D01*
X139674700Y-108904400D01*
X139674700Y-108904399D01*
X139751428Y-108889137D01*
X139829630Y-108894261D01*
X139894793Y-108937800D01*
X139929456Y-109008088D01*
X139924332Y-109086291D01*
X139919467Y-109098778D01*
X139899331Y-109144381D01*
X139899325Y-109144400D01*
X139849393Y-109356697D01*
X139849392Y-109356705D01*
X139849392Y-109356707D01*
X139843100Y-109447358D01*
X139843100Y-111552642D01*
X139848440Y-111629573D01*
X139849392Y-111643294D01*
X139849393Y-111643302D01*
X139899325Y-111855599D01*
X139899328Y-111855608D01*
X139899329Y-111855611D01*
X139987429Y-112055138D01*
X140110692Y-112235080D01*
X140264920Y-112389308D01*
X140444862Y-112512571D01*
X140644389Y-112600671D01*
X140644396Y-112600672D01*
X140644400Y-112600674D01*
X140856697Y-112650606D01*
X140856700Y-112650606D01*
X140856707Y-112650608D01*
X140947358Y-112656900D01*
X140947366Y-112656900D01*
X143052634Y-112656900D01*
X143052642Y-112656900D01*
X143143293Y-112650608D01*
X143143302Y-112650606D01*
X143355599Y-112600674D01*
X143355600Y-112600673D01*
X143355611Y-112600671D01*
X143555138Y-112512571D01*
X143735080Y-112389308D01*
X143889308Y-112235080D01*
X144012571Y-112055138D01*
X144100671Y-111855611D01*
X144150608Y-111643293D01*
X144156900Y-111552642D01*
X144156900Y-110967240D01*
X144177184Y-110891540D01*
X144232600Y-110836124D01*
X144308300Y-110815840D01*
X144384000Y-110836124D01*
X144438615Y-110890170D01*
X144485572Y-110969569D01*
X144602931Y-111086928D01*
X144745790Y-111171415D01*
X144905171Y-111217719D01*
X144921398Y-111218996D01*
X144942398Y-111220649D01*
X144942406Y-111220649D01*
X144942412Y-111220650D01*
X144942413Y-111220650D01*
X146025087Y-111220650D01*
X146025088Y-111220650D01*
X146062329Y-111217719D01*
X146221710Y-111171415D01*
X146364569Y-111086928D01*
X146408570Y-111042926D01*
X146476438Y-111003742D01*
X146554809Y-111003741D01*
X146622677Y-111042924D01*
X146666681Y-111086928D01*
X146809540Y-111171415D01*
X146968921Y-111217719D01*
X146985148Y-111218996D01*
X147006148Y-111220649D01*
X147006156Y-111220649D01*
X147006162Y-111220650D01*
X147006163Y-111220650D01*
X148088837Y-111220650D01*
X148088838Y-111220650D01*
X148126079Y-111217719D01*
X148285460Y-111171415D01*
X148428319Y-111086928D01*
X148472320Y-111042926D01*
X148540188Y-111003742D01*
X148618559Y-111003741D01*
X148686427Y-111042924D01*
X148730431Y-111086928D01*
X148873290Y-111171415D01*
X149032671Y-111217719D01*
X149048898Y-111218996D01*
X149069898Y-111220649D01*
X149069906Y-111220649D01*
X149069912Y-111220650D01*
X149069913Y-111220650D01*
X150152587Y-111220650D01*
X150152588Y-111220650D01*
X150189829Y-111217719D01*
X150349210Y-111171415D01*
X150492069Y-111086928D01*
X150536070Y-111042926D01*
X150603938Y-111003742D01*
X150682309Y-111003741D01*
X150750177Y-111042924D01*
X150794181Y-111086928D01*
X150937040Y-111171415D01*
X151096421Y-111217719D01*
X151112648Y-111218996D01*
X151133648Y-111220649D01*
X151133656Y-111220649D01*
X151133662Y-111220650D01*
X151133663Y-111220650D01*
X152216337Y-111220650D01*
X152216338Y-111220650D01*
X152253579Y-111217719D01*
X152412960Y-111171415D01*
X152555819Y-111086928D01*
X152673178Y-110969569D01*
X152757665Y-110826710D01*
X152803969Y-110667329D01*
X152806900Y-110630088D01*
X152806900Y-109822412D01*
X152803969Y-109785171D01*
X152757665Y-109625790D01*
X152673178Y-109482931D01*
X152555819Y-109365572D01*
X152490429Y-109326900D01*
X152412962Y-109281086D01*
X152412961Y-109281085D01*
X152412960Y-109281085D01*
X152333269Y-109257933D01*
X152253577Y-109234780D01*
X152216351Y-109231850D01*
X152216338Y-109231850D01*
X151893834Y-109231850D01*
X151818134Y-109211566D01*
X151762718Y-109156150D01*
X151742434Y-109080450D01*
X151762718Y-109004750D01*
X151763518Y-109003381D01*
X151784627Y-108967687D01*
X151805165Y-108932960D01*
X151851469Y-108773579D01*
X151854400Y-108736338D01*
X151854400Y-108651400D01*
X151874684Y-108575700D01*
X151930100Y-108520284D01*
X152005800Y-108500000D01*
X158010101Y-108500000D01*
X158085801Y-108520284D01*
X158141217Y-108575700D01*
X158161501Y-108651400D01*
X158141217Y-108727100D01*
X158117160Y-108758451D01*
X158110692Y-108764920D01*
X158110689Y-108764923D01*
X157987430Y-108944859D01*
X157899330Y-109144386D01*
X157899325Y-109144400D01*
X157849393Y-109356697D01*
X157849392Y-109356705D01*
X157849392Y-109356707D01*
X157843100Y-109447358D01*
X157843100Y-111552642D01*
X157848440Y-111629573D01*
X157849392Y-111643294D01*
X157849393Y-111643302D01*
X157899325Y-111855599D01*
X157899328Y-111855608D01*
X157899329Y-111855611D01*
X157987429Y-112055138D01*
X158110692Y-112235080D01*
X158264920Y-112389308D01*
X158444862Y-112512571D01*
X158644389Y-112600671D01*
X158644396Y-112600672D01*
X158644400Y-112600674D01*
X158856697Y-112650606D01*
X158856700Y-112650606D01*
X158856707Y-112650608D01*
X158947358Y-112656900D01*
X158947366Y-112656900D01*
X161052634Y-112656900D01*
X161052642Y-112656900D01*
X161143293Y-112650608D01*
X161143302Y-112650606D01*
X161355599Y-112600674D01*
X161355600Y-112600673D01*
X161355611Y-112600671D01*
X161555138Y-112512571D01*
X161735080Y-112389308D01*
X161889308Y-112235080D01*
X162012571Y-112055138D01*
X162100671Y-111855611D01*
X162150608Y-111643293D01*
X162156900Y-111552642D01*
X162156900Y-109447358D01*
X162150608Y-109356707D01*
X162146089Y-109337494D01*
X162100674Y-109144400D01*
X162100672Y-109144396D01*
X162100671Y-109144389D01*
X162012571Y-108944862D01*
X161998040Y-108923650D01*
X161930462Y-108824997D01*
X161889308Y-108764920D01*
X161882841Y-108758453D01*
X161843658Y-108690585D01*
X161843658Y-108612215D01*
X161882843Y-108544344D01*
X161950714Y-108505159D01*
X161989899Y-108500000D01*
X165695791Y-108500000D01*
X165771491Y-108520284D01*
X165802847Y-108544344D01*
X165826681Y-108568178D01*
X165969540Y-108652665D01*
X166128921Y-108698969D01*
X166145148Y-108700246D01*
X166166148Y-108701899D01*
X166166156Y-108701899D01*
X166166162Y-108701900D01*
X166166163Y-108701900D01*
X168298837Y-108701900D01*
X168298838Y-108701900D01*
X168336079Y-108698969D01*
X168495460Y-108652665D01*
X168638319Y-108568178D01*
X168755678Y-108450819D01*
X168840165Y-108307960D01*
X168886469Y-108148579D01*
X168889400Y-108111338D01*
X168889400Y-106478662D01*
X168886469Y-106441421D01*
X168840165Y-106282040D01*
X168755678Y-106139181D01*
X168638319Y-106021822D01*
X168638317Y-106021821D01*
X168638315Y-106021819D01*
X168574329Y-105983977D01*
X168519497Y-105927982D01*
X168500000Y-105853662D01*
X168500000Y-98735086D01*
X168520284Y-98659386D01*
X168574327Y-98604772D01*
X168638319Y-98566928D01*
X168755678Y-98449569D01*
X168840165Y-98306710D01*
X168886469Y-98147329D01*
X168889400Y-98110088D01*
X168889400Y-96477412D01*
X168886469Y-96440171D01*
X168840165Y-96280790D01*
X168755678Y-96137931D01*
X168638319Y-96020572D01*
X168638317Y-96020571D01*
X168638315Y-96020569D01*
X168574329Y-95982727D01*
X168519497Y-95926732D01*
X168500000Y-95852412D01*
X168500000Y-88733836D01*
X168520284Y-88658136D01*
X168574327Y-88603522D01*
X168638319Y-88565678D01*
X168755678Y-88448319D01*
X168840165Y-88305460D01*
X168886469Y-88146079D01*
X168889400Y-88108838D01*
X168889400Y-86476162D01*
X168886469Y-86438921D01*
X168840165Y-86279540D01*
X168755678Y-86136681D01*
X168638319Y-86019322D01*
X168638317Y-86019321D01*
X168638315Y-86019319D01*
X168574329Y-85981477D01*
X168519497Y-85925482D01*
X168500000Y-85851162D01*
X168500000Y-80873900D01*
X168520284Y-80798200D01*
X168575700Y-80742784D01*
X168651400Y-80722500D01*
X173218600Y-80722500D01*
X173294300Y-80742784D01*
G37*
%TD.AperFunction*%
%TD*%
%TA.AperFunction,Conductor*%
%TO.N,GND*%
G36*
X160432848Y-99335157D02*
G01*
X160448572Y-99339371D01*
X160516442Y-99378555D01*
X160555626Y-99446420D01*
X160559839Y-99462140D01*
X160565000Y-99501332D01*
X160565000Y-104266167D01*
X160559839Y-104305359D01*
X160555626Y-104321079D01*
X160516438Y-104388948D01*
X160448579Y-104428126D01*
X160432859Y-104432339D01*
X160393667Y-104437500D01*
X158196333Y-104437500D01*
X158157143Y-104432340D01*
X158141422Y-104428127D01*
X158073552Y-104388939D01*
X158034371Y-104321072D01*
X158030157Y-104305348D01*
X158025000Y-104266167D01*
X158025000Y-99501332D01*
X158030157Y-99462152D01*
X158034371Y-99446425D01*
X158073555Y-99378557D01*
X158141422Y-99339372D01*
X158142380Y-99339115D01*
X158157152Y-99335158D01*
X158196333Y-99330000D01*
X160393667Y-99330000D01*
X160432848Y-99335157D01*
G37*
%TD.AperFunction*%
%TD*%
M02*
